<!-- Generated by IcoMoon.io -->
<svg version="1.1" xmlns="http://www.w3.org/2000/svg" width="40" height="40" viewBox="0 0 448 448">
    <path fill="#fff" d="M224 0c123.75 0 224 100.25 224 224s-100.25 224-224 224-224-100.25-224-224 100.25-224 224-224zM224 32c-32.5 0-63.25 8.25-90.25 22.5l48.5 48.5c13.25-4.5 27.25-7 41.75-7 14.75 0 28.5 2.5 41.75 7l48.5-48.5c-27-14.25-57.75-22.5-90.25-22.5zM54.5 314.25l48.5-48.5c-4.5-13.25-7-27.25-7-41.75 0-14.75 2.5-28.5 7-41.75l-48.5-48.5c-14.25 27-22.5 57.75-22.5 90.25s8.25 63.25 22.5 90.25zM224 416c32.5 0 63.25-8.25 90.25-22.5l-48.5-48.5c-13.25 4.5-27 7-41.75 7-14.5 0-28.5-2.5-41.75-7l-48.5 48.5c27 14.25 57.75 22.5 90.25 22.5zM224 320c53 0 96-43 96-96s-43-96-96-96-96 43-96 96 43 96 96 96zM345 265.75l48.5 48.5c14.25-27 22.5-57.75 22.5-90.25s-8.25-63.25-22.5-90.25l-48.5 48.5c4.5 13.25 7 27.25 7 41.75s-2.5 28.5-7 41.75z"></path>
</svg>
