<!-- Generated by IcoMoon.io -->
<svg version="1.1" xmlns="http://www.w3.org/2000/svg" width="40" height="40" viewBox="0 0 360 448">
    <path fill="#fff" d="M344 40c16 16 0 56-24 80l-40.25 40.25 40 174c0.75 3-0.5 6.25-3 8.25l-32 24c-1.25 1-3 1.5-4.75 1.5-0.5 0-1 0-1.75-0.25-2.25-0.5-4.25-1.75-5.25-4l-69.75-127-64.75 64.75 13.25 48.5c0.75 2.75 0 5.5-2 7.75l-24 24c-1.5 1.5-3.75 2.25-5.75 2.25h-0.5c-2.5-0.25-4.5-1.25-6-3.25l-47.25-63-63-47.25c-2-1.25-3-3.5-3.25-5.75s0.75-4.5 2.25-6.25l24-24.25c1.5-1.5 3.75-2.25 5.75-2.25 0.75 0 1.5 0 2 0.25l48.5 13.25 64.75-64.75-127-69.75c-2.25-1.25-3.75-3.5-4.25-6-0.25-2.25 0.5-5 2.25-6.75l32-32c2-1.75 5-2.75 7.5-2l166.25 39.75 40-40c24-24 64-40 80-24z"></path>
</svg>
