<?xml version="1.0" standalone="no"?>
<!DOCTYPE svg PUBLIC "-//W3C//DTD SVG 1.1//EN" "http://www.w3.org/Graphics/SVG/1.1/DTD/svg11.dtd" >
<svg>
<metadata>
Created by FontForge 20090914 at Fri Nov 20 16:56:21 2020
 By www-data
Copyright (c) 2015 by M&#195;&#130;ns Greb&#226;&#128;&#176;ck. All rights reserved.
</metadata>
<defs>
<font id="KrinkesDecorPERSONALUSE" horiz-adv-x="422" >
  <font-face 
    font-family="Krinkes Decor PERSONAL USE"
    font-weight="400"
    font-stretch="normal"
    units-per-em="1000"
    panose-1="0 0 0 0 0 0 0 0 0 0"
    ascent="750"
    descent="-250"
    x-height="382"
    cap-height="778.004"
    bbox="-4051 -662.995 2149 982"
    underline-thickness="50"
    underline-position="-50"
    unicode-range="U+000D-U+FB02"
  />
<missing-glyph horiz-adv-x="187" 
 />
    <glyph glyph-name="fi" unicode="fi" horiz-adv-x="534" 
d="M87 348c26 65.333 60.0117 114.835 102.012 148.502s88.667 50.5 140 50.5c21.333 0 38.333 -4.83301 51 -14.5s21.334 -22 26.001 -37s5.5 -32 2.5 -51s-9.16699 -37.5 -18.5 -55.5c-8.66699 -16.667 -17.667 -30.5 -27 -41.5s-18.333 -19.667 -27 -26
s-16.834 -10.833 -24.501 -13.5s-13.834 -4 -18.501 -4c-18.667 0 -30.834 7.66699 -36.501 23s-4.5 33.666 3.5 54.999c10 24 23.167 42.833 39.5 56.5s34.5 20.5 54.5 20.5c3.33301 0 7.66602 -0.666992 12.999 -2c1.33301 13.333 -0.833984 24.333 -6.50098 33
s-15.167 13 -28.5 13s-26.333 -4.5 -39 -13.5s-24.834 -20.833 -36.501 -35.5s-22.334 -31.334 -32.001 -50.001s-17.834 -37.334 -24.501 -56.001l-42 -104c2 0 3.83301 -0.166992 5.5 -0.5s3.16699 -0.5 4.5 -0.5c52.667 -2 100.167 6.33301 142.5 25
s76.166 52.667 101.499 102c5.33301 1.33301 11 2.66602 17 3.99902c5.33301 1.33301 11.166 2.33301 17.499 3s12.833 1 19.5 1c14 0 25.833 -1.66699 35.5 -5s16.667 -9.33301 21 -18s5.66602 -20 3.99902 -34s-6.83398 -31.667 -15.501 -53
c-4 -10 -10.333 -24.167 -19 -42.5l-26 -53.5l-32 -66c-5.33301 -13.333 -4.66602 -22.666 2.00098 -27.999s15.834 -6.83301 27.501 -4.5s24.167 8.5 37.5 18.5s24.333 24 33 42l17 -28c-6.66699 -16 -15.834 -30.833 -27.501 -44.5s-24.667 -25.5 -39 -35.5
s-29.666 -18 -45.999 -24s-32.5 -9 -48.5 -9c-32.667 0 -55.334 10.667 -68.001 32s-10.334 53 6.99902 95c3.33301 8 8.83301 19.5 16.5 34.5l24 47.5l23 47l15.5 33c1.33301 2.66699 2.16602 5.33398 2.49902 8.00098s0.833008 5.33398 1.5 8.00098
c-7.33301 -16.667 -18.333 -31 -33 -43s-31.167 -22.167 -49.5 -30.5s-37.5 -14.833 -57.5 -19.5s-38.333 -7.33398 -55 -8.00098c2.66699 -9.33301 3.5 -21 2.5 -35s-3.33301 -29.167 -7 -45.5s-8.5 -33.5 -14.5 -51.5s-13 -35.333 -21 -52
c-29.333 -61.333 -60.333 -108 -93 -140s-65 -48 -97 -48s-54.5 10.833 -67.5 32.5s-10.833 53.167 6.5 94.5zM130.012 22.002c13.333 26.667 23.168 51.168 29.501 73.501s9.83301 41.333 10.5 57s-1.66602 27.667 -6.99902 36s-13 12.166 -23 11.499l-108 -261
c-5.33301 -12.667 -6.33301 -22 -3 -28s9.66602 -6.5 18.999 -1.5s21.166 16.5 35.499 34.5s29.833 44 46.5 78zM593.014 487.003c0 -16.667 -6 -31 -18 -43s-26.333 -18 -43 -18c-17.333 0 -32 6 -44 18s-18 26.333 -18 43s6 31 18 43s26.667 18 44 18
c16.667 0 31 -6 43 -18s18 -26.333 18 -43z" />
    <glyph glyph-name="t_r" unicode="tr" horiz-adv-x="464" 
d="M225 410l-125.003 -304c-5.33301 -12.667 -4.66602 -21.667 2.00098 -27s15.834 -7 27.501 -5s24.167 8 37.5 18s24.333 24 33 42l17 -28c-6.66699 -16 -15.834 -30.833 -27.501 -44.5s-24.667 -25.5 -39 -35.5s-29.666 -18 -45.999 -24s-32.5 -9 -48.5 -9
s-29.833 2.66699 -41.5 8s-20.5 13.333 -26.5 24s-8.66699 24 -8 40s5.33398 34.333 14.001 55l120 290h-67l28 51h60l12 30l120 23l-22 -53h50l-28 -51h-42zM369.997 462c19.333 0 32 -7.5 38 -22.5s4.66699 -33.167 -4 -54.5c-6 -16 -13.333 -29 -22 -39h81
c-2 -6 -5.66699 -15.333 -11 -28l-18 -44l-21.5 -52l-21.5 -51l-17.5 -41.5c-5 -11.667 -8.16699 -19.5 -9.5 -23.5c-5.33301 -12.667 -4.66602 -21.667 2.00098 -27s15.834 -7 27.501 -5s24.167 8 37.5 18s24.333 24 33 42l17 -28
c-6.66699 -16 -15.834 -30.833 -27.501 -44.5s-24.667 -25.5 -39 -35.5s-29.666 -18 -45.999 -24s-32.5 -9 -48.5 -9s-29.833 2.66699 -41.5 8s-20.334 13.333 -26.001 24s-8.16699 24 -7.5 40s5.33398 34.333 14.001 55l80 193c-10 -3.33301 -19.667 -5 -29 -5
c-18.667 0 -31 7.5 -37 22.5s-4.33301 33.167 5 54.5c9.33301 24.667 22.166 43.667 38.499 57s34.166 20 53.499 20z" />
    <glyph glyph-name="f_t" unicode="ft" horiz-adv-x="536" 
d="M87 348c26 65.333 59.9951 114.832 101.995 148.499s88.667 50.5 140 50.5c30.667 0 52.334 -9.5 65.001 -28.5s17.667 -41.5 15 -67.5h58l16 40l120 23l-26 -63h94l-28 -51h-86l-38.5 -93l-38 -91.5l-30 -73c-8.33301 -20.333 -13.166 -32.5 -14.499 -36.5
c-5.33301 -12.667 -4.66602 -21.667 2.00098 -27s15.834 -7 27.501 -5s24.167 8 37.5 18s24.333 24 33 42l17 -28c-6.66699 -16 -15.834 -30.833 -27.501 -44.5s-24.667 -25.5 -39 -35.5s-29.666 -18 -45.999 -24s-32.5 -9 -48.5 -9s-29.833 2.66699 -41.5 8
s-20.5 13.333 -26.5 24s-8.66699 24 -8 40s5.33398 34.333 14.001 55l6 15c-34.667 -25.333 -78.667 -40.666 -132 -45.999l-11 -36.5c-4 -13 -9.33301 -26.167 -16 -39.5c-29.333 -61.333 -60.333 -108 -93 -140s-65 -48 -97 -48s-54.5 10.833 -67.5 32.5
s-10.833 53.167 6.5 94.5zM374.995 227.999l35.5059 87.5029l35.5 84.5h-51c-0.666992 -4 -2.33398 -7.66699 -5.00098 -11c-8.66699 -16.667 -17.667 -30.5 -27 -41.5s-18.333 -19.667 -27 -26s-16.834 -10.833 -24.501 -13.5s-13.834 -4 -18.501 -4
c-18.667 0 -31.167 7.66699 -37.5 23s-4.83301 33.666 4.5 54.999c11.333 24.667 26.333 42.667 45 54s38 17 58 17c4.66699 13.333 4 25 -2 35s-15.667 15 -29 15s-26.333 -4.5 -39 -13.5s-24.834 -20.833 -36.501 -35.5s-22.334 -31.334 -32.001 -50.001
s-17.834 -37.334 -24.501 -56.001l-54 -131c40.667 -3.33301 62 -28.333 64 -75c19.333 0.666992 37.666 3.5 54.999 8.5s33 11.5 47 19.5s26.333 17.167 37 27.5s19.334 20.833 26.001 31.5v-1zM130.001 22.002c13.333 26.667 22.6689 49.668 28.002 69.001
s7.5 35.166 6.5 47.499s-4.83301 21.333 -11.5 27s-15 8.16699 -25 7.5l-96 -234c-5.33301 -12.667 -6.33301 -22 -3 -28s9.66602 -6.5 18.999 -1.5s21.166 16.5 35.499 34.5s29.833 44 46.5 78z" />
    <glyph glyph-name="f_r" unicode="fr" horiz-adv-x="606" 
d="M605 346c-2 -6 -5.6582 -15.3291 -10.9912 -27.9961l-18 -44l-21.5 -52l-21.5 -51l-17.5 -41.5c-5 -11.667 -8.16699 -19.5 -9.5 -23.5c-5.33301 -12.667 -4.66602 -21.667 2.00098 -27s15.834 -7 27.501 -5s24.167 8 37.5 18s24.333 24 33 42l17 -28
c-6.66699 -16 -15.834 -30.833 -27.501 -44.5s-24.667 -25.5 -39 -35.5s-29.666 -18 -45.999 -24s-32.5 -9 -48.5 -9s-29.833 2.66699 -41.5 8s-20.334 13.333 -26.001 24s-8.16699 24 -7.5 40s5.33398 34.333 14.001 55l76 184c-15.333 -22 -31.833 -42.167 -49.5 -60.5
s-37.334 -34.333 -59.001 -48s-45.5 -24.667 -71.5 -33s-55 -13.166 -87 -14.499c3.33301 -36 -7.66699 -81 -33 -135c-29.333 -61.333 -60.333 -108 -93 -140s-65 -48 -97 -48s-54.5 10.833 -67.5 32.5s-10.833 53.167 6.5 94.5l161 396c26 65.333 58.5 114.833 97.5 148.5
s84.167 50.5 135.5 50.5c21.333 0 38.333 -4.83301 51 -14.5s21.334 -22 26.001 -37s5.5 -32 2.5 -51s-9.16699 -37.5 -18.5 -55.5c-8.66699 -16.667 -17.667 -30.5 -27 -41.5s-18.333 -19.667 -27 -26s-16.834 -10.833 -24.501 -13.5s-13.834 -4 -18.501 -4
c-18.667 0 -30.834 7.66699 -36.501 23s-4.5 33.666 3.5 54.999c10 24 23.167 42.833 39.5 56.5s34.5 20.5 54.5 20.5c3.33301 0 7.66602 -0.666992 12.999 -2c1.33301 13.333 -0.833984 24.333 -6.50098 33s-15.167 13 -28.5 13s-25.833 -4.5 -37.5 -13.5
s-22.834 -20.833 -33.501 -35.5s-20.334 -31.334 -29.001 -50.001s-16.334 -37.334 -23.001 -56.001l-54 -131c18.667 -0.666992 34 -7.66699 46 -21c26 0 49.667 2.16699 71 6.5s41.333 11 60 20s36.5 20.833 53.5 35.5s33.833 32.667 50.5 54
c-11.333 5.33301 -18.333 14.666 -21 27.999s-0.333984 28.666 6.99902 45.999c9.33301 24.667 22.166 43.667 38.499 57s34.166 20 53.499 20c16.667 0 27.667 -4.66699 33 -14s7.5 -20.333 6.5 -33s-4.33301 -25.5 -10 -38.5s-11.5 -23.5 -17.5 -31.5h88zM130.009 22.0039
c13.333 26.667 22.6689 49.668 28.002 69.001s7.5 35.166 6.5 47.499s-4.83301 21.333 -11.5 27s-15 8.16699 -25 7.5l-96 -234c-5.33301 -12.667 -6.33301 -22 -3 -28s9.66602 -6.5 18.999 -1.5s21.166 16.5 35.499 34.5s29.833 44 46.5 78z" />
    <glyph glyph-name="T_h" unicode="Th" horiz-adv-x="1171" 
d="M1302 797c-2.66699 -36.667 -10.9971 -71.0039 -24.9971 -103.004c-6 -14 -13.833 -28 -23.5 -42s-21.167 -27.167 -34.5 -39.5s-29 -23.5 -47 -33.5s-39 -18 -63 -24c-30 -7.33301 -63.333 -8.33301 -100 -3s-75.667 14.333 -117 27
c-21.333 -17.333 -42.833 -43.166 -64.5 -77.499s-43.667 -73.5 -66 -117.5l-69 -141c-23.667 -50 -48.834 -99.833 -75.501 -149.5s-54.667 -97.5 -84 -143.5s-61 -86.5 -95 -121.5s-70.333 -63 -109 -84s-80.334 -31.5 -125.001 -31.5
c-56.667 0 -100.667 11.167 -132 33.5s-52.166 50.5 -62.499 84.5s-11.333 70.5 -3 109.5s23.833 75.5 46.5 109.5s51.167 62.167 85.5 84.5s72.166 33.5 113.499 33.5c19.333 0 33.666 -4.33301 42.999 -13s14.833 -19.5 16.5 -32.5s-0.333008 -27 -6 -42
s-14.334 -29 -26.001 -42s-25.667 -23.833 -42 -32.5s-34.166 -13 -53.499 -13c-18.667 0 -31.667 6.33301 -39 19s-9 28.667 -5 48c-26.667 -25.333 -46.5 -54.5 -59.5 -87.5s-18.333 -64.333 -16 -94s12.833 -54.834 31.5 -75.501s46 -31 82 -31
c32.667 0 62.5 10.167 89.5 30.5s52.667 47.5 77 81.5s47.5 73.167 69.5 117.5l66.5 138.5l70 144c24.333 48 50.5 92.667 78.5 134s58.667 77.833 92 109.5s70.333 54.834 111 69.501c-38.667 12.667 -77.667 26.167 -117 40.5s-77.666 26.666 -114.999 36.999
s-72.833 17.666 -106.5 21.999s-64.5 3.16602 -92.5 -3.50098c-29.333 -7.33301 -53.666 -18.666 -72.999 -33.999s-34 -32.166 -44 -50.499s-15.333 -36.666 -16 -54.999s2.83301 -34.5 10.5 -48.5s19.334 -24.333 35.001 -31s35.167 -7 58.5 -1
c2.66699 1.33301 4.66699 2.66602 6 3.99902l2 2c-19.333 -1.33301 -32.5 5.16699 -39.5 19.5s-7.16699 32.833 -0.5 55.5c7.33301 24.667 18.5 44.5 33.5 59.5s32.5 23.167 52.5 24.5c9.33301 0.666992 18.666 -1.33301 27.999 -6
c14.667 -8.66699 24.334 -20.834 29.001 -36.501s5 -32.5 1 -50.5s-11.667 -35.667 -23 -53s-25.5 -31.666 -42.5 -42.999s-36 -18.666 -57 -21.999s-43.167 0 -66.5 10c-30 12.667 -50.333 33.5 -61 62.5s-11.5 59.333 -2.5 91s27.833 61.334 56.5 89.001s67 46.5 115 56.5
c28.667 6 59.667 7.33301 93 4s68.333 -8.66602 105 -15.999l115.5 -24c40.333 -8.66699 81.666 -15.667 123.999 -21s85.666 -7.83301 129.999 -7.5s89.166 6.16602 134.499 17.499c22.667 6 43 14.333 61 25s33.5 22.334 46.5 35.001s23.5 25.334 31.5 38.001
s13.333 23.667 16 33zM876.003 87.9961c-5.33301 -14 -5.99805 -25.001 -1.99805 -33.001s13.667 -12 29 -12h10l-21 -43c-5.33301 -1.33301 -11 -2.66602 -17 -3.99902c-10 -2 -22.333 -3 -37 -3c-38 0 -61.667 10.333 -71 31s-5 53 13 97l128 311
c6 13.333 7 24.166 3 32.499s-13.667 12.5 -29 12.5h-10l21 43c5.33301 0.666992 11 1.66699 17 3c5.33301 1.33301 11 2.33301 17 3s12.667 1 20 1c38 0 61.833 -10.333 71.5 -31s5.16699 -53.667 -13.5 -99l-14 -34c13.333 8.66699 27.166 15.334 41.499 20.001
s28.5 7 42.5 7c32 0 54.333 -10.833 67 -32.5s10.667 -53.167 -6 -94.5l-65 -157c-4.66699 -12.667 -3.66699 -21.667 3 -27s15.667 -7 27 -5s23.666 8 36.999 18s24.333 24 33 42l17 -28c-6.66699 -16 -15.834 -30.833 -27.501 -44.5s-24.667 -25.5 -39 -35.5
s-29.666 -18 -45.999 -24s-32.5 -9 -48.5 -9s-29.833 2.66699 -41.5 8s-20.334 13.333 -26.001 24s-8.16699 24 -7.5 40s5.33398 34.333 14.001 55l65 156c4 10 4.33301 17.667 1 23s-8.83301 8.5 -16.5 9.5s-16.5 -0.5 -26.5 -4.5s-20 -10.333 -30 -19z" />
    <glyph glyph-name=".notdef" horiz-adv-x="187" 
 />
    <glyph glyph-name="NULL" horiz-adv-x="0" 
 />
    <glyph glyph-name="NULL" horiz-adv-x="0" 
 />
    <glyph glyph-name="nonmarkingreturn" unicode="&#xd;" horiz-adv-x="187" 
 />
    <glyph glyph-name="space" unicode=" " horiz-adv-x="187" 
 />
    <glyph glyph-name="exclam" unicode="!" horiz-adv-x="261" 
d="M167 59c0 -18 -6.5 -33.5 -19.5 -46.5s-28.833 -19.5 -47.5 -19.5s-34.5 6.5 -47.5 19.5s-19.5 28.5 -19.5 46.5c0 18.667 6.5 34.5 19.5 47.5s28.833 19.5 47.5 19.5s34.5 -6.5 47.5 -19.5s19.5 -28.833 19.5 -47.5zM356 461
c-13.333 -28.667 -29.3311 -56.668 -47.998 -84.001s-37.5 -52.833 -56.5 -76.5l-53 -64c-16.333 -19 -28.833 -34.167 -37.5 -45.5h-35c18.667 38 34.5 75.833 47.5 113.5s23.667 71.834 32 102.501s14.666 56.167 18.999 76.5s7.5 32.166 9.5 35.499
c8 16.667 20.667 28 38 34s34.666 5.33301 51.999 -2c16.667 -8 28.167 -20.667 34.5 -38s5.5 -34.666 -2.5 -51.999z" />
    <glyph glyph-name="quotedbl" unicode="&#x22;" horiz-adv-x="374" 
d="M261 437h-1c-4 -10 -10 -19 -18 -27s-17.333 -16.667 -28 -26l-35 -30.5c-12.667 -11 -25.667 -24.5 -39 -40.5l-35 14l36 110c-5.33301 8 -8 18.667 -8 32c0 18.667 6.5 34.5 19.5 47.5s28.833 19.5 47.5 19.5c13.333 0 25.333 -3.5 36 -10.5s18.667 -16.167 24 -27.5
c5.33301 11.333 13.333 20.5 24 27.5s22.667 10.5 36 10.5c18.667 0 34.5 -6.5 47.5 -19.5s19.5 -28.833 19.5 -47.5c0 -15.333 -3.5 -28.5 -10.5 -39.5s-16.333 -21.833 -28 -32.5l-40.5 -35.5c-15.333 -13 -31.333 -29.167 -48 -48.5l-35 14z" />
    <glyph glyph-name="numbersign" unicode="#" 
d="M398 423l-36 -83h49l-29 -69h-50l-25 -58h47l-29 -69h-47l-41 -95h-74l40 95h-55l-41 -95h-74l40 95h-52l29 69h53l25 58h-50l29 69h50l36 83h75l-36 -83h55l36 83h75zM177 213h56l25 58h-56z" />
    <glyph glyph-name="dollar" unicode="$" horiz-adv-x="386" 
d="M301 523c9.33301 0 19.001 -0.999023 29.001 -2.99902l21 61h34l-26 -71c24 -12 39.667 -31.167 47 -57.5s1.33301 -55.833 -18 -88.5c-12 -21.333 -26 -35.666 -42 -42.999s-30 -7.33301 -42 0s-18.833 19.166 -20.5 35.499s2.16602 32.5 11.499 48.5
c9.33301 15.333 21.5 26.166 36.5 32.499s28.5 5.83301 40.5 -1.5c0.666992 11.333 -3.66602 21.666 -12.999 30.999s-23.666 15.666 -42.999 18.999c-22.667 3.33301 -44 -1 -64 -13s-34.333 -28.333 -43 -49c-10 -22.667 -9.33301 -44.667 2 -66s30 -40.333 56 -57
c35.333 -21.333 60.666 -47 75.999 -77s15.333 -64.667 0 -104c-13.333 -31.333 -35 -59 -65 -83s-64.333 -39.667 -103 -47l-17 -51h-33l16 47c-5.33301 0 -10.333 -0.166992 -15 -0.5s-9.66699 -0.166016 -15 0.500977l-17 -47h-33l18 53c-18 5.33301 -32.833 14 -44.5 26
s-20.167 25.667 -25.5 41s-7.33301 31.833 -6 49.5s6.33301 34.5 15 50.5c10 19.333 23.167 34.333 39.5 45s31.833 12 46.5 4c12 -6.66699 18.833 -18.334 20.5 -35.001s-2.16602 -32.667 -11.499 -48c-8.66699 -14.667 -19.834 -25.167 -33.501 -31.5
s-26.5 -7.16602 -38.5 -2.49902c-2 -12.667 4 -25.5 18 -38.5s32.333 -21.833 55 -26.5c11.333 -2.66699 23.5 -2.66699 36.5 0s25.5 7.33398 37.5 14.001s22.833 15.167 32.5 25.5s17.167 22.166 22.5 35.499c10 26.667 8.33301 49.334 -5 68.001s-36 39 -68 61
c-16 10.667 -29.333 23.667 -40 39s-18.167 32 -22.5 50s-5.33301 36.333 -3 55s8.83301 37 19.5 55c14.667 25.333 34.667 46 60 62s52.666 26 81.999 30l21 60h34l-20 -58v0z" />
    <glyph glyph-name="percent" unicode="%" horiz-adv-x="673" 
d="M657 390l-181.001 -122h1c38 0 67.167 -6.83301 87.5 -20.5s32.833 -30.667 37.5 -51s2.66699 -42.333 -6 -66s-22.834 -45.667 -42.501 -66s-44.167 -37.333 -73.5 -51s-61.666 -20.5 -96.999 -20.5c-27.333 0 -50.333 3.16699 -69 9.5s-33.667 15 -45 26
s-19 23.667 -23 38s-4.66699 29.5 -2 45.5l-166 -112h-84l181 122h-2c-38 0 -67.167 6.83301 -87.5 20.5s-32.833 30.667 -37.5 51s-2.66699 42.333 6 66s22.834 45.667 42.501 66s44 37.333 73 51s61.5 20.5 97.5 20.5c27.333 0 50.333 -3.33301 69 -10
s33.667 -15.5 45 -26.5s18.833 -23.667 22.5 -38s4.16699 -29.5 1.5 -45.5l167 113h85zM464.999 227c-12 0 -23.5 -4.66699 -34.5 -14s-21 -21 -30 -35s-16.5 -29.167 -22.5 -45.5s-9.83301 -31.5 -11.5 -45.5s-0.5 -25.667 3.5 -35s11.333 -14 22 -14
s21.334 4.66699 32.001 14s20.667 21 30 35s17.166 29.167 23.499 45.5s10.5 31.5 12.5 45.5s1.16699 25.667 -2.5 35s-11.167 14 -22.5 14zM184.999 163c11.333 0 22.667 4.66699 34 14s21.5 21 30.5 35s16.5 29.167 22.5 45.5s9.83301 31.5 11.5 45.5s0.5 25.667 -3.5 35
s-11.333 14 -22 14s-21.334 -4.66699 -32.001 -14s-20.667 -21 -30 -35s-17.166 -29.167 -23.499 -45.5s-10.5 -31.5 -12.5 -45.5s-1.16699 -25.667 2.5 -35s11.167 -14 22.5 -14z" />
    <glyph glyph-name="ampersand" unicode="&#x26;" horiz-adv-x="652" 
d="M703 232c-4.66699 -13.333 -11.5 -28.0029 -20.5 -44.0029s-20.167 -31.833 -33.5 -47.5s-28.5 -30.5 -45.5 -44.5s-35.5 -26 -55.5 -36c-10 -21.333 -23 -41.833 -39 -61.5s-35.5 -37.167 -58.5 -52.5s-49.667 -27.666 -80 -36.999s-64.5 -14.333 -102.5 -15
c-50.667 -0.666992 -93.5 7.33301 -128.5 24s-62.5 38.334 -82.5 65.001s-32.667 56.334 -38 89.001s-3.66602 64.167 5.00098 94.5s24.167 57.833 46.5 82.5s51.166 42.334 86.499 53.001c-1.33301 8 -2 16.167 -2 24.5s0.333008 16.5 1 24.5c2 24 7.83301 45.667 17.5 65
s21.834 35.833 36.501 49.5s31 24.167 49 31.5s36.333 11.166 55 11.499s36.667 -3.16699 54 -10.5s33 -18.666 47 -33.999c16 -16.667 25.167 -36.667 27.5 -60s-1.5 -45.666 -11.5 -66.999s-26.167 -39.5 -48.5 -54.5s-49.833 -22.167 -82.5 -21.5
c39.333 -53.333 78.666 -90.166 117.999 -110.499s76.333 -27.833 111 -22.5c2 9.33301 3.33301 18.833 4 28.5s0.666992 19.167 0 28.5c-11.333 -8 -24.333 -12 -39 -12c-18.667 0 -34.5 6.5 -47.5 19.5s-19.5 28.5 -19.5 46.5c0 18.667 6.5 34.5 19.5 47.5
s28.833 19.5 47.5 19.5s33.667 -5.83301 45 -17.5s19.666 -25.834 24.999 -42.501s8.33301 -34.334 9 -53.001s0.333984 -35.334 -0.999023 -50.001c20 10 38 24.5 54 43.5s29.667 41.5 41 67.5zM286 -53.0029c22 -1.33301 43 0.00292969 63 4.00293s38.5 10.167 55.5 18.5
s32.667 18.5 47 30.5s26.833 25.333 37.5 40c-34.667 -6.66699 -71.5 -4.16699 -110.5 7.5s-79.5 37.167 -121.5 76.5c-42.667 40 -71.667 82.333 -87 127c-18 -11.333 -31.333 -26.333 -40 -45s-13.167 -38.834 -13.5 -60.501s3.5 -43.834 11.5 -66.501
s19.333 -43.334 34 -62.001s32.5 -34.5 53.5 -47.5s44.5 -20.5 70.5 -22.5zM371 440c-17.333 14.667 -34.832 20.002 -52.499 16.002s-32.334 -13.667 -44.001 -29s-18.667 -34.333 -21 -57s3.16699 -45.334 16.5 -68.001c26.667 -2.66699 49.5 0.666016 68.5 9.99902
s33.167 21.5 42.5 36.5s13.5 31 12.5 48s-8.5 31.5 -22.5 43.5z" />
    <glyph glyph-name="quotesingle" unicode="'" horiz-adv-x="223" 
d="M141 437c-5.33301 8 -8 18.667 -8 32c0 18.667 6.5 34.5 19.5 47.5s28.833 19.5 47.5 19.5s34.5 -6.5 47.5 -19.5s19.5 -28.833 19.5 -47.5c0 -15.333 -3.5 -28.5 -10.5 -39.5s-16.333 -21.833 -28 -32.5l-40.5 -35.5c-15.333 -13 -31.333 -29.167 -48 -48.5l-35 14z" />
    <glyph glyph-name="parenleft" unicode="(" horiz-adv-x="409" 
d="M249 -202c-50 42.667 -87.168 90.5 -111.501 143.5s-36.333 107.833 -36 164.5s12.666 113.667 36.999 171s60.333 112.166 108 164.499s106.834 100.333 177.501 144s152.334 80.167 245.001 109.5l12 -55c-67.333 -22 -127.5 -52.667 -180.5 -92
s-98.667 -83.5 -137 -132.5s-68.833 -100.5 -91.5 -154.5s-37.5 -106.833 -44.5 -158.5s-5.5 -99.667 4.5 -144s28.667 -81.166 56 -110.499z" />
    <glyph glyph-name="parenright" unicode=")" horiz-adv-x="409" 
d="M243 695c50 -42.667 87.168 -90.5 111.501 -143.5s36.333 -107.833 36 -164.5s-12.666 -113.667 -36.999 -171s-60.333 -112.166 -108 -164.499s-106.834 -100.333 -177.501 -144s-152.334 -80.167 -245.001 -109.5l-12 55c67.333 22 127.5 52.667 180.5 92
s98.667 83.5 137 132.5s68.833 100.5 91.5 154.5s37.5 106.833 44.5 158.5s5.5 99.667 -4.5 144s-28.667 81.166 -56 110.499z" />
    <glyph glyph-name="asterisk" unicode="*" horiz-adv-x="450" 
d="M397 548l-57 -92l121 66l8 -61l-117 -42l64 -55l-47 -62l-58 86l-24 -100h-74l49 93l-108 -71l-7 62l107 51l-65 44l46 61l59 -73l28 93h75z" />
    <glyph glyph-name="plus" unicode="+" 
d="M297 319l-41 -96h105l-29 -69h-105l-40 -95h-74l40 95h-103l29 69h103l40 96h75z" />
    <glyph glyph-name="comma" unicode="," horiz-adv-x="259" 
d="M41 27c-5.33301 8 -8 18.667 -8 32c0 18.667 6.5 34.5 19.5 47.5s28.833 19.5 47.5 19.5s34.5 -6.5 47.5 -19.5s19.5 -28.833 19.5 -47.5c0 -15.333 -3.5 -28.5 -10.5 -39.5s-16.333 -21.833 -28 -32.5l-40.5 -35.5c-15.333 -13 -31.333 -29.167 -48 -48.5l-35 14z" />
    <glyph glyph-name="hyphen" unicode="-" horiz-adv-x="270" 
d="M79 223h162l-29 -69h-162z" />
    <glyph glyph-name="period" unicode="." horiz-adv-x="259" 
d="M167 59c0 -18 -6.5 -33.5 -19.5 -46.5s-28.833 -19.5 -47.5 -19.5s-34.5 6.5 -47.5 19.5s-19.5 28.5 -19.5 46.5c0 18.667 6.5 34.5 19.5 47.5s28.833 19.5 47.5 19.5s34.5 -6.5 47.5 -19.5s19.5 -28.833 19.5 -47.5z" />
    <glyph glyph-name="slash" unicode="/" horiz-adv-x="395" 
d="M547 548l-539 -622h-84l538 622h85z" />
    <glyph glyph-name="zero" unicode="0" horiz-adv-x="413" 
d="M-703 -358c-112.667 0 -232.169 2.6709 -358.502 8.00391l-390 17c-133.667 6 -269 10.833 -406 14.5s-272.167 4.16699 -405.5 1.5s-263.166 -10.167 -389.5 -22.5c-126.333 -12.333 -245.666 -31.666 -358 -57.999c-112.333 -26.333 -215.666 -61 -310 -104
c-94.333 -43 -176.5 -96.833 -246.5 -161.5c-11.333 27.333 -31 52.5 -59 75.5s-63 40.5 -105 52.5s-90 17.167 -144 15.5s-112.667 -13.834 -176 -36.501c32.667 56.667 79.334 111.334 140 164.001c60.667 52.667 135 99.667 223 141s189.667 75.166 305 101.499
s244 41.5 386 45.5c184.667 5.33301 359.667 4.83301 525 -1.5s324.166 -15.5 476.5 -27.5c152.333 -12 299.833 -25.333 442.5 -40s283.834 -27.334 423.501 -38.001s279.167 -18 418.5 -22s282 -1.33301 428 8c74 4.66699 139 15.167 195 31.5s103.5 36.166 142.5 59.499
s70.167 48.5 93.5 75.5s39.333 53.833 48 80.5s10.167 51.5 4.5 74.5s-17.5 41.833 -35.5 56.5c-26.667 21.333 -54 27.666 -82 18.999s-51 -32 -69 -70l-16 28c10.667 22.667 23.5 40.167 38.5 52.5s30.667 20.5 47 24.5s33 4.16699 50 0.5s32.833 -10.167 47.5 -19.5
c20.667 -13.333 38.167 -31.166 52.5 -53.499s23 -47.5 26 -75.5s-0.666992 -57.833 -11 -89.5s-29.666 -62.834 -57.999 -93.501s-66.5 -60.167 -114.5 -88.5s-108.167 -53.333 -180.5 -75s-157.833 -38.834 -256.5 -51.501s-212.667 -19 -342 -19z" />
    <glyph glyph-name="one" unicode="1" horiz-adv-x="300" 
d="M-188 -302c-92 0 -170.667 -0.832031 -236 -2.49902s-121.5 -5.33398 -168.5 -11.001s-86.833 -13.667 -119.5 -24s-62.334 -24 -89.001 -41s-52.334 -37.833 -77.001 -62.5l-84 -88l-383 426h1212c74.667 0 138.167 8.66699 190.5 26s91.833 38.833 118.5 64.5
s39.5 53.5 38.5 83.5s-17.5 57.667 -49.5 83c-26.667 21.333 -54 27.833 -82 19.5s-50.667 -31.5 -68 -69.5l-17 28c10.667 22 23.5 39.333 38.5 52s30.833 21 47.5 25s33.5 4.33301 50.5 1s32.5 -10 46.5 -20c33.333 -23.333 58.833 -51.666 76.5 -84.999
s26.334 -68.166 26.001 -104.499s-10 -72.333 -29 -108s-47.667 -67.834 -86 -96.501s-87.166 -51.834 -146.499 -69.501s-129.333 -26.5 -210 -26.5z" />
    <glyph glyph-name="two" unicode="2" horiz-adv-x="391" 
d="M-245 -309c-124.667 0 -235.998 -0.5 -333.998 -1.5s-185.5 -2.83301 -262.5 -5.5s-144.667 -6.5 -203 -11.5s-110 -11.5 -155 -19.5s-84.667 -17.667 -119 -29s-65.833 -24.833 -94.5 -40.5s-55.834 -33.834 -81.501 -54.501s-52.5 -44 -80.5 -70l-383 436h1787
c84.667 0 155.5 8.83301 212.5 26.5s99.833 39.5 128.5 65.5s42.667 54 42 84s-16.334 57.333 -47.001 82c-13.333 10.667 -27 17.5 -41 20.5s-27.667 2.33301 -41 -2s-26 -12.333 -38 -24s-22.333 -26.834 -31 -45.501l-16 28c10.667 22.667 23.5 40.167 38.5 52.5
s30.667 20.5 47 24.5s33 4.33301 50 1s32.5 -10 46.5 -20c34 -22.667 58.833 -50.667 74.5 -84s21.834 -68.5 18.501 -105.5s-16.333 -73.667 -39 -110s-55.334 -69.166 -98.001 -98.499s-95.667 -53.166 -159 -71.499s-137.333 -27.5 -222 -27.5z" />
    <glyph glyph-name="three" unicode="3" horiz-adv-x="391" 
d="M-301 -314c-180 0 -341.338 -0.5 -484.005 -1.5s-270 -2.83301 -382 -5.5s-210.5 -6.5 -295.5 -11.5s-159.833 -11.5 -224.5 -19.5s-121 -17.833 -169 -29.5s-91.167 -25.5 -129.5 -41.5s-73.333 -34.5 -104.999 -55.5c-31.667 -21 -63.834 -44.833 -96.501 -71.5
l-383 445h2362c94 0 171.833 9 233.5 27s107.834 40.167 138.501 66.5s45.834 54.333 45.501 84s-15.166 56.5 -44.499 80.5c-26.667 21.333 -54 27.666 -82 18.999s-50.667 -32 -68 -70l-17 28c10.667 22.667 23.5 40.167 38.5 52.5s30.833 20.5 47.5 24.5
s33.334 4.33301 50.001 1s32.334 -9.66602 47.001 -18.999c34 -22 58 -49.833 72 -83.5s17.833 -69.167 11.5 -106.5s-23 -74.666 -50 -111.999s-64 -70.833 -111 -100.5s-104.167 -53.834 -171.5 -72.501s-145 -28 -233 -28z" />
    <glyph glyph-name="four" unicode="4" horiz-adv-x="412" 
d="M-358 -320c-235.333 0 -446.668 -0.501953 -634.001 -1.50195s-354.5 -2.83301 -501.5 -5.5s-276.167 -6.5 -387.5 -11.5s-209.333 -11.5 -293.999 -19.5c-84.667 -8 -157.834 -17.833 -219.5 -29.5c-61.667 -11.667 -116.334 -25.667 -164 -42
c-47.667 -16.333 -90.5 -35.166 -128.5 -56.499s-75.333 -45.666 -112 -72.999l-384 454h2937c104 0 189.167 9.16699 255.5 27.5s115.833 40.666 148.5 66.999s49.167 54.333 49.5 84s-13.834 55.834 -42.501 78.501c-13.333 10.667 -27 17.667 -41 21
s-27.667 2.83301 -41 -1.5s-26 -12.333 -38 -24s-22.333 -26.834 -31 -45.501l-16 28c10.667 22 23.5 39.167 38.5 51.5s30.667 20.5 47 24.5s32.833 4.33301 49.5 1s32.334 -9.66602 47.001 -18.999c34 -22 57.167 -49.667 69.5 -83s13.666 -68.833 3.99902 -106.5
s-29.834 -75.5 -60.501 -113.5s-71.667 -72.167 -123 -102.5s-112.666 -55 -183.999 -74s-152.666 -28.5 -243.999 -28.5z" />
    <glyph glyph-name="five" unicode="5" horiz-adv-x="373" 
d="M-414 -326c-291.333 0 -552.663 -0.5 -783.996 -1.5s-438.166 -2.83301 -620.499 -5.5s-342.5 -6.33398 -480.5 -11.001s-259.167 -11.167 -363.5 -19.5s-194.333 -18.5 -270 -30.5s-142 -26.167 -199 -42.5s-107.5 -35.333 -151.5 -57s-86.667 -46.5 -128 -74.5
l-384 463h3512c114 0 206.5 9.33301 277.5 28s123.833 41.334 158.5 68.001s52.167 54.834 52.5 84.501s-13.167 55.5 -40.5 77.5c-26.667 21.333 -54 27.666 -82 18.999s-50.667 -32 -68 -70l-17 28c10.667 22.667 23.5 40.167 38.5 52.5s30.667 20.5 47 24.5
s33 4.16699 50 0.5s32.833 -10.167 47.5 -19.5c34.667 -21.333 57.167 -48.833 67.5 -82.5s9.16602 -69.5 -3.50098 -107.5s-36.334 -76.333 -71.001 -115s-79.834 -73.5 -135.501 -104.5s-121.334 -56.167 -197.001 -75.5s-160.834 -29 -255.501 -29z" />
    <glyph glyph-name="six" unicode="6" horiz-adv-x="420" 
d="M-302 -349c-95.333 9.33301 -176.5 12.4951 -243.5 9.49512s-123.333 -12 -169 -27s-82.667 -35.667 -111 -62s-51.166 -58.5 -68.499 -96.5c-10.667 27.333 -29.667 52.833 -57 76.5s-61.833 42.334 -103.5 56.001s-89.5 20.334 -143.5 20.001s-113 -10.833 -177 -31.5
c46 49.333 91.667 92.833 137 130.5s91.5 69.5 138.5 95.5s95.333 46.333 145 61s102.167 23.334 157.5 26.001c51.333 2.66699 97 1.83398 137 -2.49902s77.167 -10.666 111.5 -18.999s66.666 -17.833 96.999 -28.5s61.666 -20.667 93.999 -30s66.5 -17.166 102.5 -23.499
s76.667 -9.5 122 -9.5c50 0 95 6.5 135 19.5s74.667 29.833 104 50.5s52.833 44 70.5 70s29.167 52.167 34.5 78.5s4.33301 51.666 -3 75.999s-21.666 44.833 -42.999 61.5c-26.667 21.333 -54 27.833 -82 19.5s-51 -31.5 -69 -69.5l-16 28c10.667 22 23.5 39.333 38.5 52
s30.833 21 47.5 25s33.5 4.33301 50.5 1s32.5 -10 46.5 -20c33.333 -23.333 57.5 -54 72.5 -92s19.833 -78.333 14.5 -121s-20.833 -85.167 -46.5 -127.5s-62 -79.5 -109 -111.5s-105 -56.333 -174 -73s-149.167 -20.667 -240.5 -12z" />
    <glyph glyph-name="seven" unicode="7" horiz-adv-x="320" 
d="M-402 -351c-84.667 4.66699 -167.835 8.33594 -249.502 11.0029s-160.167 3 -235.5 1s-146.833 -7 -214.5 -15s-130.334 -20.5 -188.001 -37.5s-109.667 -39.167 -156 -66.5s-85.5 -61 -117.5 -101c-10.667 27.333 -29.667 52.833 -57 76.5s-61.833 42 -103.5 55
s-89.5 19 -143.5 18s-113 -11.833 -177 -32.5c42.667 51.333 88.5 97.666 137.5 138.999s102.167 77 159.5 107s119.166 53.667 185.499 71s137.833 27.666 214.5 30.999c84.667 3.33301 162.667 2.5 234 -2.5s138.833 -12.167 202.5 -21.5s124.834 -19.833 183.501 -31.5
s117.5 -22.334 176.5 -32.001s119.333 -17.334 181 -23.001s127.834 -7.5 198.501 -5.5c56 1.33301 106 8.83301 150 22.5s81.833 31.167 113.5 52.5s57 45.333 76 72s31.667 53.167 38 79.5s6 51.333 -1 75s-20.5 43.834 -40.5 60.501c-26.667 21.333 -54 27.833 -82 19.5
s-51 -31.5 -69 -69.5l-16 28c10.667 22 23.5 39.333 38.5 52s30.833 21 47.5 25s33.334 4.16699 50.001 0.5s32.334 -10.167 47.001 -19.5c32 -22 55.5 -51.5 70.5 -88.5s19.5 -76.5 13.5 -118.5s-23.167 -84.167 -51.5 -126.5s-69.333 -79.833 -123 -112.5
s-121.167 -58 -202.5 -76s-178 -23.667 -290 -17z" />
    <glyph glyph-name="eight" unicode="8" horiz-adv-x="420" 
d="M-502 -353c-106.667 3.33301 -216.17 7.32812 -328.503 11.9951s-223.833 7.33398 -334.5 8.00098s-218.5 -2.16602 -323.5 -8.49902s-203.833 -18.833 -296.5 -37.5s-177 -45.334 -253 -80.001s-140.333 -79.667 -193 -135c-11.333 27.333 -30.833 52.666 -58.5 75.999
s-62.167 41.5 -103.5 54.5s-89 18.833 -143 17.5s-113 -12.666 -177 -33.999c39.333 52.667 85.5 101.667 138.5 147s113.333 84.833 181 118.5s142.667 60.834 225 81.501s172.833 32.667 271.5 36c118 4 228.333 3.16699 331 -2.5s200.667 -13.5 294 -23.5
s183.333 -21.333 270 -34s172.834 -24 258.501 -34s172.334 -17.667 260.001 -23s179.5 -5.66602 275.5 -0.999023c62 2.66699 117 11.334 165 26.001s89.167 32.834 123.5 54.501s61.666 46 81.999 73s34 53.667 41 80s7.16699 51.166 0.5 74.499s-19.667 43 -39 59
c-26.667 21.333 -54 27.833 -82 19.5s-51 -31.5 -69 -69.5l-16 28c10.667 22 23.5 39.333 38.5 52s30.833 21 47.5 25s33.334 4.16699 50.001 0.5s32.334 -10.167 47.001 -19.5c30.667 -20.667 53.5 -48.834 68.5 -84.501s19.333 -74.334 13 -116.001s-25 -83.667 -56 -126
s-77 -80.166 -138 -113.499s-138.333 -59.666 -232 -78.999s-206.5 -26.666 -338.5 -21.999z" />
    <glyph glyph-name="nine" unicode="9" horiz-adv-x="420" 
d="M-603 -356c-96 1.33301 -196.499 4.16602 -301.499 8.49902s-211.833 8.5 -320.5 12.5s-217.834 7 -327.501 9s-217.5 1 -323.5 -3s-208.667 -12 -308 -24s-192.833 -29.5 -280.5 -52.5s-168.334 -52.667 -242 -89c-73.667 -36.333 -137.834 -80.833 -192.5 -133.5
c-11.333 27.333 -31 52.5 -59 75.5s-62.833 40.833 -104.5 53.5s-89.5 18.167 -143.5 16.5s-112.667 -13.5 -176 -35.5c36 54.667 82.5 106.5 139.5 155.5s124.333 92.333 202 130s166 68 265 91s208.5 36.5 328.5 40.5c151.333 4.66699 294.166 4.16699 428.499 -1.5
s262.833 -14.167 385.5 -25.5s241.334 -23.666 356.001 -36.999s228.167 -25.333 340.5 -36s225.333 -18.167 339 -22.5s230.834 -3.16602 351.501 3.50098c68 3.33301 128 12.833 180 28.5s96.333 34.667 133 57s66 47 88 74s36.833 53.833 44.5 80.5s8.5 51.667 2.5 75
s-18.333 42.666 -37 57.999c-26.667 21.333 -54 27.666 -82 18.999s-51 -32 -69 -70l-16 28c10.667 22 23.5 39.167 38.5 51.5s30.667 20.5 47 24.5s33 4.33301 50 1s32.833 -9.66602 47.5 -18.999c22 -14 40.167 -32.833 54.5 -56.5s23.166 -49.667 26.499 -78
s0 -58.5 -10 -90.5s-27.833 -63.5 -53.5 -94.5s-60.5 -60.333 -104.5 -88s-98.5 -52 -163.5 -73s-141.5 -37.167 -229.5 -48.5s-189.333 -16.333 -304 -15z" />
    <glyph glyph-name="colon" unicode=":" horiz-adv-x="259" 
d="M148 59c0 -18 -6.5 -33.5 -19.5 -46.5s-28.833 -19.5 -47.5 -19.5s-34.5 6.5 -47.5 19.5s-19.5 28.5 -19.5 46.5c0 18.667 6.5 34.5 19.5 47.5s28.833 19.5 47.5 19.5s34.5 -6.5 47.5 -19.5s19.5 -28.833 19.5 -47.5zM258 319c0 -18 -6.5 -33.5 -19.5 -46.5
s-28.833 -19.5 -47.5 -19.5s-34.5 6.5 -47.5 19.5s-19.5 28.5 -19.5 46.5c0 18.667 6.5 34.5 19.5 47.5s28.833 19.5 47.5 19.5s34.5 -6.5 47.5 -19.5s19.5 -28.833 19.5 -47.5z" />
    <glyph glyph-name="semicolon" unicode=";" horiz-adv-x="259" 
d="M258 319c0 -18 -6.5 -33.5 -19.5 -46.5s-28.833 -19.5 -47.5 -19.5s-34.5 6.5 -47.5 19.5s-19.5 28.5 -19.5 46.5c0 18.667 6.5 34.5 19.5 47.5s28.833 19.5 47.5 19.5s34.5 -6.5 47.5 -19.5s19.5 -28.833 19.5 -47.5zM21 27c-5.33301 8 -8 18.667 -8 32
c0 18.667 6.5 34.5 19.5 47.5s28.833 19.5 47.5 19.5s34.5 -6.5 47.5 -19.5s19.5 -28.833 19.5 -47.5c0 -15.333 -3.5 -28.5 -10.5 -39.5s-16.333 -21.833 -28 -32.5l-40.5 -35.5c-15.333 -13 -31.333 -29.167 -48 -48.5l-35 14z" />
    <glyph glyph-name="less" unicode="&#x3c;" horiz-adv-x="395" 
d="M114 275l294 141l23 -57l-270 -127l116 -134l-64 -73l-139 184z" />
    <glyph glyph-name="equal" unicode="=" horiz-adv-x="507" 
d="M110 213h304l-29 -69h-304zM167 340h304l-29 -69h-304z" />
    <glyph glyph-name="greater" unicode="&#x3e;" horiz-adv-x="395" 
d="M331 166l-294 -141l-23 57l270 127l-116 134l64 73l139 -184z" />
    <glyph glyph-name="question" unicode="?" horiz-adv-x="369" 
d="M167 59c0 -18 -6.5 -33.5 -19.5 -46.5s-28.833 -19.5 -47.5 -19.5s-34.5 6.5 -47.5 19.5s-19.5 28.5 -19.5 46.5c0 18.667 6.5 34.5 19.5 47.5s28.833 19.5 47.5 19.5s34.5 -6.5 47.5 -19.5s19.5 -28.833 19.5 -47.5zM147 217c22.667 6 45.668 16.666 69.001 31.999
s44.666 33 63.999 53s35.833 40.667 49.5 62s22.334 41 26.001 59s1.5 32.833 -6.5 44.5s-23.667 17.5 -47 17.5c-8.66699 0 -17.834 -1.33301 -27.501 -4s-19.5 -6.33398 -29.5 -11.001c10.667 -6.66699 17.167 -17.167 19.5 -31.5s-0.166992 -30.5 -7.5 -48.5
c-10.667 -26.667 -25.334 -47.5 -44.001 -62.5s-39 -22.5 -61 -22.5c-20.667 0 -34.667 8.33301 -42 25s-5.33301 36.667 6 60c12.667 28 29.5 52.333 50.5 73s43.5 37.834 67.5 51.501s48.167 23.834 72.5 30.501s45.833 10 64.5 10c40.667 0 70.334 -7.83301 89.001 -23.5
s28 -35.667 28 -60s-8.33301 -51 -25 -80s-39.667 -56.667 -69 -83s-64.333 -49.5 -105 -69.5s-85 -33.333 -133 -40z" />
    <glyph glyph-name="at" unicode="@" horiz-adv-x="692" 
d="M396 390c26 0 45.666 -9.33594 58.999 -28.0029l8 20h110c-2 -6 -6 -16.333 -12 -31l-21 -50.5l-25 -60l-24.5 -59.5l-20 -48.5c-5.66699 -13.667 -9.16699 -22.5 -10.5 -26.5c-5.33301 -12.667 -4.83301 -21.5 1.5 -26.5s15.166 -6.5 26.499 -4.5
s23.833 7.83301 37.5 17.5s25.167 23.167 34.5 40.5c25.333 46 44.833 92 58.5 138s18.834 87.333 15.501 124s-17 66.5 -41 89.5s-60.667 34.5 -110 34.5c-42 0 -83 -9.16699 -123 -27.5s-77.833 -42.666 -113.5 -72.999s-68 -64.833 -97 -103.5
s-53.167 -78.167 -72.5 -118.5s-32.833 -79.833 -40.5 -118.5s-8.16699 -73.167 -1.5 -103.5s21.5 -54.666 44.5 -72.999s55.833 -27.5 98.5 -27.5c30.667 0 60.667 4.5 90 13.5s58 21.5 86 37.5l11 -44c-29.333 -15.333 -59.833 -27.166 -91.5 -35.499
s-64.167 -12.5 -97.5 -12.5c-52.667 0 -94 10.5 -124 31.5s-50.333 48.5 -61 82.5s-12.834 73 -6.50098 117s19.666 88.667 39.999 134s46.666 90 78.999 134s68.833 83 109.5 117s84.834 61.5 132.501 82.5s96.834 31.5 147.501 31.5c42 0 76.833 -6.66699 104.5 -20
s49 -31.666 64 -54.999s24.167 -50.5 27.5 -81.5s1.5 -64 -5.5 -99s-18.667 -71 -35 -108s-36.833 -73.167 -61.5 -108.5c-8.66699 -12 -19.5 -24 -32.5 -36s-27.167 -22.5 -42.5 -31.5s-31.166 -16.333 -47.499 -22s-32.5 -8.5 -48.5 -8.5
c-20.667 0 -37.5 4.33301 -50.5 13s-21.167 21.667 -24.5 39c-19.333 -16 -38.833 -28.667 -58.5 -38s-38.5 -14 -56.5 -14c-22.667 0 -41.167 5.16699 -55.5 15.5s-24.5 24.5 -30.5 42.5s-7.83301 39.167 -5.5 63.5s9.5 50.166 21.5 77.499
c28.667 68 64.334 118 107.001 150s87 48 133 48zM345.999 93.9971c2 8.66699 5.00391 17.333 9.00391 26l83 202c-6.66699 10 -16.334 15 -29.001 15s-24.5 -2.5 -35.5 -7.5s-22 -13 -33 -24s-22.167 -25.5 -33.5 -43.5s-23.333 -40 -36 -66
c-10 -19.333 -17.833 -37.5 -23.5 -54.5s-8.83398 -31.833 -9.50098 -44.5s1.5 -22.667 6.5 -30s13.167 -11 24.5 -11s23.666 3.33301 36.999 10s26.666 16 39.999 28z" />
    <glyph glyph-name="A" unicode="A" horiz-adv-x="1420" 
d="M1644 729l-125 -201.995l-53 -85l-52.5 -85.5l-48 -79l-39.5 -65.5l-44.5 -71l-41 -66.5c-12.333 -21 -23 -40.667 -32 -59s-14.5 -33.833 -16.5 -46.5c-2 -12 0.5 -21.5 7.5 -28.5s15.5 -10.5 25.5 -10.5c6.66699 0 14.5 1.83301 23.5 5.5s18 9 27 16
s17.667 15.5 26 25.5s15.166 21.667 20.499 35l26 -37c-7.33301 -20.667 -17 -40.167 -29 -58.5s-26 -34.166 -42 -47.499s-33.5 -24 -52.5 -32s-38.833 -12 -59.5 -12c-32 0 -58.833 5.83301 -80.5 17.5s-35.667 30.167 -42 55.5s-3.66602 58 8.00098 98s34.5 88 68.5 144
l6 11c-34.667 3.33301 -70.667 9.66602 -108 18.999s-75.333 22.333 -114 39l-155 -181.5c-52 -59.667 -105.667 -112.834 -161 -159.501s-113 -84.334 -173 -113.001s-123.667 -43 -191 -43c-56.667 0 -101.334 11.167 -134.001 33.5s-55.5 50.5 -68.5 84.5
s-16.833 70.5 -11.5 109.5s18 75.5 38 109.5s46.167 62.167 78.5 84.5s69.166 33.5 110.499 33.5c19.333 0 34.166 -4.33301 44.499 -13s16.666 -19.5 18.999 -32.5s1.16602 -27 -3.50098 -42s-12.167 -29 -22.5 -42s-23.5 -23.833 -39.5 -32.5s-33.667 -13 -53 -13
c-18.667 0 -32.167 6.33301 -40.5 19s-11.166 28.667 -8.49902 48c-24 -25.333 -41.167 -54.5 -51.5 -87.5s-13.166 -64.333 -8.49902 -94s17 -54.834 37 -75.501s48.333 -31 85 -31c32 0 63.333 6.83301 94 20.5s61.167 32.334 91.5 56.001s60.833 51.667 91.5 84
s62 67.166 94 104.499l98 118l104 124c-41.333 12.667 -82.166 19.667 -122.499 21s-77.5 -7.66699 -111.5 -27c-24 -13.333 -42.333 -29 -55 -47s-20.667 -36.333 -24 -55s-2.16602 -37 3.50098 -55s14.834 -33.667 27.501 -47l-41 -13c-27.333 16 -50 37.833 -68 65.5
s-29.333 57 -34 88s-1.16699 61.833 10.5 92.5s33.167 57 64.5 79c27.333 18.667 57.166 29.667 89.499 33s65.833 1.66602 100.5 -5.00098s69.834 -16.834 105.501 -30.501s70.5 -28.167 104.5 -43.5c48 52 98.5 102 151.5 150s110 90.167 171 126.5
s126.167 65.333 195.5 87s144 32.5 224 32.5zM1162 210.005l80.5029 122.498l88.5 129.5l83 120l65 93c-50.667 -10 -99.334 -28.167 -146.001 -54.5s-91.834 -58.166 -135.501 -95.499s-86.334 -78.666 -128.001 -123.999l-123.5 -141c78 -31.333 150 -48 216 -50z" />
    <glyph glyph-name="B" unicode="B" horiz-adv-x="1058" 
d="M368 288c-38 2.66699 -69.668 11.6699 -95.001 27.0029s-43.666 34.833 -54.999 58.5s-15.666 50.167 -12.999 79.5s13.334 59 32.001 89s45.167 59 79.5 87s77.166 52.667 128.499 74c27.333 11.333 56 20.833 86 28.5s60.333 13.667 91 18s61.167 6.66602 91.5 6.99902
s59.5 -1.5 87.5 -5.5c35.333 24.667 72.5 44 111.5 58s80.5 21 124.5 21v-47c-24.667 0 -48.167 -5 -70.5 -15s-44.166 -24 -65.499 -42c28.667 -11.333 53 -25.666 73 -42.999s33.667 -38.666 41 -63.999c5.33301 -18 7.33301 -36 6 -54s-5.33301 -35.5 -12 -52.5
s-15.667 -33.5 -27 -49.5s-24.333 -31.333 -39 -46c24.667 -18.667 43.167 -42.334 55.5 -71.001s19 -60.167 20 -94.5s-3.33301 -70 -13 -107s-24 -73 -43 -108s-42.333 -67.667 -70 -98s-59.167 -55.833 -94.5 -76.5s-74.333 -35.334 -117 -44.001s-88 -8.66699 -136 0
c-23.333 4 -45.166 11.333 -65.499 22s-39.333 23 -57 37s-34.334 29.333 -50.001 46l-45.5 50c-25.333 -15.333 -51.333 -27.166 -78 -35.499s-55 -12.5 -85 -12.5c-36.667 0 -67 5.5 -91 16.5s-41.833 24.667 -53.5 41s-17.5 34.166 -17.5 53.499
s5.66699 37.166 17 53.499s28.166 30 50.499 41s50.166 16.5 83.499 16.5c30 0 56.833 -5.16699 80.5 -15.5s46.5 -23.5 68.5 -39.5c30 38.667 60.667 83.667 92 135l98 158c34 54 70 107.333 108 160s79 100 123 142c-50.667 -7.33301 -103.334 -22.666 -158.001 -45.999
c-35.333 -15.333 -65.833 -33 -91.5 -53s-47 -40.833 -64 -62.5s-29.667 -43.334 -38 -65.001s-12.833 -41.334 -13.5 -59.001s2.83301 -33 10.5 -46s18.834 -21.5 33.501 -25.5zM611.999 305.003c-33.333 -54.667 -67.834 -107.004 -103.501 -157.004
s-74.5 -93 -116.5 -129c27.333 -22 56.666 -42 87.999 -60s68 -29.333 110 -34c55.333 -6 105 -1 149 15s81.833 38.167 113.5 66.5s56.834 60.666 75.501 96.999s30.167 72.333 34.5 108s1.5 68.834 -8.5 99.501s-27.667 54 -53 70
c-25.333 -19.333 -52 -36.166 -80 -50.499s-55.333 -25.166 -82 -32.499s-51.167 -10.666 -73.5 -9.99902s-40.166 6.33398 -53.499 17.001zM856.998 682.999c-30.667 -34 -60.5029 -73.833 -89.5029 -119.5l-88.5 -144.5c19.333 9.33301 40.5 17.833 63.5 25.5
s46.167 11.5 69.5 11.5c31.333 0 59.333 -4.66699 84 -14c10 8.66699 19.833 19.167 29.5 31.5s17.834 25.5 24.501 39.5s11.334 28.167 14.001 42.5s2.33398 27.833 -0.999023 40.5c-6.66699 21.333 -19 39.333 -37 54s-41 25.667 -69 33zM133.995 -24.001
c21.333 0 42.5 5.99805 63.5 17.998s41.833 28.667 62.5 50c-18.667 18 -37.667 32.667 -57 44s-40.333 17 -63 17c-32 0 -55.5 -6.66699 -70.5 -20s-22.5 -28.166 -22.5 -44.499s7.5 -31.166 22.5 -44.499s36.5 -20 64.5 -20z" />
    <glyph glyph-name="C" unicode="C" horiz-adv-x="831" 
d="M786 -117c-7.33301 -12 -17.332 -25.1689 -29.999 -39.502s-28.167 -27.5 -46.5 -39.5s-39.333 -22 -63 -30s-49.5 -12 -77.5 -12c-70.667 0 -129.167 12.5 -175.5 37.5s-81.333 58.333 -105 100s-36.5 89.5 -38.5 143.5s5.5 110.167 22.5 168.5
s43.167 116.833 78.5 175.5s78.666 113 129.999 163c-25.333 0 -50.333 -1 -75 -3s-48.667 -6.33301 -72 -13s-46.333 -16.167 -69 -28.5s-44.667 -28.833 -66 -49.5c-20.667 -19.333 -35.667 -39.833 -45 -61.5s-13.666 -42.5 -12.999 -62.5s5.5 -38 14.5 -54
s21.167 -28 36.5 -36l-43 -22c-12.667 1.33301 -26.667 6.66602 -42 15.999s-29.833 21.666 -43.5 36.999s-25.834 33 -36.501 53s-18 41 -22 63s-4 44.5 0 67.5s14 45.167 30 66.5c28 38 62.5 63.5 103.5 76.5s84.333 19.167 130 18.5s91.167 -4.5 136.5 -11.5
s86.333 -11.5 123 -13.5c32.667 28 68.167 53.333 106.5 76s79 42.334 122 59.001s88.167 29.5 135.5 38.5s96.666 13.5 147.999 13.5c36.667 0 65.667 -5.5 87 -16.5s35.833 -25.167 43.5 -42.5s9.16699 -37 4.5 -59s-14.5 -44 -29.5 -66s-34.667 -43 -59 -63
s-51.833 -36.667 -82.5 -50c-45.333 -19.333 -83.833 -28.666 -115.5 -27.999s-56 7.83398 -73 21.501s-25.833 31.5 -26.5 53.5s8 44.333 26 67c-14.667 -3.33301 -30 -6.33301 -46 -9c-13.333 -2.66699 -28.666 -5.5 -45.999 -8.5l-53 -9.5
c-44.667 -44 -84.5 -93.167 -119.5 -147.5s-63.5 -109.5 -85.5 -165.5s-37 -110.333 -45 -163s-8 -99.5 0 -140.5s25 -74 51 -99s62.333 -37.5 109 -37.5c22 0 42.667 3.16699 62 9.5s36.833 14.5 52.5 24.5s29.167 21.333 40.5 34s20 25.334 26 38.001zM1030 735.998
c-56.667 0 -110.498 -10.502 -161.498 -31.502s-98.833 -49.5 -143.5 -85.5c34 8 63.667 16.5 89 25.5s46.666 17.167 63.999 24.5c20 8.66699 37 17.334 51 26.001l17 -41c-44 -19.333 -74.333 -40 -91 -62s-22.334 -40.5 -17.001 -55.5s21 -24 47 -27s60 4.83301 102 23.5
c34 14.667 62.833 33.5 86.5 56.5s39 45.333 46 67s3.83301 40.334 -9.5 56.001s-40 23.5 -80 23.5z" />
    <glyph glyph-name="D" unicode="D" horiz-adv-x="1085" 
d="M1037 783c-24.667 0 -48.166 -4.99707 -70.499 -14.9971s-43.833 -24 -64.5 -42c48.667 -24.667 85.667 -58.834 111 -102.501s41.333 -92.167 48 -145.5s5 -109 -5 -167s-26.333 -113.333 -49 -166c-19.333 -45.333 -41.833 -88.166 -67.5 -128.499
s-55.334 -75.666 -89.001 -105.999s-72.167 -54.333 -115.5 -72s-92.333 -26.5 -147 -26.5c-34 0 -63.833 5.16699 -89.5 15.5s-48.667 23.5 -69 39.5s-38.666 33.333 -54.999 52l-46.5 53c-25.333 -15.333 -51.5 -27 -78.5 -35s-55.5 -12 -85.5 -12
c-36.667 0 -67 5.5 -91 16.5s-41.833 24.667 -53.5 41s-17.5 34.166 -17.5 53.499s5.5 37.166 16.5 53.499s27.667 30 50 41s50.166 16.5 83.499 16.5c30 0 57 -5.16699 81 -15.5s46.667 -23.166 68 -38.499c30.667 38.667 61.667 83.667 93 135l98 158
c34 54 70 107.333 108 160s79 100 123 142c-24.667 -4 -50.167 -9.83301 -76.5 -17.5s-53.833 -17.5 -82.5 -29.5c-34.667 -15.333 -64.834 -33 -90.501 -53s-47 -40.833 -64 -62.5s-29.833 -43.334 -38.5 -65.001s-13.167 -41.334 -13.5 -59.001s3.16699 -33 10.5 -46
s18.666 -21.5 33.999 -25.5l-35 -42c-38 2.66699 -69.667 11.667 -95 27s-43.666 34.833 -54.999 58.5s-15.666 50.167 -12.999 79.5s13.334 59 32.001 89s45.167 59 79.5 87s77.166 52.667 128.499 74c54.667 22.667 113.667 38.167 177 46.5s123.333 9.16602 180 2.49902
c34.667 24 71.667 43 111 57s81 21 125 21v-47zM590.001 -70.9971c36 0 69.833 7.16504 101.5 21.498s61.5 33.5 89.5 57.5s53.667 52 77 84s44.666 65.667 63.999 101c26 48.667 45.333 100.167 58 154.5s17.334 105.166 14.001 152.499s-15.5 88.5 -36.5 123.5
s-51.833 58.167 -92.5 69.5c-25.333 -28 -50.166 -60.167 -74.499 -96.5s-48.833 -75 -73.5 -116l-74.5 -126c-25 -43 -50.833 -84.667 -77.5 -125s-54.334 -78.666 -83.001 -114.999s-58.667 -68.166 -90 -95.499c13.333 -11.333 27.333 -22.333 42 -33
s30 -20.167 46 -28.5s33 -15.166 51 -20.499s37.667 -8 59 -8z" />
    <glyph glyph-name="E" unicode="E" horiz-adv-x="972" 
d="M948 349c-16 -28 -35.002 -52.3359 -57.002 -73.0029c-9.33301 -8.66699 -20 -17 -32 -25s-25 -14.833 -39 -20.5s-29.167 -9.66699 -45.5 -12s-33.833 -2.16602 -52.5 0.500977c-20 2.66699 -39.333 7.66699 -58 15s-36.667 16 -54 26
c-29.333 -52 -60.333 -102.333 -93 -151s-68.334 -92 -107.001 -130c23.333 -13.333 48 -26.333 74 -39s53.5 -24 82.5 -34s59.833 -18 92.5 -24s68 -9 106 -9c24 0 46 3.16699 66 9.5s37.833 14 53.5 23s28.834 18.667 39.501 29s18.667 19.5 24 27.5l34 -32
c-11.333 -35.333 -28 -66.666 -50 -93.999c-9.33301 -12 -20.166 -23.5 -32.499 -34.5s-26.666 -21 -42.999 -30s-34.5 -16.167 -54.5 -21.5s-42.333 -8 -67 -8c-30.667 0 -61.5 6.33301 -92.5 19s-61.833 28.834 -92.5 48.501s-61.334 41.167 -92.001 64.5l-91 67
c-32.667 -26 -67.5 -46.833 -104.5 -62.5s-77.167 -23.5 -120.5 -23.5c-32.667 0 -59.667 5.5 -81 16.5s-37 24.667 -47 41s-14.167 34.166 -12.5 53.499s8.83398 37.166 21.501 53.499s31 30 55 41s53.667 16.5 89 16.5c23.333 0 46.333 -3.83301 69 -11.5
s45.667 -17.5 69 -29.5c32 42.667 62.833 91 92.5 145l92.5 163c-32 24 -63.333 45.167 -94 63.5s-63 27.5 -97 27.5l18 38c34.667 0 69.167 -7.5 103.5 -22.5s69.166 -31.167 104.499 -48.5c20 32 40.5 62.333 61.5 91s43.333 54.667 67 78s48.5 43 74.5 59
s53.667 27.333 83 34l-87.5 38c-29 12 -57.167 22.167 -84.5 30.5s-53.5 14.333 -78.5 18s-48.5 3.83398 -70.5 0.500977c-30 -4.66699 -55.333 -13.834 -76 -27.501s-36.667 -29.167 -48 -46.5s-18.166 -35.166 -20.499 -53.499s-0.333008 -34.666 6 -48.999
s17.166 -25.5 32.499 -33.5s34.666 -10 57.999 -6c2 0 3.66699 0.666992 5 2c0.666992 0.666992 1.33398 1.66699 2.00098 3c-19.333 0 -31.666 7.5 -36.999 22.5s-4 33.167 4 54.5c10 24.667 23.167 43.667 39.5 57s34.166 20 53.499 20c12 0 21 -3 27 -9
c14.667 -10 23.5 -23 26.5 -39s1.83301 -32.667 -3.5 -50s-14.5 -34.166 -27.5 -50.499s-28.333 -29.5 -46 -39.5s-37.334 -15.667 -59.001 -17s-43.5 4 -65.5 16c-19.333 10 -33.833 23.667 -43.5 41s-15 36 -16 56s2.5 40.5 10.5 61.5s20.167 40.5 36.5 58.5
s36.833 33.333 61.5 46s53.334 21 86.001 25c29.333 3.33301 60.333 2 93 -4s67 -14.167 103 -24.5s73.5 -21.666 112.5 -33.999s79.5 -23 121.5 -32s85 -15.333 129 -19s89.333 -1.83398 136 5.49902c23.333 4 44.333 10.667 63 20s35 19.666 49 30.999s25.5 23 34.5 35
s15.5 22.333 19.5 31l39 -27c-5.33301 -36 -16.666 -69.333 -33.999 -100c-7.33301 -13.333 -16.166 -26.5 -26.499 -39.5s-22.833 -25.167 -37.5 -36.5s-31.5 -21.166 -50.5 -29.499s-40.5 -14.5 -64.5 -18.5c-22 -3.33301 -45.833 -3 -71.5 1s-52.5 10.5 -80.5 19.5
s-56.833 19.833 -86.5 32.5l-89.5 40c-16 -10.667 -32 -25.834 -48 -45.501s-32.167 -42.5 -48.5 -68.5s-32.833 -54.667 -49.5 -86l-52 -97c28 -7.33301 56.333 -11 85 -11c48 0 86.667 5.5 116 16.5s50.666 23.167 63.999 36.5zM111.998 -94.0029
c30.667 0 59.332 8.33105 85.999 24.998s52.667 39.334 78 68.001c-20.667 11.333 -41 20.166 -61 26.499s-39.667 9.5 -59 9.5c-33.333 0 -58.666 -6.66699 -75.999 -20s-27.5 -28.166 -30.5 -44.499s0.833008 -31.166 11.5 -44.499s27.667 -20 51 -20z" />
    <glyph glyph-name="F" unicode="F" horiz-adv-x="1003" 
d="M1016 269c-16 -28 -34.9951 -52.332 -56.9951 -72.999c-9.33301 -8.66699 -20 -17 -32 -25s-25 -14.833 -39 -20.5s-29.167 -9.66699 -45.5 -12s-33.833 -2.16602 -52.5 0.500977c-23.333 3.33301 -45.833 9.66602 -67.5 18.999s-42.834 20.333 -63.501 33
c-28 -55.333 -58 -109.333 -90 -162s-66.667 -99.5 -104 -140.5s-77.5 -74 -120.5 -99s-89.833 -37.5 -140.5 -37.5c-56.667 0 -100.667 11.167 -132 33.5s-52 50.5 -62 84.5s-10.833 70.5 -2.5 109.5s23.833 75.5 46.5 109.5s51 62.167 85 84.5s71.667 33.5 113 33.5
c19.333 0 33.833 -4.33301 43.5 -13s15.167 -19.5 16.5 -32.5s-0.833984 -27 -6.50098 -42s-14.167 -29 -25.5 -42s-25.333 -23.833 -42 -32.5s-34.667 -13 -54 -13c-18.667 0 -31.667 6.33301 -39 19s-9 28.667 -5 48c-26 -25.333 -45.5 -54.5 -58.5 -87.5
s-18.333 -64.333 -16 -94s12.666 -54.834 30.999 -75.501s45.833 -31 82.5 -31s70.667 13.667 102 41s61.333 63.166 90 107.499s56.667 94.333 84 150l84 168.5c-28 21.333 -56.167 39.666 -84.5 54.999s-57.5 23 -87.5 23l18 37c31.333 0 62 -6 92 -18
s60.333 -25.667 91 -41c21.333 40.667 43.5 80 66.5 118s47.333 72.167 73 102.5s52.667 56 81 77s58.833 35.167 91.5 42.5l-87.5 38c-29 12 -57.333 22.167 -85 30.5s-54 14.333 -79 18s-48.5 3.83398 -70.5 0.500977c-30 -4.66699 -55.333 -13.834 -76 -27.501
s-36.834 -29.167 -48.501 -46.5s-18.667 -35.166 -21 -53.499s-0.166016 -34.666 6.50098 -48.999s17.5 -25.5 32.5 -33.5s34.5 -10 58.5 -6c1.33301 0 3 1 5 3l2 2c-18.667 0 -31 7.66699 -37 23s-4.66699 33.666 4 54.999c9.33301 24 22.333 42.833 39 56.5
s34.667 20.5 54 20.5c6 0 11.333 -0.833008 16 -2.5s8.66699 -3.83398 12 -6.50098c14 -10 22.667 -23 26 -39s2.16602 -32.833 -3.50098 -50.5s-15 -34.5 -28 -50.5s-28.333 -29 -46 -39s-37.334 -15.667 -59.001 -17s-43.5 4 -65.5 16c-19.333 10 -33.833 23.667 -43.5 41
s-15 36 -16 56s2.5 40.5 10.5 61.5s20.167 40.5 36.5 58.5s36.833 33.333 61.5 46s53.334 21 86.001 25c28.667 3.33301 59.5 2 92.5 -4s67.5 -14.333 103.5 -25l112.5 -34c39 -12 79.5 -22.667 121.5 -32s85 -15.666 129 -18.999s89 -1.33301 135 6
c24 4 45.333 10.667 64 20s35 19.666 49 30.999s25.5 23 34.5 35s15.5 22.333 19.5 31l40 -27c-5.33301 -36 -16.666 -69.333 -33.999 -100c-7.33301 -13.333 -16.333 -26.5 -27 -39.5s-23.334 -25.167 -38.001 -36.5s-31.667 -21.166 -51 -29.499s-41 -14.5 -65 -18.5
c-22 -3.33301 -45.667 -3 -71 1s-52 10.5 -80 19.5s-56.833 19.833 -86.5 32.5l-89.5 39c-18 -12.667 -35.833 -31.667 -53.5 -57s-35.5 -54.666 -53.5 -87.999s-36.5 -70 -55.5 -110l-59.5 -123c17.333 -6 35 -10.667 53 -14s36.667 -5 56 -5c48 0 86.667 5.33301 116 16
s50.666 22.667 63.999 36z" />
    <glyph glyph-name="G" unicode="G" horiz-adv-x="1086" 
d="M1028 278c-26.667 -24.667 -49.6719 -56.168 -69.0049 -94.501s-38.333 -79.333 -57 -123l-58.5 -133c-20.333 -45 -44.833 -86.667 -73.5 -125s-62.667 -71.166 -102 -98.499s-87 -45.333 -143 -54c-53.333 -8 -97.666 -6.33301 -132.999 5s-62.5 29 -81.5 53
s-30.667 52.333 -35 85s-2.16602 66.167 6.50098 100.5s23.167 67.833 43.5 100.5s45.5 60.667 75.5 84c-14 28.667 -21.667 59.834 -23 93.501s3 68.334 13 104.001s25.333 71.667 46 108s46.667 71.166 78 104.499c-27.333 0 -54.333 -0.833008 -81 -2.5s-53 -6 -79 -13
s-51.833 -17 -77.5 -30s-50.834 -30.5 -75.501 -52.5c-23.333 -20.667 -40.5 -42.334 -51.5 -65.001s-17 -44.5 -18 -65.5s2.66699 -39.833 11 -56.5s20.5 -29.334 36.5 -38.001l-47 -23c-20.667 2 -41.667 13.167 -63 33.5s-38.166 46 -50.499 77
s-17.166 64.833 -14.499 101.5s17.667 72 45 106c21.333 26.667 45.5 47.167 72.5 61.5s55.333 24.333 85 30s60.167 8 91.5 7s62.333 -3.33301 93 -7s60.334 -7.5 89.001 -11.5s55.334 -6 80.001 -6c32 28 67.667 54 107 78s82.166 44.833 128.499 62.5
s95.833 31.334 148.5 41.001s108.334 14.5 167.001 14.5c44 0 77.167 -8.16699 99.5 -24.5s35.333 -37.166 39 -62.499s-0.833008 -53 -13.5 -83s-31.667 -58.667 -57 -86s-56.333 -51.5 -93 -72.5s-76.667 -34.5 -120 -40.5c-40.667 -6 -73.167 -4 -97.5 6
s-40.833 24 -49.5 42s-9.33398 38.667 -2.00098 62s22 45.666 44 66.999l-50 -10c-15.333 -3.33301 -32.666 -6.66602 -51.999 -9.99902l-58 -10c-33.333 -34 -61.833 -70.333 -85.5 -109s-42 -77 -55 -115s-20.333 -74.333 -22 -109s3.33301 -65.334 15 -92.001
s30 -48 55 -64s57.833 -24 98.5 -24h11c4 0 8 0.333008 12 1l51.5 106c17.667 34.667 36.834 66.334 57.501 95.001s43.667 52.667 69 72s53.666 31.666 84.999 36.999zM692.995 -63.001c-64 0 -117.333 8.66699 -160 26s-76.667 40.666 -102 69.999
c-22 -18 -40.333 -39 -55 -63s-25.334 -48.667 -32.001 -74s-9 -50.333 -7 -75s8.83301 -46.5 20.5 -65.5s28.334 -33.833 50.001 -44.5s49.167 -15 82.5 -13c24 1.33301 45.833 8.83301 65.5 22.5s38 31.334 55 53.001s33 46.5 48 74.5s29.833 57.667 44.5 89h-10z
M958.995 412.999c32 4 62.332 13.501 90.999 28.501s53.667 32.5 75 52.5s38.166 41.167 50.499 63.5s18.333 42.833 18 61.5s-8 34.167 -23 46.5s-39.167 18.5 -72.5 18.5c-67.333 0 -129.333 -11.5 -186 -34.5s-108 -53.167 -154 -90.5c38 8 71.333 16.667 100 26
s52.667 18.333 72 27c22.667 9.33301 42 19 58 29l14 -43c-18 -2.66699 -35.5 -9.33398 -52.5 -20.001s-31.5 -23.5 -43.5 -38.5s-21.167 -30.667 -27.5 -47s-8.16602 -30.833 -5.49902 -43.5s10.834 -22.667 24.501 -30s34.167 -9.33301 61.5 -6z" />
    <glyph glyph-name="H" unicode="H" horiz-adv-x="1135" 
d="M1362 730l-123 -201.994l-51.5 -85l-52 -85.5l-48 -79l-39.5 -65.5l-44 -71l-40.5 -67c-12.333 -21.333 -22.833 -41 -31.5 -59s-14.334 -33.667 -17.001 -47c-2.66699 -12 -0.5 -21.333 6.5 -28s15.5 -10 25.5 -10c6.66699 0 14.667 1.66699 24 5s18.5 8.5 27.5 15.5
s17.5 15.667 25.5 26s14.667 22.166 20 35.499l26 -38c-6.66699 -20.667 -16 -40 -28 -58s-25.833 -33.833 -41.5 -47.5s-33 -24.5 -52 -32.5s-38.833 -12 -59.5 -12c-30.667 0 -57 5.16699 -79 15.5s-37.667 26.666 -47 48.999s-10.833 51.166 -4.5 86.499
s22.5 77.666 48.5 126.999c-50 34.667 -109 58.667 -177 72c-30 -58.667 -61.333 -115.834 -94 -171.501s-68 -105 -106 -148s-79 -77.667 -123 -104s-92 -39.5 -144 -39.5c-42.667 0 -76 9.16699 -100 27.5s-39.333 42 -46 71s-4.83398 61.667 5.49902 98
s28.166 72.5 53.499 108.5s57.666 69.833 96.999 101.5s85 57.5 137 77.5c-24.667 10 -47.167 24.167 -67.5 42.5s-36.5 39.666 -48.5 63.999s-18.667 50.833 -20 79.5s5 57.667 19 87s34.167 53 60.5 71s56.333 32.167 90 42.5s69.5 17.5 107.5 21.5
s75.333 6.83301 112 8.5s71.5 3 104.5 4s61.5 3.5 85.5 7.5c22.667 20.667 45.834 38.667 69.501 54s48.834 27.666 75.501 36.999c9.33301 2.66699 19.833 5.5 31.5 8.5s23.5 5 35.5 6s23.667 0.333008 35 -2s21 -7.16602 29 -14.499c9.33301 -9.33301 12 -20 8 -32
s-13.5 -24 -28.5 -36s-35.167 -23.167 -60.5 -33.5s-54.333 -17.833 -87 -22.5c-18 -22 -35.667 -47 -53 -75s-34.666 -58 -51.999 -90l-51.5 -99.5l-52.5 -104.5c68.667 -14 129.334 -37.333 182.001 -70c14 23.333 30.5 49.5 49.5 78.5l60 91l64.5 96l64 94.5l151 220h139
zM134 -228.994c28 0 55.166 11.166 81.499 33.499s52.5 52.333 78.5 90s52.167 81.167 78.5 130.5l81.5 154c-58.667 -6.66699 -110.667 -21.5 -156 -44.5s-83.833 -49.667 -115.5 -80s-56.667 -62.166 -75 -95.499s-29.5 -63.833 -33.5 -91.5s-1.16699 -50.667 8.5 -69
s26.834 -27.5 51.501 -27.5zM382.999 219.005c32 8 65.333 13.001 100 15.001c32.667 62 67.334 122.667 104.001 182s76 112.666 118 159.999c-30.667 -3.33301 -64 -8.33301 -100 -15s-71 -15.667 -105 -27s-65.167 -26 -93.5 -44s-50.166 -40.333 -65.499 -67
c-12.667 -22 -20.334 -43.5 -23.001 -64.5s-1.83398 -40.5 2.49902 -58.5s12 -34 23 -48s24.167 -25 39.5 -33z" />
    <glyph glyph-name="I" unicode="I" horiz-adv-x="811" 
d="M973 758c9.33301 4 20.0039 7.83496 32.0039 11.502s24 6.33398 36 8.00098s23.667 1.83398 35 0.500977s21 -5.33301 29 -12c9.33301 -8.66699 12 -19.167 8 -31.5s-13.667 -25 -29 -38s-35.666 -25.5 -60.999 -37.5s-54.333 -21.667 -87 -29
c-25.333 -32.667 -50.166 -70.834 -74.499 -114.501s-48.5 -89.834 -72.5 -138.501l-73.5 -150.5c-25 -51.667 -50.833 -102 -77.5 -151s-54.667 -95.5 -84 -139.5s-60.5 -83 -93.5 -117s-68.333 -61.5 -106 -82.5s-78.167 -33.167 -121.5 -36.5
c-54.667 -4 -97.667 4.16699 -129 24.5s-53 46.833 -65 79.5s-15.333 69 -10 109s17.666 77.5 36.999 112.5s44.666 65 75.999 90s67 38.833 107 41.5c19.333 1.33301 34.166 -2 44.499 -10s16.666 -18.333 18.999 -31s1.16602 -26.834 -3.50098 -42.501
s-12.334 -30.334 -23.001 -44.001s-23.834 -25.334 -39.501 -35.001s-33.167 -15.167 -52.5 -16.5c-18.667 -1.33301 -32.167 4 -40.5 16s-11.166 27.667 -8.49902 47c-24.667 -26.667 -42.334 -57 -53.001 -91s-13.667 -65.667 -9 -95s16.834 -53.666 36.501 -72.999
s47.5 -27.666 83.5 -24.999c30.667 2 60.667 17.667 90 47s58.5 67.333 87.5 114s58.5 99.667 88.5 159l93.5 182c32.333 62 66.333 123 102 183s74.167 114.333 115.5 163c-30 -6 -62.833 -13.5 -98.5 -22.5s-70.167 -20.5 -103.5 -34.5s-64.166 -31 -92.499 -51
s-50.5 -43.667 -66.5 -71c-14 -24.667 -22.333 -48.334 -25 -71.001s-1 -43.167 5 -61.5s15.5 -34 28.5 -47s28.167 -22.167 45.5 -27.5l-29 -32c-30.667 0 -60 7.33301 -88 22s-51 34.667 -69 60s-29.333 54.5 -34 87.5s1.33301 67.833 18 104.5c14 30.667 34.333 56 61 76
s56.667 36.333 90 49s68.666 22.5 105.999 29.5s74.333 12.5 111 16.5l104 11c32.667 3.33301 61 8 85 14c22.667 22 46 41.5 70 58.5s49 31.167 75 42.5z" />
    <glyph glyph-name="J" unicode="J" horiz-adv-x="901" 
d="M1105 726c10 2 21.166 3.50195 33.499 4.50195s24.5 1 36.5 0s23.167 -3.5 33.5 -7.5s18.5 -10 24.5 -18c8 -10.667 8.33301 -21.834 1 -33.501s-20.166 -22.167 -38.499 -31.5s-41.833 -17 -70.5 -23s-60.334 -8.33301 -95.001 -7c-30 -28 -58.667 -62.333 -86 -103
s-54.166 -84.667 -80.499 -132l-80 -148c-27 -51.333 -55.167 -101.5 -84.5 -150.5s-60.333 -95.5 -93 -139.5s-68.167 -82.667 -106.5 -116s-79.833 -59.833 -124.5 -79.5s-93.667 -29.5 -147 -29.5c-48 0 -87.667 7.66699 -119 23s-55.666 35.833 -72.999 61.5
s-28 54.667 -32 87s-2.66699 65.333 4 99s18.5 66.667 35.5 99s37.667 61.333 62 87s52 46.167 83 61.5s64.167 23 99.5 23c19.333 0 33.833 -4.33301 43.5 -13s15.167 -19.5 16.5 -32.5s-0.833984 -27.167 -6.50098 -42.5s-14.167 -29.5 -25.5 -42.5
s-25.333 -23.833 -42 -32.5s-34.667 -13 -54 -13c-21.333 0 -35.333 8.16699 -42 24.5s-6 36.166 2 59.499c-22.667 -16.667 -42.5 -37.834 -59.5 -63.501s-30 -53 -39 -82s-13.833 -58.167 -14.5 -87.5s3.66602 -55.666 12.999 -78.999s24.333 -42.333 45 -57
s48 -22 82 -22c31.333 0 61.5 8.5 90.5 25.5s57.333 40.333 85 70s54.667 64.167 81 103.5s53 81.333 80 126l81.5 138.5c27.333 47.667 55.5 94.167 84.5 139.5s59.167 88.666 90.5 129.999s64.333 78 99 110c-39.333 3.33301 -78.333 8.66602 -117 15.999
s-76.667 11.5 -114 12.5s-73.333 -4 -108 -15s-67.334 -33.167 -98.001 -66.5c-21.333 -23.333 -36 -49.333 -44 -78s-10.5 -56.334 -7.5 -83.001s11.333 -50.334 25 -71.001s31.5 -35 53.5 -43l-39 -32c-36.667 8.66699 -68.5 26.5 -95.5 53.5s-47 58.5 -60 94.5
s-17.333 74.167 -13 114.5s19.5 77.5 45.5 111.5c26.667 34.667 56.5 59.334 89.5 74.001s67.667 22.834 104 24.501s73.833 -1.16602 112.5 -8.49902s76.834 -15.5 114.501 -24.5s74.334 -17.167 110.001 -24.5s68.5 -9.66602 98.5 -6.99902h2c23.333 16 47 29.5 71 40.5
s49.333 19.167 76 24.5z" />
    <glyph glyph-name="K" unicode="K" horiz-adv-x="1097" 
d="M949 725c9.33301 2.66699 20.002 5.50195 32.002 8.50195s24 5 36 6s23.667 0.333008 35 -2s21 -7.16602 29 -14.499c10 -9.33301 12.833 -20.166 8.5 -32.499s-14.166 -24.5 -29.499 -36.5s-36.166 -23.167 -62.499 -33.5s-56.5 -17.833 -90.5 -22.5
c-30 -36 -58.833 -78.833 -86.5 -128.5s-55.5 -102.5 -83.5 -158.5c13.333 5.33301 28.333 9 45 11s34.667 0.666992 54 -4c6.66699 -1.33301 13 -3.16602 19 -5.49902s12 -4.83301 18 -7.5c27.333 22 53.333 49.667 78 83l74.5 103l77 104c26.333 34 54.833 63 85.5 87
c22 18 48.333 32.167 79 42.5s61.5 15.166 92.5 14.499s60.833 -7.5 89.5 -20.5s52 -33.833 70 -62.5l-33 -48c-10 8 -21.333 13.333 -34 16s-26 3.33398 -40 2.00098s-28.333 -4.33301 -43 -9s-29 -10.334 -43 -17.001c-32.667 -16 -66 -37.167 -100 -63.5
s-68.167 -54.666 -102.5 -84.999l-103 -92.5c-34.333 -31.333 -67.833 -59.333 -100.5 -84c22.667 -20 39.667 -44.5 51 -73.5s19.5 -59.167 24.5 -90.5s8.16699 -62.5 9.5 -93.5s3.66602 -58.667 6.99902 -83s8.83301 -44.166 16.5 -59.499s20.167 -23 37.5 -23
c6.66699 0 14.5 1.66699 23.5 5s18 8.5 27 15.5s17.667 15.5 26 25.5s15.166 21.667 20.499 35l25 -36c-6.66699 -20.667 -16.167 -41.334 -28.5 -62.001s-26.5 -39.334 -42.5 -56.001s-33.5 -30.334 -52.5 -41.001s-38.833 -16 -59.5 -16
c-43.333 0 -75.833 9.66699 -97.5 29s-36.334 44.5 -44.001 75.5s-10.5 65.833 -8.5 104.5s5 77 9 115s7 74 9 108s-1.33301 61.667 -10 83c-22 -13.333 -43.5 -24 -64.5 -32s-41.5 -12 -61.5 -12c-22.667 0 -39.667 5 -51 15
c-30.667 -60.667 -62.334 -120.167 -95.001 -178.5s-67.834 -110.166 -105.501 -155.499s-78.5 -82 -122.5 -110s-92 -42 -144 -42c-54 0 -96.833 11.167 -128.5 33.5s-53.834 50.5 -66.501 84.5s-16.5 70.5 -11.5 109.5s17 75.5 36 109.5s44 62.167 75 84.5
s66.5 33.5 106.5 33.5c19.333 0 34.166 -4.33301 44.499 -13s16.833 -19.5 19.5 -32.5s1.66699 -27 -3 -42s-12.167 -29 -22.5 -42s-23.333 -23.833 -39 -32.5s-33.167 -13 -52.5 -13c-18.667 0 -32.334 6.33301 -41.001 19s-12 28.667 -10 48
c-24 -25.333 -41 -54.5 -51 -87.5s-12.5 -64.333 -7.5 -94s17.5 -54.834 37.5 -75.501s48.333 -31 85 -31c30.667 0 60.334 13.5 89.001 40.5s57.334 62.833 86.001 107.5s57.5 95.5 86.5 152.5l91 174.5c31.667 59.333 65 117.833 100 175.5s72.833 109.167 113.5 154.5
c-30 -3.33301 -62.667 -8.33301 -98 -15s-69.833 -15.667 -103.5 -27s-64.5 -26 -92.5 -44s-49.667 -40.333 -65 -67c-13.333 -24 -21.166 -47.167 -23.499 -69.5s-0.333008 -42.833 6 -61.5s16 -34.834 29 -48.501s28.167 -23.834 45.5 -30.501l-29 -30
c-30.667 2 -60.167 11.333 -88.5 28s-51.666 38.334 -69.999 65.001s-29.833 56.667 -34.5 90s1 67.666 17 102.999c14 29.333 34.167 53 60.5 71s56 32.167 89 42.5s68.333 17.5 106 21.5s74.667 6.83301 111 8.5s70.833 3 103.5 4s61 3.5 85 7.5
c22.667 20.667 46 38.667 70 54s49 27.666 75 36.999z" />
    <glyph glyph-name="L" unicode="L" horiz-adv-x="889" 
d="M193 138c23.333 -3.33301 46.168 -10.5029 68.501 -21.5029s44.5 -24.167 66.5 -39.5c40.667 38.667 82.834 83.834 126.501 135.501l136 158.5c47 54 95.667 106.5 146 157.5s102.333 95.667 156 134s109.167 67.5 166.5 87.5s116.333 26 177 18
c32 -4.66699 57.667 -14.5 77 -29.5s32.166 -32.5 38.499 -52.5s5.66602 -41 -2.00098 -63s-22.5 -42 -44.5 -60c-15.333 -12.667 -29.833 -22.334 -43.5 -29.001s-26.167 -11.334 -37.5 -14.001s-21 -3.66699 -29 -3s-14.333 2 -19 4c-18.667 8 -27.667 20.333 -27 37
s9.33398 33.667 26.001 51c20 20.667 40.833 34.167 62.5 40.5s42.167 5.16602 61.5 -3.50098c5.33301 -1.33301 9 -3.66602 11 -6.99902c4 6.66699 4.83301 14.334 2.5 23.001s-7 16.667 -14 24s-16.333 14 -28 20s-24.834 10 -39.501 12
c-40.667 5.33301 -81.334 -3.5 -122.001 -26.5s-82 -55 -124 -96s-84.667 -88.167 -128 -141.5l-134 -162.5c-46 -55 -93 -108.167 -141 -159.5s-97.667 -95.333 -149 -132c22.667 -17.333 46.834 -34.666 72.501 -51.999s53 -33.5 82 -48.5s60.333 -28.167 94 -39.5
s70.167 -19.666 109.5 -24.999c24.667 -3.33301 48.167 -3.16602 70.5 0.500977s42.333 9.16699 60 16.5s32.834 15.666 45.501 24.999s22.334 18 29.001 26l32 -40c-17.333 -35.333 -39.333 -66 -66 -92c-11.333 -11.333 -24.5 -21.833 -39.5 -31.5s-31.667 -18 -50 -25
s-38.333 -11.833 -60 -14.5s-45.5 -2 -71.5 2c-32 4.66699 -63.333 16 -94 34s-60.834 39.5 -90.501 64.5s-58.834 52 -87.501 81l-86 84.5c-40 -23.333 -80.333 -40.333 -121 -51s-83 -13 -127 -7c-34.667 4.66699 -62.334 14.5 -83.001 29.5s-35 31.833 -43 50.5
s-9.83301 37.834 -5.5 57.501s14.5 37.167 30.5 52.5s37.333 27 64 35s58.334 9.66699 95.001 5zM111.002 -34.0029c28 -4 56.9971 1 86.9971 15s61 34.667 93 62c-19.333 13.333 -38.666 24.5 -57.999 33.5s-38.666 15.167 -57.999 18.5
c-34.667 4.66699 -62.167 1.33398 -82.5 -9.99902s-33.166 -25.333 -38.499 -42s-3.33301 -32.834 6 -48.501s26.333 -25.167 51 -28.5z" />
    <glyph glyph-name="M" unicode="M" horiz-adv-x="1542" 
d="M1788 730l-135.008 -201.998l-57.5 -85l-57.5 -85.5l-53.5 -79l-44.5 -65.5l-49 -71l-46 -67c-14 -21.333 -26.167 -41 -36.5 -59s-17.166 -33.667 -20.499 -47c-3.33301 -12 -1.66602 -21.333 5.00098 -28s14.667 -10 24 -10c6.66699 0 14.667 1.66699 24 5
s18.833 8.5 28.5 15.5s19 15.667 28 26s16.5 22.166 22.5 35.499l23 -38c-8.66699 -20.667 -19.667 -40 -33 -58s-28.5 -33.833 -45.5 -47.5s-35.167 -24.5 -54.5 -32.5s-39.333 -12 -60 -12c-32 0 -59 5.83301 -81 17.5s-36 30.167 -42 55.5s-2.33301 58 11 98
s39.333 88.333 78 145l53.5 78.5l60.5 92l63.5 98l62.5 96l56 87.5l46 72c-19.333 -5.33301 -40.166 -18.5 -62.499 -39.5s-46.5 -47.333 -72.5 -79s-53.333 -67 -82 -106l-90 -119.5l-121.5 -158.5c-38.333 -51 -75.666 -96.333 -111.999 -136
s-72.833 -71.334 -109.5 -95.001s-74.667 -35.5 -114 -35.5c-25.333 0 -45.166 4.83301 -59.499 14.5s-24.166 22.667 -29.499 39s-6.5 35.5 -3.5 57.5s9.5 45.667 19.5 71c7.33301 18 14.833 34.833 22.5 50.5s17 33.167 28 52.5s24.833 41.666 41.5 66.999l64 95l54 77.5
c20 28.333 37.833 56.333 53.5 84s27.334 53 35.001 76s7.5 40.833 -0.5 53.5c-26 -26.667 -53.833 -60.167 -83.5 -100.5l-93 -133l-100.5 -151.5l-106 -155.5c-36 -51 -72.333 -99.5 -109 -145.5s-73.334 -86.5 -110.001 -121.5s-73 -62.833 -109 -83.5s-71 -31 -105 -31
c-53.333 0 -95.5 11.167 -126.5 33.5s-52.333 50.5 -64 84.5s-14.5 70.5 -8.5 109.5s18.833 75.5 38.5 109.5s45.334 62.167 77.001 84.5s67.5 33.5 107.5 33.5c19.333 0 33.666 -4.33301 42.999 -13s14.833 -19.5 16.5 -32.5s-0.333008 -27 -6 -42s-14.334 -29 -26.001 -42
s-25.667 -23.833 -42 -32.5s-34.5 -13 -54.5 -13c-18 0 -30.833 6.33301 -38.5 19s-9.16699 28.667 -4.5 48c-17.333 -16.667 -31.166 -35.5 -41.499 -56.5s-17 -42.5 -20 -64.5s-2.33301 -43.667 2 -65s12 -40.166 23 -56.499s25.333 -29.5 43 -39.5s38.5 -15 62.5 -15
c36.667 0 74.5 13 113.5 39s78.167 60.333 117.5 103s78.833 91.5 118.5 146.5l118 170l114.5 173.5c37.333 57.333 73.333 109.5 108 156.5s68 86.5 100 118.5s61.667 52.333 89 61h175c14.667 -15.333 13.167 -46.5 -4.5 -93.5s-55.167 -111.167 -112.5 -192.5l-76 -108
l-59 -85l-50.5 -75l-50.5 -78l-34.5 -54c-10.333 -16 -18.166 -29.833 -23.499 -41.5s-7.66602 -20.667 -6.99902 -27s5.33398 -9.5 14.001 -9.5c19.333 0 42.5 11.333 69.5 34s57.667 54 92 94s72.666 87.833 114.999 143.5l138.5 182.5l122 158.5
c31.333 39 56.833 69 76.5 90s35.5 35.5 47.5 43.5s24 14 36 18h257z" />
    <glyph glyph-name="N" unicode="N" horiz-adv-x="1398" 
d="M1156 730c12 -23.333 16.6689 -52.6709 14.002 -88.0039s-10 -74 -22 -116s-27.333 -86 -46 -132l-56.5 -136l-54.5 -127c-17.333 -40 -30.666 -75.333 -39.999 -106s-13.333 -55 -12 -73s11 -27 29 -27c20 0 40 9.66699 60 29s39.833 45.166 59.5 77.499
s39.334 69.833 59.001 112.5l60.5 134.5l63 142.5c21.333 48 43.166 93.5 65.499 136.5s45.5 82 69.5 117s49 63.167 75 84.5c20 16 43.333 27.833 70 35.5s53.167 10.5 79.5 8.5s50.666 -8.5 72.999 -19.5s39.166 -26.833 50.499 -47.5l-13 -33
c-12.667 5.33301 -26.667 8.16602 -42 8.49902s-31.333 -2.66699 -48 -9s-33.834 -16.5 -51.501 -30.5s-35.5 -32.667 -53.5 -56c-21.333 -28.667 -43.666 -61.834 -66.999 -99.501l-72 -120l-76.5 -131c-26.333 -45 -53.333 -88.5 -81 -130.5s-56.167 -81.833 -85.5 -119.5
s-59 -70.667 -89 -99s-60.667 -50.666 -92 -66.999s-63.333 -24.5 -96 -24.5s-57 7.33301 -73 22s-26 34.5 -30 59.5s-2.83301 54.167 3.5 87.5s15.666 69 27.999 107s26.833 77 43.5 117l50 117.5l46.5 109.5c14.333 34.667 25.666 65.334 33.999 92.001
s12.5 48.5 12.5 65.5s-6.33301 26.833 -19 29.5l-115.5 -218c-39 -73.333 -78.833 -144.166 -119.5 -212.499s-82.167 -132.166 -124.5 -191.499s-86 -111.166 -131 -155.499s-91.5 -79.166 -139.5 -104.499s-97.667 -38 -149 -38c-53.333 0 -95.5 11.167 -126.5 33.5
s-52.333 50.5 -64 84.5s-14.5 70.5 -8.5 109.5s18.833 75.5 38.5 109.5s45.334 62.167 77.001 84.5s67.5 33.5 107.5 33.5c19.333 0 33.833 -4.33301 43.5 -13s15.167 -19.5 16.5 -32.5s-0.833984 -27 -6.50098 -42s-14.167 -29 -25.5 -42s-25.333 -23.833 -42 -32.5
s-34.667 -13 -54 -13c-18 0 -31 6.33301 -39 19s-9.66699 28.667 -5 48c-17.333 -16.667 -31 -35.5 -41 -56.5s-16.5 -42.5 -19.5 -64.5s-2.33301 -43.667 2 -65s12 -40.166 23 -56.499s25.333 -29.5 43 -39.5s38.5 -15 62.5 -15c52.667 0 102.834 13.5 150.501 40.5
s93.667 63.667 138 110s87.5 101 129.5 164s83.167 130.333 123.5 202l120 223l120.5 228.5h189z" />
    <glyph glyph-name="O" unicode="O" horiz-adv-x="1186" 
d="M946 810c52.667 0 96.5039 -9.49609 131.504 -28.4961s62.167 -44.833 81.5 -77.5s31.333 -70.667 36 -114s3.16699 -89.5 -4.5 -138.5s-21.167 -99.167 -40.5 -150.5s-43.5 -101.5 -72.5 -150.5s-62.333 -95.167 -100 -138.5s-78.667 -81.333 -123 -114
s-91.5 -58.5 -141.5 -77.5s-101.667 -28.5 -155 -28.5c-57.333 0 -104.5 10.833 -141.5 32.5s-65.333 50.667 -85 87s-30.834 78.5 -33.501 126.5s1.66602 98.5 12.999 151.5s29 107 53 162s53.667 107.5 89 157.5c-27.333 -2 -55 -6.33301 -83 -13
s-54.833 -15.667 -80.5 -27s-48.834 -25.333 -69.501 -42s-37 -36 -49 -58c-12.667 -23.333 -20.334 -46 -23.001 -68s-1.16699 -42.5 4.5 -61.5s14.667 -35.833 27 -50.5s26.833 -26.334 43.5 -35.001l-40 -22c-13.333 1.33301 -28 6.66602 -44 15.999
s-31.667 21.666 -47 36.999s-29.5 32.833 -42.5 52.5s-23.167 40.5 -30.5 62.5s-10.833 44.667 -10.5 68s6.5 46 18.5 68c18 33.333 44.833 58.166 80.5 74.499s75.167 27.5 118.5 33.5s87.833 9 133.5 9h125.5c29.333 36.667 61.333 70.667 96 102s71.5 58.5 110.5 81.5
s79.833 41 122.5 54s86.667 19.5 132 19.5zM451.004 -106.996c26 -11.333 57.6631 -12.335 94.9961 -3.00195s77 26.833 119 52.5s84.667 58.334 128 98.001s84.333 84.167 123 133.5c24 31.333 46.333 63.333 67 96s39.334 65 56.001 97s30.834 63.167 42.501 93.5
s20.5 58.833 26.5 85.5c-23.333 -22 -54.166 -39.333 -92.499 -52s-80.333 -21.5 -126 -26.5s-92.667 -6.33301 -141 -4s-93.833 8.16602 -136.5 17.499l-21.5 -26.5l-20.5 -27.5c-40 -55.333 -73.5 -112 -100.5 -170s-46.167 -112.167 -57.5 -162.5
s-14.166 -93.666 -8.49902 -129.999s21.5 -60.166 47.5 -71.499zM657 531.002c36 -5.33301 72.499 -8.49902 109.499 -9.49902s72.667 0.166992 107 3.5s66.666 8.66602 96.999 15.999s56.333 16.5 78 27.5s38.5 23.5 50.5 37.5s17 29.667 15 47
c-4 18 -11.333 32.333 -22 43c-21.333 20.667 -48.666 31.5 -81.999 32.5s-69.666 -6.33301 -108.999 -22s-80 -38.667 -122 -69s-82.667 -65.833 -122 -106.5z" />
    <glyph glyph-name="P" unicode="P" horiz-adv-x="1165" 
d="M1130 754c-22.667 0 -44.5 -4.32715 -65.5 -12.9941s-41.5 -20.667 -61.5 -36c25.333 -11.333 48.5 -25.666 69.5 -42.999s38.833 -38 53.5 -62c19.333 -32.667 32 -66.167 38 -100.5s7.16699 -68.333 3.5 -102s-12 -66.334 -25 -98.001s-29 -61.334 -48 -89.001
s-40.5 -52.334 -64.5 -74.001s-49 -39.5 -75 -53.5c-28 -14.667 -57.167 -25.334 -87.5 -32.001s-60.833 -9.33398 -91.5 -8.00098s-61 7.16602 -91 17.499s-58 25.5 -84 45.5c-28.667 -44 -58 -85.667 -88 -125s-61.5 -73.666 -94.5 -102.999s-67.333 -52.5 -103 -69.5
s-73.167 -25.5 -112.5 -25.5c-56.667 0 -100.5 11.167 -131.5 33.5s-51.667 50.5 -62 84.5s-11.333 70.5 -3 109.5s23.833 75.5 46.5 109.5s51.167 62.167 85.5 84.5s72.166 33.5 113.499 33.5c19.333 0 33.833 -4.33301 43.5 -13s15.167 -19.5 16.5 -32.5s-1 -27 -7 -42
s-14.667 -29 -26 -42s-25.333 -23.833 -42 -32.5s-34.667 -13 -54 -13c-18.667 0 -31.667 6.33301 -39 19s-9 28.667 -5 48c-26 -25.333 -45.5 -54.5 -58.5 -87.5s-18.333 -64.333 -16 -94s12.833 -54.834 31.5 -75.501s46.334 -31 83.001 -31
c35.333 0 69.166 14.5 101.499 43.5s64.666 67.167 96.999 114.5s65 101 98 161l104.5 182.5c36.667 61.667 75.667 121.5 117 179.5s86.333 108.667 135 152c-41.333 -3.33301 -83.166 -10.666 -125.499 -21.999s-81.833 -25 -118.5 -41
c-35.333 -15.333 -65.833 -33 -91.5 -53s-47 -40.833 -64 -62.5s-29.667 -43.334 -38 -65.001s-12.833 -41.334 -13.5 -59.001s2.83301 -33 10.5 -46s18.834 -21.5 33.501 -25.5l-34 -42c-38 2.66699 -69.667 11.667 -95 27s-43.666 34.833 -54.999 58.5
s-15.666 50.167 -12.999 79.5s13.334 58.833 32.001 88.5s45.167 58.5 79.5 86.5s77.166 52.667 128.499 74c30 12.667 63 24 99 34s73.167 18 111.5 24s77.166 9.33301 116.499 10s77 -2 113 -8c34 21.333 69.167 38 105.5 50s75.166 18 116.499 18v-47zM1069 585.006
c-13.333 20.667 -29.333 37.3311 -48 49.998s-39.667 22.334 -63 29.001c-27.333 -28 -54.333 -61.167 -81 -99.5s-53 -79.166 -79 -122.499l-78.5 -135.5l-80.5 -138.5c36 -12.667 75.333 -15.5 118 -8.5s84.667 20.833 126 41.5c36 18 70.167 41.5 102.5 70.5
s58.333 60.667 78 95s31 70.333 34 108s-6.5 74.5 -28.5 110.5z" />
    <glyph glyph-name="Q" unicode="Q" horiz-adv-x="1160" 
d="M1002 811c61.333 0 109.169 -13.001 143.502 -39.001s57.333 -60.333 69 -103s12.834 -91.167 3.50098 -145.5s-27 -110 -53 -167s-59.167 -112.667 -99.5 -167s-85.833 -102.833 -136.5 -145.5s-105.5 -77 -164.5 -103s-119.833 -39 -182.5 -39
c-52.667 0 -95.834 9.33301 -129.501 28s-58.834 43.667 -75.501 75s-25.334 67.833 -26.001 109.5s5.16602 85.834 17.499 132.501s30.666 94 54.999 142s53.5 94.333 87.5 139c-95.333 -9.33301 -183.666 -53 -264.999 -131c-19.333 -18 -33.166 -37.167 -41.499 -57.5
s-12.333 -39.833 -12 -58.5s4.83301 -35.667 13.5 -51s20.334 -27 35.001 -35l-41 -20c-12.667 1.33301 -26 6.5 -40 15.5s-27.167 20.5 -39.5 34.5s-23.5 30.333 -33.5 49s-16.833 38.334 -20.5 59.001s-3.66699 42 0 64s12.5 43.333 26.5 64
c21.333 32 50.333 55.5 87 70.5s76.167 25.333 118.5 31s85.166 8.16699 128.499 7.5s82.666 -0.666992 117.999 0c30 34 62.333 65.833 97 95.5s71.334 55.167 110.001 76.5s79 38.166 121 50.499s85 18.5 129 18.5zM493.003 -4.00098
c46.667 -21.333 103.001 -13 169.001 25s141.667 103.667 227 197c26.667 29.333 51.834 59.166 75.501 89.499s45.167 60.333 64.5 90s36.666 58.5 51.999 86.5s27.666 54.333 36.999 79c-22.667 -19.333 -51 -34.5 -85 -45.5s-70.833 -18.667 -110.5 -23
s-80.834 -5.66602 -123.501 -3.99902s-84 5.83398 -124 12.501l-33 -34.5l-32 -35.5c-44 -51.333 -79.167 -101 -105.5 -149s-44.166 -91.5 -53.499 -130.5s-10.333 -72.333 -3 -100s22.333 -46.834 45 -57.501zM1028 -97.001
c-5.33301 -34.667 -15.9951 -66.332 -31.9951 -94.999c-6.66699 -12 -15 -24.167 -25 -36.5s-21.667 -23.833 -35 -34.5s-29 -20 -47 -28s-38.333 -13.667 -61 -17c-28.667 -4.66699 -60.5 -2.5 -95.5 6.5s-71.667 21.167 -110 36.5s-77.5 32.333 -117.5 51
s-79.167 35.667 -117.5 51s-75.333 27.333 -111 36s-68.167 10.667 -97.5 6c-28 -4.66699 -51.833 -13.334 -71.5 -26.001s-34.834 -27 -45.501 -43s-17.167 -32.667 -19.5 -50s-0.333008 -32.666 6 -45.999s16.5 -23.666 30.5 -30.999s32 -9.33301 54 -6
c2.66699 0 4.66699 0.666992 6 2l2 2c-18 0 -29.667 7.16699 -35 21.5s-4.33301 31.5 3 51.5c9.33301 23.333 21.666 41.166 36.999 53.499s32 18.5 50 18.5c10.667 0 19.667 -2.66699 27 -8c13.333 -9.33301 21.5 -21.666 24.5 -36.999s1.83301 -31.166 -3.5 -47.499
s-14 -32 -26 -47s-26.333 -27.167 -43 -36.5s-35.167 -14.666 -55.5 -15.999s-40.833 3.66699 -61.5 15c-18 9.33301 -31.667 22 -41 38s-14.333 33.5 -15 52.5s2.5 38.333 9.5 58s18.167 38 33.5 55s34.666 31.5 57.999 43.5s50.333 19.667 81 23
c27.333 3.33301 56.333 2.16602 87 -3.50098s63 -13.334 97 -23.001s69.333 -20.334 106 -32.001s74.5 -21.834 113.5 -30.501s79.167 -14.5 120.5 -17.5s83.666 -1.16699 126.999 5.5c22 3.33301 42 9.5 60 18.5s33.5 18.833 46.5 29.5s23.667 21.667 32 33
s14.166 21 17.499 29zM719.009 546.001c47.333 -6 95.5 -7.66992 144.5 -5.00293s93.5 9 133.5 19s73 23.333 99 40s40 36.334 42 59.001c0 18.667 -4.66699 33.667 -14 45c-17.333 19.333 -40.5 29 -69.5 29s-61.5 -7.66699 -97.5 -23s-74.5 -37.166 -115.5 -65.499
s-81.833 -61.166 -122.5 -98.499z" />
    <glyph glyph-name="R" unicode="R" horiz-adv-x="1122" 
d="M1131 714c-24 0 -47.3359 -5.16406 -70.0029 -15.4971s-44.667 -24.166 -66 -41.499c28.667 -11.333 53.167 -25.833 73.5 -43.5s34.166 -39.167 41.499 -64.5c6.66699 -23.333 8 -46.5 4 -69.5s-12.167 -45.167 -24.5 -66.5s-28 -41.666 -47 -60.999
s-39.833 -37 -62.5 -53c16.667 -22.667 28.167 -48.834 34.5 -78.501s10 -60.167 11 -91.5s0.666992 -62.333 -1 -93s-2 -58.167 -1 -82.5s4.66699 -43.833 11 -58.5s17.833 -22 34.5 -22c6.66699 0 14.667 1.66699 24 5s18.833 8.5 28.5 15.5s19 15.5 28 25.5
s16.833 21.667 23.5 35l22 -37c-8.66699 -20.667 -20 -41.334 -34 -62.001s-29.667 -39.334 -47 -56.001s-36 -30.167 -56 -40.5s-40.333 -15.5 -61 -15.5c-36 0 -63.167 6.33301 -81.5 19s-30.666 29.667 -36.999 51s-8 46 -5 74s8.16699 57 15.5 87s15.5 60.167 24.5 90.5
s16.167 58.5 21.5 84.5s7.5 49 6.5 69s-7.83301 35 -20.5 45c-21.333 -11.333 -42.833 -20.666 -64.5 -27.999s-42.167 -12.333 -61.5 -15s-36.833 -2.66699 -52.5 0s-28.5 8.66699 -38.5 18l-109 -181c-37.333 -59.333 -76.333 -112.333 -117 -159
s-83.667 -84.167 -129 -112.5s-94 -42.5 -146 -42.5c-56.667 0 -100.5 11.167 -131.5 33.5s-51.667 50.5 -62 84.5s-11.166 70.5 -2.49902 109.5s24.167 75.5 46.5 109.5s50.666 62.167 84.999 84.5s72.166 33.5 113.499 33.5c19.333 0 33.833 -4.33301 43.5 -13
s15.167 -19.5 16.5 -32.5s-0.833984 -27 -6.50098 -42s-14.334 -29 -26.001 -42s-25.667 -23.833 -42 -32.5s-34.166 -13 -53.499 -13c-18 0 -31 6.33301 -39 19s-10 28.667 -6 48c-26 -25.333 -45.5 -54.5 -58.5 -87.5s-18.333 -64.333 -16 -94
s12.833 -54.834 31.5 -75.501s46.334 -31 83.001 -31c34.667 0 68 14 100 42s63.833 64.667 95.5 110s63.667 97 96 155l102 178c35.667 60.667 73.334 119.667 113.001 177s82.834 108.333 129.501 153c-49.333 -7.33301 -101.333 -22.333 -156 -45
c-34.667 -15.333 -65 -33.166 -91 -53.499s-47.5 -41.333 -64.5 -63s-29.667 -43.167 -38 -64.5s-12.666 -41 -12.999 -59s3.33398 -33.333 11.001 -46s18.834 -21 33.501 -25l-35 -42c-38 2.66699 -69.667 11.667 -95 27s-43.833 34.666 -55.5 57.999
s-16 49.666 -13 78.999s13.667 59 32 89s44.666 59 78.999 87s77.5 52.667 129.5 74c26.667 11.333 55 20.833 85 28.5s60.167 13.667 90.5 18s60.5 6.66602 90.5 6.99902s59 -1.16699 87 -4.5c36 24.667 73.667 44 113 58s81.333 21 126 21v-47zM886.997 359.003
c10 -2.66699 19.501 -5.83105 28.501 -9.49805s17.167 -7.83398 24.5 -12.501c16 8 32 19.833 48 35.5s29.667 32.667 41 51s19.833 36.666 25.5 54.999s6.5 34.5 2.5 48.5c-6.66699 21.333 -19.167 39.5 -37.5 54.5s-41.5 25.833 -69.5 32.5
c-31.333 -34 -61.833 -73.5 -91.5 -118.5s-59.5 -93.167 -89.5 -144.5c15.333 6.66699 33.166 11 53.499 13s41.833 0.333008 64.5 -5z" />
    <glyph glyph-name="S" unicode="S" horiz-adv-x="995" 
d="M383 -193c38.667 -5.33301 75.167 -3.66895 109.5 4.99805s65 23 92 43s49.667 45 68 75s30.833 63.833 37.5 101.5s6.83398 78.167 0.500977 121.5s-20.5 88.666 -42.5 135.999c-19.333 41.333 -31.333 81.333 -36 120s-2.33398 75.334 6.99902 110.001
c-38 6.66699 -76.5 10.834 -115.5 12.501s-77 -0.333008 -114 -6s-72 -15.5 -105 -29.5s-62.167 -33 -87.5 -57c-21.333 -20.667 -36.166 -43.167 -44.499 -67.5s-11.5 -47.833 -9.5 -70.5s8.33301 -43.167 19 -61.5s24.334 -32.166 41.001 -41.499l-45 -22
c-14 1.33301 -29 7 -45 17s-31.333 23.167 -46 39.5s-27.5 35 -38.5 56s-18.667 43.167 -23 66.5s-4.33301 47.166 0 71.499s14.833 48.166 31.5 71.499c21.333 29.333 47.5 51.166 78.5 65.499s64.5 23.833 100.5 28.5s73.333 5.83398 112 3.50098
s76.667 -5.83301 114 -10.5l106 -13.5c33.333 -4.33301 62.666 -5.83301 87.999 -4.5c13.333 30 31.5 57.5 54.5 82.5s49.5 46.333 79.5 64s63.333 31.334 100 41.001s75.334 14.5 116.001 14.5c44 0 80.667 -8.33301 110 -25s51.166 -37.667 65.499 -63
s21.166 -53.166 20.499 -83.499s-8.5 -59.166 -23.5 -86.499s-37.333 -51.5 -67 -72.5s-66.167 -34.5 -109.5 -40.5c-40.667 -6 -73.5 -4 -98.5 6s-42.5 24 -52.5 42s-12.333 38.667 -7 62s18.333 45.666 39 66.999l-29 -9
c-9.33301 -3.33301 -19.666 -6.83301 -30.999 -10.5s-23.333 -7.16699 -36 -10.5c-6.66699 -30.667 -7.16699 -64.334 -1.5 -101.001s19.5 -76 41.5 -118c28 -53.333 44.833 -106 50.5 -158s2 -100.667 -11 -146s-34 -86.666 -63 -123.999s-64.333 -68.333 -106 -93
s-88.334 -41.834 -140.001 -51.501s-106.167 -9.83398 -163.5 -0.500977c-60 9.33301 -106.5 27.833 -139.5 55.5s-54.833 59.334 -65.5 95.001s-11.5 73 -2.5 112s25.333 74.833 49 107.5s53.667 59.5 90 80.5s76.5 31.5 120.5 31.5c20 0 35.167 -4.5 45.5 -13.5
s16.166 -20.5 17.499 -34.5s-1 -28.833 -7 -44.5s-15.167 -30.5 -27.5 -44.5s-27.166 -25.5 -44.499 -34.5s-36.333 -13.5 -57 -13.5c-19.333 0 -33 6.66699 -41 20s-10 30.333 -6 51c-22 -12 -39.667 -27.333 -53 -46s-22.333 -39 -27 -61s-5.16699 -44.167 -1.5 -66.5
s12 -43.166 25 -62.499s30.5 -36 52.5 -50s49 -23.333 81 -28zM975 722.997c-18 0 -36.1699 -2.83008 -54.5029 -8.49707s-36 -13.834 -53 -24.501s-32.667 -23.834 -47 -39.501s-26.166 -33.5 -35.499 -53.5c28.667 8.66699 55.334 17.834 80.001 27.501
s45.667 18.5 63 26.5c20.667 9.33301 39.334 18.666 56.001 27.999l17 -44c-18 -2 -35.167 -8.5 -51.5 -19.5s-30.166 -24 -41.499 -39s-19.5 -30.667 -24.5 -47s-5.66699 -31.166 -2 -44.499s12.5 -23.5 26.5 -30.5s34.667 -8.83301 62 -5.5c32 4 59.167 13.667 81.5 29
s39.166 33.166 50.499 53.499s17.5 41.666 18.5 63.999s-3.66699 43 -14 62s-26.5 34.667 -48.5 47s-49.667 18.5 -83 18.5z" />
    <glyph glyph-name="T" unicode="T" horiz-adv-x="836" 
d="M1318 747c-5.33301 -36.667 -16.667 -70.3359 -34 -101.003c-7.33301 -13.333 -16.333 -26.5 -27 -39.5s-23.167 -25 -37.5 -36s-31.166 -20.667 -50.499 -29s-41 -14.5 -65 -18.5c-31.333 -5.33301 -65.833 -3.33301 -103.5 6s-77.5 22.666 -119.5 39.999
c-21.333 -20 -42.5 -47.667 -63.5 -83s-42.5 -75 -64.5 -119l-68.5 -140c-23.667 -49.333 -48.5 -98.166 -74.5 -146.499s-53.667 -94.666 -83 -138.999s-60.666 -83.5 -93.999 -117.5s-69 -61 -107 -81s-78.667 -30 -122 -30c-56.667 0 -100.667 11.167 -132 33.5
s-52.166 50.5 -62.499 84.5s-11.333 70.5 -3 109.5s23.833 75.5 46.5 109.5s51.167 62.167 85.5 84.5s72.166 33.5 113.499 33.5c19.333 0 33.666 -4.33301 42.999 -13s14.833 -19.5 16.5 -32.5s-0.333008 -27 -6 -42s-14.334 -29 -26.001 -42s-25.667 -23.833 -42 -32.5
s-34.166 -13 -53.499 -13c-18.667 0 -31.667 6.33301 -39 19s-9 28.667 -5 48c-26.667 -25.333 -46.5 -54.5 -59.5 -87.5s-18.333 -64.333 -16 -94s12.833 -54.834 31.5 -75.501s46 -31 82 -31c32.667 0 62.5 10 89.5 30s52.333 46.833 76 80.5s46.5 72.334 68.5 116.001
l66.5 136l69 142c23.667 47.667 49.334 92.334 77.001 134.001s57.667 78.5 90 110.5s68.5 56 108.5 72l-111 50c-37.333 17.333 -73.666 32.5 -108.999 45.5s-69.333 22.833 -102 29.5s-62.667 8 -90 4c-30 -4.66699 -55.333 -13.834 -76 -27.501
s-36.667 -29.167 -48 -46.5s-18.166 -35.166 -20.499 -53.499s-0.333008 -34.666 6 -48.999s17.166 -25.5 32.499 -33.5s34.666 -10 57.999 -6c2 0 4 1 6 3l2 2c-19.333 0 -31.833 7.66699 -37.5 23s-4.16699 33.666 4.5 54.999c9.33301 24 22.166 42.833 38.499 56.5
s34.5 20.5 54.5 20.5c5.33301 0 10.333 -0.833008 15 -2.5s8.66699 -3.83398 12 -6.50098c14 -10 22.667 -23 26 -39s2.16602 -32.833 -3.50098 -50.5s-14.834 -34.5 -27.501 -50.5s-28 -29 -46 -39s-37.667 -15.667 -59 -17s-43 4 -65 16
c-19.333 10 -33.833 23.667 -43.5 41s-15 36 -16 56s2.33301 40.5 10 61.5s19.667 40.5 36 58.5s36.833 33.333 61.5 46s53.334 21 86.001 25c28.667 3.33301 59.5 2 92.5 -4s67.5 -14.333 103.5 -25l113 -34c39.333 -12 79.833 -22.667 121.5 -32
s84.667 -15.666 129 -18.999s89.5 -1.33301 135.5 6c23.333 4 44.5 10.5 63.5 19.5s35.5 19.333 49.5 31s25.5 23.334 34.5 35.001s15.167 22.167 18.5 31.5z" />
    <glyph glyph-name="U" unicode="U" horiz-adv-x="1008" 
d="M1224 731l-122.006 -201.995l-52 -86l-52.5 -85.5l-48.5 -79l-41 -65.5l-45.5 -71l-42 -66.5c-13 -21 -24 -40.667 -33 -59s-14.833 -33.833 -17.5 -46.5c-2.66699 -12 -0.5 -21.333 6.5 -28s15.167 -10 24.5 -10c7.33301 0 15.5 1.66699 24.5 5s18 8.33301 27 15
s17.667 15.167 26 25.5s15.5 22.166 21.5 35.499l24 -37c-7.33301 -20.667 -17 -40.167 -29 -58.5s-26 -34.166 -42 -47.499s-33.667 -24 -53 -32s-39.333 -12 -60 -12c-23.333 0 -44 3 -62 9s-32.333 15.5 -43 28.5s-17.167 29.5 -19.5 49.5s0.166992 44 7.5 72
c-40 -50 -78.833 -93.5 -116.5 -130.5s-73.5 -68.167 -107.5 -93.5c-34 -24.667 -69.5 -42.167 -106.5 -52.5s-70.667 -12.166 -101 -5.49902s-55 22.5 -74 47.5s-27.5 60.667 -25.5 107s16.667 104.166 44 173.499s72.333 151.666 135 246.999c34 52 72 103.667 114 155
s86 98 132 140c-30 -4 -61.667 -9.33301 -95 -16s-65.833 -15.667 -97.5 -27s-60.5 -25.666 -86.5 -42.999s-46.333 -38.333 -61 -63c-14.667 -24 -23.334 -47.167 -26.001 -69.5s-1.16699 -42.833 4.5 -61.5s14.834 -34.834 27.501 -48.501s27.667 -23.834 45 -30.501
l-29 -30c-31.333 2 -60.833 11.333 -88.5 28s-50.5 38.334 -68.5 65.001s-29 56.667 -33 90s2.66699 67.666 20 102.999c14 28.667 33.833 52 59.5 70s54.667 32.167 87 42.5s66.833 17.666 103.5 21.999s72.834 7.33301 108.501 9s69.834 2.83398 102.501 3.50098
s61.334 2.66699 86.001 6c26.667 21.333 53.334 39.666 80.001 54.999s53 27.666 79 36.999c9.33301 3.33301 20 6.5 32 9.5s24 5 36 6s23.667 0.333008 35 -2s21 -7.16602 29 -14.499c10.667 -10.667 12.667 -23.167 6 -37.5s-20.667 -28.166 -42 -41.499
s-49 -24.833 -83 -34.5s-72.333 -14.834 -115 -15.501h-10c-41.333 -38 -81.166 -84.333 -119.499 -139s-75.166 -115 -110.499 -181c-31.333 -58.667 -57.666 -113.334 -78.999 -164.001s-36.333 -95.334 -45 -134.001s-10.334 -70.334 -5.00098 -95.001
s19 -40.334 41 -47.001c22 -6 47.5 -1.5 76.5 13.5s60.167 37.667 93.5 68s68 66.833 104 109.5s72.167 88.834 108.5 138.501s71.833 101.334 106.5 155.001l99 158.5l58.5 100.5l48.5 83.5l46 79h178z" />
    <glyph glyph-name="V" unicode="V" horiz-adv-x="944" 
d="M1039 723c18.667 16.667 40.835 29.1689 66.502 37.502s51.167 12.333 76.5 12s49.166 -5.5 71.499 -15.5s39.833 -24.667 52.5 -44l-11 -33c-25.333 9.33301 -53.833 7.33301 -85.5 -6s-65.5 -43 -101.5 -89l-179.5 -237.5l-156.5 -211.5
c-49.333 -65.333 -96.5 -124.833 -141.5 -178.5s-89.167 -100 -132.5 -139s-86.833 -69.5 -130.5 -91.5s-88.834 -34 -135.501 -36c-38 -2 -69.833 6.66699 -95.5 26s-39.5 51.5 -41.5 96.5s10.833 104 38.5 177s75.834 162.167 144.501 267.5c34 53.333 71.667 106 113 158
s84.666 100 129.999 144c-29.333 -5.33301 -60.333 -12 -93 -20s-64.334 -18.5 -95.001 -31.5s-59 -28.5 -85 -46.5s-46.333 -39.667 -61 -65c-14 -24 -22.5 -47 -25.5 -69s-1.83301 -42 3.5 -60s14.166 -33.333 26.499 -46s26.5 -22 42.5 -28l-28 -30
c-30 0 -58.667 7.5 -86 22.5s-49.5 35 -66.5 60s-27.333 53.833 -31 86.5s3.16602 66.667 20.499 102c14 28.667 33.667 52.167 59 70.5s53.666 33.333 84.999 45s64.666 20.5 99.999 26.5s70.5 10.667 105.5 14s68.333 6.16602 100 8.49902s59.834 5.5 84.501 9.5
c26.667 22 53.334 41.5 80.001 58.5s53 30.5 79 40.5c8.66699 4 18.667 7.66699 30 11s22.833 5.66602 34.5 6.99902s22.834 1.16602 33.501 -0.500977s19.667 -5.83398 27 -12.501c10.667 -10 12.667 -22.167 6 -36.5s-20.334 -28.5 -41.001 -42.5s-47.5 -26.5 -80.5 -37.5
s-70.5 -18.167 -112.5 -21.5h-6c-40 -40 -79.167 -87.5 -117.5 -142.5s-76.166 -115.167 -113.499 -180.5c-36 -62 -65.333 -120.667 -88 -176s-37.167 -103.666 -43.5 -144.999s-4.16602 -73.666 6.50098 -96.999s31.667 -34.333 63 -33
c27.333 1.33301 55.833 13.166 85.5 35.499s59.834 51.833 90.501 88.5s61.667 78.834 93 126.501l94 149.5l93 157l89.5 149.5c29 47 56.833 89.333 83.5 127s52 67.167 76 88.5z" />
    <glyph glyph-name="W" unicode="W" horiz-adv-x="1264" 
d="M1363 708c18.667 16 40.8369 27.668 66.5039 35.001s51.5 10 77.5 8s50.333 -8.5 73 -19.5s40.334 -26.5 53.001 -46.5l-10 -33c-26 10.667 -54.667 10.167 -86 -1.5s-64 -39.834 -98 -84.501l-174.5 -230.5l-152 -206c-47.667 -63.667 -93.334 -121.5 -137.001 -173.5
s-86.834 -96.5 -129.501 -133.5s-85.667 -65.5 -129 -85.5s-88.666 -30 -135.999 -30c-36 0 -65.167 9.33301 -87.5 28s-34.166 48.334 -35.499 89.001c-40 -37.333 -78.5 -66.166 -115.5 -86.499s-71.5 -30.5 -103.5 -30.5c-38.667 0 -71.334 10.333 -98.001 31
s-41.834 53.834 -45.501 99.501s7.16602 104.5 32.499 176.5s70.666 159.667 135.999 263c32.667 51.333 69 102.166 109 152.499s82.333 96.5 127 138.5c-29.333 -4 -60.5 -9.16699 -93.5 -15.5s-64.833 -15.166 -95.5 -26.499s-58.667 -25.5 -84 -42.5
s-45 -37.833 -59 -62.5c-13.333 -23.333 -21.166 -46 -23.499 -68s-0.5 -42.167 5.5 -60.5s15.333 -34.333 28 -48s27.667 -23.834 45 -30.501l-28 -29c-30.667 2 -60 11.333 -88 28s-51 38 -69 64s-29.167 55.333 -33.5 88s1.5 66.334 17.5 101.001
c13.333 28 32.333 50.833 57 68.5s52.667 31.667 84 42s64.833 17.666 100.5 21.999s71.167 7.33301 106.5 9s69 2.83398 101 3.50098s60.333 2.66699 85 6c26 20.667 52 38.667 78 54s52 27.666 78 36.999c8.66699 3.33301 18.834 6.5 30.501 9.5
s23.334 4.83301 35.001 5.5s23 -0.166016 34 -2.49902s20.5 -6.83301 28.5 -13.5c11.333 -10.667 13.666 -23 6.99902 -37s-20.334 -27.5 -41.001 -40.5s-47.5 -24.333 -80.5 -34s-70.5 -14.834 -112.5 -15.501h-5c-40 -38 -78.333 -83.833 -115 -137.5
s-73 -112.834 -109 -177.501c-34 -61.333 -62 -116.5 -84 -165.5s-36.167 -91.5 -42.5 -127.5s-4.16602 -64.833 6.50098 -86.5s31.667 -35.834 63 -42.501c21.333 -4.66699 44.166 -0.166992 68.499 13.5s49.166 33.167 74.499 58.5c11.333 44 31.166 95.833 59.499 155.5
s67.5 128.5 117.5 206.5l23 34.5l31.5 47.5l36.5 54.5l38 56.5l94 139h176l-221 -332.5c-72 -105.667 -142 -199.834 -210 -282.501c-13.333 -54.667 -15 -98.334 -5 -131.001s33.667 -49 71 -49c28 0 56.5 10.5 85.5 31.5s58.5 49.333 88.5 85s60 76.667 90 123l90 145.5
l88.5 153.5l85 146c27.667 45.667 54.5 86.834 80.5 123.501s50.667 65.334 74 86.001z" />
    <glyph glyph-name="X" unicode="X" horiz-adv-x="1253" 
d="M1715 684c-65.333 0 -129.657 -13.8271 -192.99 -41.4941s-126 -64 -188 -109s-123.667 -96.333 -185 -154l-183 -177.5c3.33301 -38 9.66602 -73.333 18.999 -106s21.5 -61.334 36.5 -86.001s33 -44 54 -58s45.5 -21 73.5 -21c6.66699 0 14.667 1.66699 24 5
s18.833 8.5 28.5 15.5s19 15.667 28 26s16.833 22.166 23.5 35.499l22 -37c-8.66699 -20.667 -19.667 -40.167 -33 -58.5s-28.5 -34.333 -45.5 -48s-35.167 -24.5 -54.5 -32.5s-39.333 -12 -60 -12c-38 0 -71.5 6 -100.5 18s-54 28.667 -75 50s-38.167 46.666 -51.5 75.999
s-23 61.666 -29 96.999c-50 -48 -100.5 -93.333 -151.5 -136s-102.333 -80 -154 -112s-103.834 -57.5 -156.501 -76.5s-106.334 -28.5 -161.001 -28.5c-56.667 0 -100.5 11.167 -131.5 33.5s-51.667 50.5 -62 84.5s-11.166 70.5 -2.49902 109.5s24.334 75.5 47.001 109.5
s51.167 62.167 85.5 84.5s72.166 33.5 113.499 33.5c19.333 0 33.666 -4.33301 42.999 -13s14.833 -19.5 16.5 -32.5s-0.5 -27 -6.5 -42s-14.833 -29 -26.5 -42s-25.667 -23.833 -42 -32.5s-34.5 -13 -54.5 -13c-18 0 -30.667 6.33301 -38 19s-9 28.667 -5 48
c-26 -25.333 -45.5 -54.5 -58.5 -87.5s-18.333 -64.333 -16 -94s12.666 -54.834 30.999 -75.501s45.833 -31 82.5 -31c46 0 93.5 14.5 142.5 43.5s100.167 67 153.5 114s109.166 100.333 167.499 160l183.5 181.5c8.66699 62 24.167 124.5 46.5 187.5s50.5 123.5 84.5 181.5
l-98.5 -42c-36.333 -16 -71.5 -34.5 -105.5 -55.5s-64.333 -44.333 -91 -70s-45 -53.834 -55 -84.501c-8.66699 -27.333 -12 -52.333 -10 -75s7.66699 -42.334 17 -59.001s21.666 -30 36.999 -40s31.666 -16 48.999 -18l-21 -39c-30 -6 -60.333 -4.33301 -91 5
s-57.334 24.666 -80.001 45.999s-39.334 47.833 -50.001 79.5s-11.334 67.167 -2.00098 106.5c8 34 23.667 63.667 47 89s50.833 47.5 82.5 66.5s66.167 35.5 103.5 49.5s73.833 26.833 109.5 38.5l100.5 32.5c31.333 10 57.333 20.667 78 32
c3.33301 1.33301 7.33301 3.66602 12 6.99902l14 10c5.33301 3.33301 10.666 7.33301 15.999 12l69 -1c-15.333 -19.333 -29.5 -41.166 -42.5 -65.499s-24.5 -50.666 -34.5 -78.999s-18.5 -58.166 -25.5 -89.499s-12.5 -63 -16.5 -95c52.667 45.333 107.667 88 165 128
s117 75 179 105s126.333 53.667 193 71s136.334 26 209.001 26v-47z" />
    <glyph glyph-name="Y" unicode="Y" horiz-adv-x="894" 
d="M1211 684c-40.667 0 -79.499 -13.8301 -116.499 -41.4971s-73.167 -64.334 -108.5 -110.001s-70 -97.5 -104 -155.5l-103.5 -178.5l-107.5 -178.5c-36.667 -58 -75.167 -109.833 -115.5 -155.5s-82.833 -82.334 -127.5 -110.001s-92.667 -41.5 -144 -41.5
c-54 0 -96.5 10.333 -127.5 31s-52.333 46.667 -64 78s-14.5 65.666 -8.5 102.999s18.667 72.833 38 106.5s44.333 62.834 75 87.501s65 40 103 46c-18 26.667 -28.333 59 -31 97s2.83301 78.333 16.5 121s36 86 67 130s71.5 86 121.5 126c-28 -2 -56.667 -4.66699 -86 -8
s-57.5 -9 -84.5 -17s-52 -19 -75 -33s-41.833 -32.333 -56.5 -55c-16 -23.333 -26 -46.166 -30 -68.499s-3.83301 -42.833 0.5 -61.5s12.5 -34.834 24.5 -48.501s26.333 -23.834 43 -30.501l-30 -32c-31.333 2 -60.5 11.5 -87.5 28.5s-48.5 38.833 -64.5 65.5
s-24.833 56.667 -26.5 90s7.16602 67.666 26.499 102.999c14.667 26.667 33.834 48 57.501 64s50.167 28.167 79.5 36.5s60.5 13.666 93.5 15.999s66.167 3.16602 99.5 2.49902s65.666 -1.66699 96.999 -3s60 -1.66602 86 -0.999023c28 18 58 34.833 90 50.5
s67 30.167 105 43.5c10 3.33301 21 6.5 33 9.5s24 5 36 6s23.5 0.166992 34.5 -2.5s20.167 -7.66699 27.5 -15c10.667 -10 12 -22.167 4 -36.5s-23 -28.166 -45 -41.499s-50.333 -24.833 -85 -34.5s-73.334 -14.834 -116.001 -15.501h-11
c-26.667 -24 -51.5 -50.5 -74.5 -79.5s-43 -58.167 -60 -87.5s-30.167 -58 -39.5 -86s-13.833 -53.167 -13.5 -75.5s6 -40.833 17 -55.5s28.5 -23.667 52.5 -27c25.333 -3.33301 49.666 -0.666016 72.999 8.00098s44.833 20.334 64.5 35.001s37.334 30.5 53.001 47.5
s28.5 32.167 38.5 45.5c31.333 48 64.5 93.5 99.5 136.5s72.333 80.667 112 113s82.334 58 128.001 77s94.5 28.5 146.5 28.5v-47zM259.001 -227.997c31.333 0 61.668 11.834 91.001 35.501s58.5 55 87.5 94s58.167 84 87.5 135l91 159.5
c-36 -28 -72.5 -50.167 -109.5 -66.5s-75.167 -25.166 -114.5 -26.499c-2 -12.667 -6.5 -25.5 -13.5 -38.5s-16.167 -24.833 -27.5 -35.5s-24.333 -19.334 -39 -26.001s-30.667 -10 -48 -10c-18.667 0 -31.667 6.33301 -39 19s-9 28.667 -5 48
c-26 -25.333 -45.5 -54.5 -58.5 -87.5s-18.333 -64.333 -16 -94s12.666 -54.834 30.999 -75.501s45.833 -31 82.5 -31z" />
    <glyph glyph-name="Z" unicode="Z" horiz-adv-x="1036" 
d="M1294 644c-34.667 -20.667 -72.168 -48.0078 -112.501 -82.0078s-82.5 -71.667 -126.5 -113l-137 -131l-145.5 -137c-49.667 -45.333 -100 -88.833 -151 -130.5s-102.167 -78.5 -153.5 -110.5c26.667 -12 55.167 -23.833 85.5 -35.5s61.666 -22 93.999 -31
s65.5 -16.167 99.5 -21.5s68.667 -8 104 -8c24 0 46 3.16699 66 9.5s37.833 14 53.5 23s28.834 18.667 39.501 29s18.667 19.5 24 27.5l34 -33c-11.333 -35.333 -28 -66.666 -50 -93.999c-9.33301 -12 -20.166 -23.5 -32.499 -34.5s-26.666 -20.833 -42.999 -29.5
s-34.5 -15.667 -54.5 -21s-42.333 -8 -67 -8c-29.333 0 -61 5.83301 -95 17.5s-69 26.834 -105 45.501s-72.167 39.167 -108.5 61.5l-106.5 65.5c-44 -24 -87.833 -43 -131.5 -57s-87.5 -21 -131.5 -21c-32.667 0 -59.834 5.5 -81.501 16.5s-37.334 24.833 -47.001 41.5
s-13.834 34.5 -12.501 53.5s8.5 36.833 21.5 53.5s31.5 30.5 55.5 41.5s53.667 16.5 89 16.5c25.333 0 52 -4.5 80 -13.5s57.667 -20.167 89 -33.5c37.333 32 76.833 67.833 118.5 107.5l131 124l141.5 130c48.667 43.667 98.5 85.334 149.5 125.001s103 76 156 109
s106.5 60.5 160.5 82.5c-31.333 4 -63.833 0.833008 -97.5 -9.5s-68.167 -24 -103.5 -41s-71.666 -35.5 -108.999 -55.5s-74.833 -38.167 -112.5 -54.5s-75.5 -28.666 -113.5 -36.999s-76 -9.16602 -114 -2.49902c-24 4 -44.5 10.833 -61.5 20.5s-31 21 -42 34
s-19.667 27.167 -26 42.5s-10.833 30.666 -13.5 45.999c-6.66699 36 -5.66699 75.333 3 118l38 27c4 -8.66699 10.5 -19 19.5 -31s20.5 -23.667 34.5 -35s30.5 -21.666 49.5 -30.999s40.167 -16 63.5 -20c46 -7.33301 88.333 -10.166 127 -8.49902
s74.834 5.83398 108.501 12.501s65.334 14.5 95.001 23.5s58.5 17.333 86.5 25s55.667 13.5 83 17.5s55.666 4.33301 84.999 1c30.667 -3.33301 57.667 -10.666 81 -21.999s43 -25 59 -41zM112.999 -124.008c25.333 0 52.999 8 82.999 24s63 38 99 66
c-25.333 12 -49.666 21.667 -72.999 29s-45.333 11 -66 11c-33.333 0 -58.5 -6.83301 -75.5 -20.5s-27 -28.5 -30 -44.5s0.833008 -30.833 11.5 -44.5s27.667 -20.5 51 -20.5z" />
    <glyph glyph-name="bracketleft" unicode="[" horiz-adv-x="409" 
d="M588 683l-29 -69h-176l-257 -730h180l-29 -69h-249l305 868h255z" />
    <glyph glyph-name="backslash" unicode="\" horiz-adv-x="395" 
d="M143 548l175 -622h-74l-176 622h75z" />
    <glyph glyph-name="bracketright" unicode="]" horiz-adv-x="409" 
d="M-112 -185l29 69h176l257 730h-180l29 69h249l-305 -868h-255z" />
    <glyph glyph-name="asciicircum" unicode="^" horiz-adv-x="443" 
d="M470 598l26 -144l-120 -1l6 105l-176 -117l-36 49l203 108h97z" />
    <glyph glyph-name="underscore" unicode="_" 
d="M29 13h282l-29 -69h-282z" />
    <glyph glyph-name="grave" unicode="`" 
d="M324 431l-220 96l61 106l179 -163z" />
    <glyph glyph-name="a" unicode="a" 
d="M258 390c26 0 45.6641 -9.33301 58.9971 -28c2 4.66699 3.5 8.83398 4.5 12.501s2.16699 6.16699 3.5 7.5h110c-2 -6 -6 -16.333 -12 -31l-21 -50.5l-25 -60l-24.5 -59.5l-20 -48.5c-5.66699 -13.667 -9.16699 -22.5 -10.5 -26.5
c-5.33301 -12.667 -4.66602 -21.667 2.00098 -27s15.667 -7 27 -5s23.833 8 37.5 18s24.834 24 33.501 42l17 -28c-6.66699 -16 -15.834 -30.833 -27.501 -44.5s-24.667 -25.5 -39 -35.5s-29.666 -18 -45.999 -24s-32.5 -9 -48.5 -9c-20.667 0 -37.5 4.33301 -50.5 13
s-21.167 21.667 -24.5 39c-19.333 -16 -38.833 -28.667 -58.5 -38s-38.5 -14 -56.5 -14c-22.667 0 -41.167 5.16699 -55.5 15.5s-24.5 24.5 -30.5 42.5s-7.83301 39.167 -5.5 63.5s9.5 50.166 21.5 77.499c28.667 68 64.334 118 107.001 150s87 48 133 48zM299.997 323
c-6 9.33301 -15.6641 13.999 -28.9971 13.999c-12.667 0 -24.5 -2.5 -35.5 -7.5s-22 -13 -33 -24s-22.167 -25.5 -33.5 -43.5s-23.333 -40 -36 -66c-10 -19.333 -17.833 -37.5 -23.5 -54.5s-8.83398 -31.833 -9.50098 -44.5s1.5 -22.667 6.5 -30s13.167 -11 24.5 -11
s23.666 3.33301 36.999 10s26.666 16 39.999 28c2 8.66699 5 17.334 9 26.001z" />
    <glyph glyph-name="b" unicode="b" horiz-adv-x="391" 
d="M-55 0l91.0039 223.003l33.5 82.5l30 72.5l21.5 52c5.33301 13.333 8.33301 20.666 9 21.999c6 13.333 7 24.166 3 32.499s-13.667 12.5 -29 12.5h-10l21 43c5.33301 0.666992 11 1.66699 17 3c5.33301 1.33301 11 2.33301 17 3s12.667 1 20 1
c38 0 61.667 -10.333 71 -31s4.66602 -53.334 -14.001 -98.001l-25 -60c15.333 10 30.666 17.833 45.999 23.5s30 8.5 44 8.5c22.667 0 41.167 -5.16699 55.5 -15.5s24.5 -24.5 30.5 -42.5s7.83301 -39 5.5 -63s-9.5 -49.667 -21.5 -77
c-28.667 -68 -64.334 -118.167 -107.001 -150.5s-86.667 -48.5 -132 -48.5c-25.333 0 -45.333 9 -60 27c-3.33301 -7.33301 -5.33301 -12.333 -6 -15c-0.666992 -2 -1.33398 -3.66699 -2.00098 -5h-109zM248.004 327.003c-11.333 0 -23.1689 -3.16699 -35.502 -9.5
s-25.166 -15.166 -38.499 -26.499l-24.5 -60l-25 -61.5l-24.5 -59l-21 -50.5c6 -8.66699 15.667 -13 29 -13c25.333 0 48.5 10.333 69.5 31s44.167 56.667 69.5 108c9.33301 19.333 16.833 37.666 22.5 54.999s8.83398 32.333 9.50098 45s-1.33301 22.667 -6 30
s-13 11 -25 11z" />
    <glyph glyph-name="c" unicode="c" horiz-adv-x="344" 
d="M361 106c-16.667 -35.333 -45.1582 -63 -85.4912 -83s-87.833 -30 -142.5 -30c-28 0 -51.833 5.16699 -71.5 15.5s-34.834 24.5 -45.501 42.5s-16.334 39.167 -17.001 63.5s4.33301 50.166 15 77.499c26 64.667 60 113.834 102 147.501s88.667 50.5 140 50.5
c21.333 0 38.333 -4.83301 51 -14.5s21.334 -22.167 26.001 -37.5s5.5 -32.5 2.5 -51.5s-9.16699 -37.5 -18.5 -55.5c-8.66699 -16.667 -17.667 -30.334 -27 -41.001s-18.333 -19.167 -27 -25.5s-16.834 -10.666 -24.501 -12.999s-13.834 -3.5 -18.501 -3.5
c-18.667 0 -30.834 7.33301 -36.501 22s-4.5 32.667 3.5 54c10 24.667 23.167 43.667 39.5 57s34.5 20 54.5 20h6.5c2.33301 0 4.16602 -0.333008 5.49902 -1c2 13.333 0.166992 24.333 -5.5 33s-15.167 13 -28.5 13s-26.333 -4.66699 -39 -14s-24.834 -21.333 -36.501 -36
s-22.334 -31.167 -32.001 -49.5s-17.834 -36.833 -24.501 -55.5c-18 -48 -20.667 -83.667 -8 -107s37 -35 73 -35c14 0 28.5 2.33301 43.5 7s29.333 10.834 43 18.501s26.167 16.667 37.5 27s20.666 21.166 27.999 32.499z" />
    <glyph glyph-name="d" unicode="d" 
d="M258 390c26 0 45.6709 -9.33008 59.0039 -27.9971l37 90c6 13.333 6.83301 24.166 2.5 32.499s-13.833 12.5 -28.5 12.5h-10l20 43c5.33301 0.666992 11 1.66699 17 3c5.33301 1.33301 11.166 2.33301 17.499 3s12.833 1 19.5 1c38 0 61.833 -10.333 71.5 -31
s5.16699 -53.334 -13.5 -98.001l-128 -312c-4.66699 -13.333 -3.83398 -22.666 2.49902 -27.999s15.333 -6.83301 27 -4.5s24.167 8.5 37.5 18.5s24.333 24 33 42l17 -28c-6.66699 -16 -15.834 -30.833 -27.501 -44.5s-24.667 -25.5 -39 -35.5s-29.666 -18 -45.999 -24
s-32.5 -9 -48.5 -9c-20.667 0 -37.334 4.16699 -50.001 12.5s-20.667 21.166 -24 38.499c-19.333 -16 -39 -28.5 -59 -37.5s-39 -13.5 -57 -13.5c-22.667 0 -41.167 5.16699 -55.5 15.5s-24.5 24.5 -30.5 42.5s-7.83301 39.167 -5.5 63.5s9.5 50.166 21.5 77.499
c29.333 68 65.166 118 107.499 150s86.5 48 132.5 48zM217.004 120.003l11.502 27.5l20.5 48.5l25.5 61.5l26.5 65.5c-7.33301 9.33301 -17.333 14 -30 14c-24.667 0 -47.334 -10.5 -68.001 -31.5s-44 -57.5 -70 -109.5c-9.33301 -19.333 -16.833 -37.5 -22.5 -54.5
s-8.83398 -31.833 -9.50098 -44.5s1.5 -22.667 6.5 -30s13.167 -11 24.5 -11s23.333 3.33301 36 10s25.667 15.667 39 27c1.33301 4.66699 2.83301 9 4.5 13s3.5 8.66699 5.5 14z" />
    <glyph glyph-name="e" unicode="e" horiz-adv-x="344" 
d="M192 49c14 0 28.5039 2.33203 43.5039 6.99902s29.333 10.834 43 18.501s26.167 16.667 37.5 27s20.666 21.166 27.999 32.499l17 -28c-16.667 -35.333 -45.334 -63 -86.001 -83s-88 -30 -142 -30c-28 0 -51.833 5.16699 -71.5 15.5s-34.834 24.5 -45.501 42.5
s-16.334 39.167 -17.001 63.5s4.33301 50.166 15 77.499c25.333 64.667 59.166 113.834 101.499 147.501s89.166 50.5 140.499 50.5c27.333 0 48 -7.16699 62 -21.5s21.833 -31.666 23.5 -51.999s-2.66602 -42 -12.999 -65s-26.166 -43.5 -47.499 -61.5
c-30 -24.667 -64.667 -37 -104 -37h-64c-8.66699 -30 -5.5 -54.833 9.5 -74.5s38.167 -29.5 69.5 -29.5zM231.004 344.999c-6.66699 -2.66699 -14.501 -8.66406 -23.501 -17.9971s-18.167 -21 -27.5 -35s-18.833 -29.667 -28.5 -47s-18.167 -35.333 -25.5 -54h35
c15.333 0 28.333 4.66699 39 14s20.667 23.666 30 42.999c8 14.667 14.333 28.667 19 42s7.33398 24.666 8.00098 33.999s-1 16.166 -5 20.499s-11 4.5 -21 0.5z" />
    <glyph glyph-name="f" unicode="f" horiz-adv-x="336" 
d="M87 348c26 65.333 60.0078 114.836 102.008 148.503s88.667 50.5 140 50.5c21.333 0 38.333 -4.83301 51 -14.5s21.334 -22 26.001 -37s5.5 -32 2.5 -51s-9.16699 -37.5 -18.5 -55.5c-8.66699 -16.667 -17.667 -30.5 -27 -41.5s-18.333 -19.667 -27 -26
s-16.834 -10.833 -24.501 -13.5s-13.834 -4 -18.501 -4c-18.667 0 -30.834 7.66699 -36.501 23s-4.5 33.666 3.5 54.999c10 24 23.167 42.833 39.5 56.5s34.5 20.5 54.5 20.5c3.33301 0 7.66602 -0.666992 12.999 -2c1.33301 13.333 -0.833984 24.333 -6.50098 33
s-15.167 13 -28.5 13s-26.333 -4.5 -39 -13.5s-24.834 -20.833 -36.501 -35.5s-22.334 -31.334 -32.001 -50.001s-17.834 -37.334 -24.501 -56.001l-54 -131c40.667 -3.33301 62 -28.333 64 -75c19.333 0.666992 37.666 3.5 54.999 8.5s33 11.5 47 19.5
s26.333 17.167 37 27.5s19.334 20.833 26.001 31.5l17 -27c-14.667 -32 -38.334 -57.667 -71.001 -77s-71.667 -31.333 -117 -36l-11 -36.5c-4 -13 -9.33301 -26.167 -16 -39.5c-29.333 -61.333 -60.333 -108 -93 -140s-65 -48 -97 -48s-54.5 10.833 -67.5 32.5
s-10.833 53.167 6.5 94.5zM130.008 22.0029c13.333 26.667 22.6689 49.668 28.002 69.001s7.5 35.166 6.5 47.499s-4.83301 21.333 -11.5 27s-15 8.16699 -25 7.5l-96 -234c-5.33301 -12.667 -6.33301 -22 -3 -28s9.66602 -6.5 18.999 -1.5s21.166 16.5 35.499 34.5
s29.833 44 46.5 78z" />
    <glyph glyph-name="g" unicode="g" horiz-adv-x="396" 
d="M433 382l-18 -43.999l-22 -53.5l-24 -59l-24 -59.5l-58 -142c-25.333 -64.667 -59 -114 -101 -148s-88.667 -51 -140 -51c-21.333 0 -38.333 5 -51 15s-21.5 22.667 -26.5 38s-6 32.333 -3 51s9.5 37 19.5 55c9.33301 15.333 20 28.666 32 39.999
c-14 18 -21 41.5 -21 70.5s7.33301 61.5 22 97.5c29.333 68 65.333 118 108 150s87 48 133 48c24.667 0 43.667 -8.66699 57 -26l7 18h110zM133 56.001c10 0 20.834 2.83301 32.501 8.5s23.5 13.167 35.5 22.5l98 238c-6.66699 8 -16 12 -28 12s-23.5 -2.5 -34.5 -7.5
s-22 -13 -33 -24s-22.167 -25.5 -33.5 -43.5s-23.333 -40 -36 -66c-10 -19.333 -17.833 -37.5 -23.5 -54.5s-8.83398 -31.833 -9.50098 -44.5s1.5 -22.667 6.5 -30s13.5 -11 25.5 -11zM89.001 -6.99902c-8 0 -15.3369 0.668945 -22.0039 2.00195s-13 3 -19 5
c-9.33301 -6.66699 -18 -16.334 -26 -29.001s-14.333 -28.667 -19 -48c-3.33301 -16.667 -0.833008 -29.834 7.5 -39.501s19.166 -14.5 32.499 -14.5c12.667 0 25.334 4.5 38.001 13.5s24.834 20.833 36.501 35.5s22.334 31.167 32.001 49.5s17.834 36.5 24.501 54.5
c-14.667 -9.33301 -29.167 -16.5 -43.5 -21.5s-28.166 -7.5 -41.499 -7.5z" />
    <glyph glyph-name="h" unicode="h" horiz-adv-x="385" 
d="M90 88c-5.33301 -14 -5.99902 -25.0029 -1.99902 -33.0029s13.667 -12 29 -12h10l-21 -43c-5.33301 -1.33301 -11 -2.66602 -17 -3.99902c-10 -2 -22.333 -3 -37 -3c-38 0 -61.667 10.333 -71 31s-5 53 13 97l138 341c6 13.333 7 24.166 3 32.499s-13.667 12.5 -29 12.5
h-10l21 43c5.33301 0.666992 11 1.66699 17 3c5.33301 1.33301 11 2.33301 17 3s12.667 1 20 1c38 0 61.833 -10.333 71.5 -31s5.16699 -53.667 -13.5 -99l-27 -65c13.333 8.66699 27.5 15.5 42.5 20.5s29.833 7.5 44.5 7.5c32 0 54.333 -10.833 67 -32.5
s10.667 -53.167 -6 -94.5l-65 -157c-4.66699 -12.667 -3.66699 -21.667 3 -27s15.667 -7 27 -5s23.666 8 36.999 18s24.333 24 33 42l17 -28c-6.66699 -16 -15.834 -30.833 -27.501 -44.5s-24.667 -25.5 -39 -35.5s-29.666 -18 -45.999 -24s-32.5 -9 -48.5 -9
s-29.833 2.66699 -41.5 8s-20.334 13.333 -26.001 24s-8.16699 24 -7.5 40s5.33398 34.333 14.001 55l65 156c4 10 4.16699 17.833 0.5 23.5s-9.5 8.83398 -17.5 9.50098s-17.167 -1.16602 -27.5 -5.49902s-20.5 -11.166 -30.5 -20.499l-80 -195v0z" />
    <glyph glyph-name="i" unicode="i" horiz-adv-x="198" 
d="M215 106c-6.66699 -16 -15.832 -30.832 -27.499 -44.499s-24.667 -25.5 -39 -35.5s-29.666 -18 -45.999 -24s-32.5 -9 -48.5 -9c-32.667 0 -55.334 10.667 -68.001 32s-10.334 53 6.99902 95l15.5 36.5l21.5 51.5l20.5 51c6.33301 16 11.166 27.667 14.499 35
c5.33301 13.333 6 24.166 2 32.499s-13.667 12.5 -29 12.5h-10l21 43c5.33301 1.33301 11 2.66602 17 3.99902c5.33301 1.33301 11.166 2.33301 17.499 3s12.833 1 19.5 1c38 0 61.667 -10.5 71 -31.5s5 -53.5 -13 -97.5l-16.5 -41l-21.5 -52l-25 -62
c-5.33301 -13.333 -4.66602 -22.666 2.00098 -27.999s15.834 -6.83301 27.501 -4.5s24.167 8.5 37.5 18.5s24.333 24 33 42zM257.002 487.001c0 -16.667 -6 -31 -18 -43s-26.333 -18 -43 -18c-17.333 0 -32 6 -44 18s-18 26.333 -18 43s6 31 18 43s26.667 18 44 18
c16.667 0 31 -6 43 -18s18 -26.333 18 -43z" />
    <glyph glyph-name="j" unicode="j" horiz-adv-x="178" 
d="M23 -79c-6 -13.333 -7 -24.166 -3 -32.499s13.667 -12.5 29 -12.5h10l-21 -43c-5.33301 -1.33301 -11 -2.66602 -17 -3.99902c-5.33301 -1.33301 -11.166 -2.33301 -17.499 -3s-12.833 -1 -19.5 -1c-38 0 -61.5 10.5 -70.5 31.5s-4.5 53.5 13.5 97.5l14.5 37l25 62
l30 73.5l29.5 73l24.5 60c7 17 11.833 28.5 14.5 34.5c6 13.333 6.83301 24.166 2.5 32.499s-14.166 12.5 -29.499 12.5h-10l21 43c5.33301 1.33301 11 2.66602 17 3.99902c5.33301 1.33301 11.166 2.33301 17.499 3s12.833 1 19.5 1c38 0 61.667 -10.5 71 -31.5
s5 -53.5 -13 -97.5c-2.66699 -7.33301 -7.83398 -20.333 -15.501 -39l-26 -64l-30.5 -75.5l-30 -73.5l-24 -58.5zM257 487c0 -16.667 -6 -31 -18 -43s-26.333 -18 -43 -18c-17.333 0 -32 6 -44 18s-18 26.333 -18 43s6 31 18 43s26.667 18 44 18c16.667 0 31 -6 43 -18
s18 -26.333 18 -43z" />
    <glyph glyph-name="k" unicode="k" horiz-adv-x="372" 
d="M272 106c-5.33301 -12.667 -4.8291 -21.667 1.50391 -27s15.333 -7 27 -5s24.167 8 37.5 18s24.666 24 33.999 42l16 -28c-6 -16 -14.833 -30.833 -26.5 -44.5s-24.834 -25.5 -39.501 -35.5s-30 -18 -46 -24s-32 -9 -48 -9c-32.667 0 -55.334 11.333 -68.001 34
s-10.667 53.667 6 93c4 9.33301 5.5 17.666 4.5 24.999s-3.66699 13 -8 17s-10.333 5.83301 -18 5.5s-15.834 -3.5 -24.501 -9.5l-29 -70c-5.33301 -14 -6 -25 -2 -33s13.667 -12 29 -12h9l-20 -43c-5.33301 -1.33301 -11 -2.66602 -17 -3.99902c-10 -2 -22.333 -3 -37 -3
c-38.667 0 -62.667 10.333 -72 31s-5 53 13 97l15.5 37l25.5 62l30 74l30 73.5l24 60c6.66699 17 11.334 28.5 14.001 34.5c6 13.333 7 24.166 3 32.499s-13.667 12.5 -29 12.5h-10l20 43c5.33301 0.666992 11 1.66699 17 3c5.33301 1.33301 11.166 2.33301 17.499 3
s12.833 1 19.5 1c38 0 61.667 -10.333 71 -31s5 -53.667 -13 -99l-89 -218l101 35c-6.66699 6.66699 -10.167 15.834 -10.5 27.501s2.16699 24.167 7.5 37.5c9.33301 24.667 22.166 43.667 38.499 57s34.833 20 55.5 20c18.667 0 31.334 -7.66699 38.001 -23
s5 -33.333 -5 -54c-16 -34 -35.667 -57.5 -59 -70.5s-46 -21.167 -68 -24.5c24.667 -3.33301 39.5 -14.5 44.5 -33.5s1.5 -43.833 -10.5 -74.5z" />
    <glyph glyph-name="l" unicode="l" horiz-adv-x="199" 
d="M216 106c-6.66699 -16 -15.833 -30.833 -27.5 -44.5s-24.667 -25.5 -39 -35.5s-29.666 -18 -45.999 -24s-32.5 -9 -48.5 -9s-29.833 2.66699 -41.5 8s-20.5 13.333 -26.5 24s-8.66699 24 -8 40s5.33398 34.333 14.001 55c2 5.33301 6.66699 16.5 14 33.5l25 60l30 73.5
l30 73.5l24.5 59.5l13.5 32c6 13.333 7 24.166 3 32.499s-13.667 12.5 -29 12.5h-10l21 43c5.33301 0.666992 11 1.66699 17 3c5.33301 1.33301 11 2.33301 17 3s12.667 1 20 1c38 0 61.667 -10.333 71 -31s4.66602 -53.334 -14.001 -98.001
c-2 -5.33301 -5.33301 -13.666 -10 -24.999l-16.5 -40.5l-21 -51l-22.5 -54.5l-57 -141c-5.33301 -13.333 -4.66602 -22.666 2.00098 -27.999s15.667 -6.83301 27 -4.5s23.666 8.5 36.999 18.5s24.666 24 33.999 42l17 -28v0z" />
    <glyph glyph-name="m" unicode="m" horiz-adv-x="566" 
d="M466 106c-5.33301 -12.667 -4.66602 -21.666 2.00098 -26.999s15.667 -7 27 -5s23.833 8 37.5 18s24.834 24 33.501 42l17 -28c-6.66699 -16 -15.834 -30.833 -27.501 -44.5s-24.667 -25.5 -39 -35.5s-29.666 -18 -45.999 -24s-32.5 -9 -48.5 -9
c-32.667 0 -55.334 10.667 -68.001 32s-10.334 53 6.99902 95l64 156c4 10 4.5 17.667 1.5 23s-8.16699 8.5 -15.5 9.5s-16 -0.166992 -26 -3.5s-19.667 -9 -29 -17c-1.33301 -4 -2.83301 -8 -4.5 -12s-3.16699 -8.33301 -4.5 -13l-72 -175c-5.33301 -14 -6 -25 -2 -33
s13.333 -12 28 -12h10l-20 -43c-5.33301 -1.33301 -11 -2.66602 -17 -3.99902c-10 -2 -22.333 -3 -37 -3c-38 0 -61.833 10.333 -71.5 31s-5.16699 53 13.5 97c4 9.33301 9.33301 22.666 16 39.999l21 52l26 63c4 10 4.16699 17.833 0.5 23.5s-9.16699 9 -16.5 10
s-16 -0.5 -26 -4.5s-20 -10.333 -30 -19c-1.33301 -4 -2.83301 -8 -4.5 -12s-3.16699 -8.33301 -4.5 -13c-4 -10.667 -9.66699 -24.667 -17 -42l-21.5 -52.5l-19.5 -48.5c-6 -14.667 -10 -24.667 -12 -30c-6 -14 -7 -25 -3 -33s13.667 -12 29 -12h10l-21 -43
c-5.33301 -1.33301 -11 -2.66602 -17 -3.99902c-10 -2 -22.333 -3 -37 -3c-38 0 -61.667 10.333 -71 31s-5 53 13 97c4 10.667 9.33301 24 16 40l20.5 49.5l19.5 48c6 15 11 26.833 15 35.5c5.33301 13.333 6 24.166 2 32.499s-13.333 12.5 -28 12.5h-10l20 43
c5.33301 1.33301 11 2.66602 17 3.99902c5.33301 1.33301 11 2.33301 17 3s12.667 1 20 1c44 0 69 -14.667 75 -44c16 13.333 33.333 24 52 32s37.334 12 56.001 12c40.667 0 65 -15.333 73 -46c16 14 33.5 25.167 52.5 33.5s38.167 12.5 57.5 12.5
c32.667 0 55.167 -10.667 67.5 -32s10.166 -53 -6.50098 -95z" />
    <glyph glyph-name="n" unicode="n" horiz-adv-x="386" 
d="M90 88c-5.33301 -14 -6.00195 -25.001 -2.00195 -33.001s13.667 -12 29 -12h10l-20 -43c-5.33301 -1.33301 -11 -2.66602 -17 -3.99902c-10 -2 -22.333 -3 -37 -3c-38 0 -61.833 10.333 -71.5 31s-5.5 53 12.5 97l71 173c6 13.333 7 24.166 3 32.499
s-13.667 12.5 -29 12.5h-10l20 43c5.33301 1.33301 11 2.66602 17 3.99902c5.33301 1.33301 11.166 2.33301 17.499 3s12.833 1 19.5 1c45.333 0 70.333 -15.667 75 -47c16 14.667 33.667 26.167 53 34.5s38.666 12.5 57.999 12.5c32.667 0 55.334 -10.667 68.001 -32
s10.334 -53 -6.99902 -95l-14 -35.5l-19 -46.5l-18.5 -45c-5.66699 -14 -9.83398 -24 -12.501 -30c-5.33301 -12.667 -4.66602 -21.667 2.00098 -27s15.834 -7 27.501 -5s24.167 8 37.5 18s24.333 24 33 42l17 -28c-6.66699 -16 -15.834 -30.833 -27.501 -44.5
s-24.667 -25.5 -39 -35.5s-29.666 -18 -45.999 -24s-32.5 -9 -48.5 -9s-29.833 2.66699 -41.5 8s-20.5 13.333 -26.5 24s-8.66699 24 -8 40s5.33398 34.333 14.001 55l65 156c4 10 4.16699 17.833 0.5 23.5s-9.5 8.66699 -17.5 9s-17.5 -1.66699 -28.5 -6
s-21.5 -11.5 -31.5 -21.5c-1.33301 -3.33301 -2.5 -6.66602 -3.5 -9.99902s-2.16699 -6.66602 -3.5 -9.99902c-4 -10.667 -9.66699 -24.667 -17 -42l-21.5 -52.5l-20 -48.5c-6.33301 -14.667 -10.5 -24.667 -12.5 -30z" />
    <glyph glyph-name="o" unicode="o" horiz-adv-x="375" 
d="M257 390c24 0 44.166 -5.16699 60.499 -15.5s28.166 -24.5 35.499 -42.5s10.333 -39 9 -63s-7.33301 -49.667 -18 -77c-12 -31.333 -26.667 -59.166 -44 -83.499s-36.5 -45.166 -57.5 -62.499s-43.333 -30.5 -67 -39.5s-48.167 -13.5 -73.5 -13.5
c-24.667 0 -45 5.16699 -61 15.5s-27.667 24.5 -35 42.5s-10.166 39.167 -8.49902 63.5s7.83398 50.166 18.501 77.499c25.333 63.333 58.833 112.166 100.5 146.499s88.5 51.5 140.5 51.5zM231.999 191c8 20.667 14.501 40.334 19.501 59.001s8.16699 35.167 9.5 49.5
s0.666016 25.833 -2.00098 34.5s-8 13 -16 13s-17 -4.33301 -27 -13s-20.167 -20.167 -30.5 -34.5s-20.5 -30.833 -30.5 -49.5s-19 -38.334 -27 -59.001c-8 -20 -14.667 -39.167 -20 -57.5s-8.5 -34.5 -9.5 -48.5s0.166992 -25.167 3.5 -33.5s9 -12.5 17 -12.5
s16.833 4.16699 26.5 12.5s19.5 19.5 29.5 33.5s20 30.167 30 48.5s19 37.5 27 57.5z" />
    <glyph glyph-name="p" unicode="p" horiz-adv-x="391" 
d="M121 -7c-25.333 0 -44.668 8.66797 -58.001 26.001l-40 -98c-6 -13.333 -6.83301 -24.166 -2.5 -32.499s13.833 -12.5 28.5 -12.5h10l-21 -43c-5.33301 -1.33301 -11 -2.66602 -17 -3.99902c-5.33301 -1.33301 -11.166 -2.33301 -17.499 -3s-12.833 -1 -19.5 -1
c-38 0 -61.5 10.5 -70.5 31.5s-4.5 53.5 13.5 97.5l15 37l25 62l30 73.5l30 73l24 60c6.66699 17 11.334 28.5 14.001 34.5c6 13.333 6.83301 24.166 2.5 32.499s-14.166 12.5 -29.499 12.5h-9l20 43c5.33301 1.33301 11 2.66602 17 3.99902
c5.33301 1.33301 11.166 2.33301 17.499 3s12.833 1 19.5 1c46.667 0 72 -16 76 -48c18.667 15.333 37.5 27.166 56.5 35.499s37.167 12.5 54.5 12.5c22.667 0 41.167 -5.16699 55.5 -15.5s24.666 -24.5 30.999 -42.5s8.16602 -39 5.49902 -63s-9.66699 -49.667 -21 -77
c-29.333 -68.667 -65.166 -119 -107.499 -151s-86.5 -48 -132.5 -48zM79.998 59.001c6 -8 15.333 -12 28 -12c12 0 23.5 2.33301 34.5 7s22 12.5 33 23.5s22.167 25.333 33.5 43s23.666 39.5 36.999 65.5c9.33301 19.333 16.833 37.666 22.5 54.999
s8.83398 32.333 9.50098 45s-1.5 22.667 -6.5 30s-13.167 11 -24.5 11s-23.333 -3.16699 -36 -9.5s-25.667 -15.166 -39 -26.499c-1.33301 -5.33301 -2.83301 -10.333 -4.5 -15l-5.5 -15z" />
    <glyph glyph-name="q" unicode="q" horiz-adv-x="399" 
d="M436 382l-92.0029 -223l-34 -82.5l-30 -72l-21.5 -52c-5.66699 -13.667 -8.5 -20.834 -8.5 -21.501c-6 -13.333 -6.83301 -24.166 -2.5 -32.499s14.166 -12.5 29.499 -12.5h9l-20 -44c-5.33301 -1.33301 -11 -2.66602 -17 -3.99902c-10 -2 -22.333 -3 -37 -3
c-38.667 0 -62.667 10.5 -72 31.5s-5 53.5 13 97.5c0.666992 1.33301 3.16699 7.5 7.5 18.5l17.5 42.5c-15.333 -10 -30.666 -17.833 -45.999 -23.5s-29.666 -8.5 -42.999 -8.5c-22.667 0 -41.167 5.16699 -55.5 15.5s-24.666 24.5 -30.999 42.5
s-8.16602 39.167 -5.49902 63.5s9.66699 50.166 21 77.499c29.333 68 65.166 118 107.499 150s86.5 48 132.5 48c24.667 0 44.334 -9 59.001 -27c1.33301 4 3 8 5 12c1.33301 2.66699 2.33301 5 3 7h111zM131.997 56c10.667 0 22.1689 3 34.502 9s25.166 14.667 38.499 26
l25 60.5l25.5 62l24 58.5l20.5 51c-6 9.33301 -15.667 14 -29 14c-24.667 0 -47.5 -10.5 -68.5 -31.5s-44.167 -57.5 -69.5 -109.5c-9.33301 -19.333 -16.833 -37.5 -22.5 -54.5s-8.83398 -31.833 -9.50098 -44.5s1.33301 -22.667 6 -30s13 -11 25 -11z" />
    <glyph glyph-name="r" unicode="r" horiz-adv-x="250" 
d="M149 463c19.333 0 32 -7.5 38 -22.5s4.66699 -33.167 -4 -54.5c-6 -16 -13.333 -29.333 -22 -40h88c-2 -6 -5.66699 -15.333 -11 -28l-18 -44l-21.5 -52l-21.5 -51l-17.5 -41.5c-5 -11.667 -8.16699 -19.5 -9.5 -23.5c-5.33301 -12.667 -4.66602 -21.667 2.00098 -27
s15.834 -7 27.501 -5s24.167 8 37.5 18s24.333 24 33 42l17 -28c-6.66699 -16 -15.834 -30.833 -27.501 -44.5s-24.667 -25.5 -39 -35.5s-29.666 -18 -45.999 -24s-32.5 -9 -48.5 -9s-29.833 2.66699 -41.5 8s-20.334 13.333 -26.001 24s-8.16699 24 -7.5 40
s5.33398 34.333 14.001 55l82 198c-12 -6 -24.667 -9 -38 -9c-18.667 0 -31 7.5 -37 22.5s-4.33301 33.167 5 54.5c9.33301 24.667 22.166 43.667 38.499 57s34.166 20 53.499 20z" />
    <glyph glyph-name="s" unicode="s" horiz-adv-x="338" 
d="M185 312c20.667 4 39.9941 3.5 57.9941 -1.5s32.667 -13.667 44 -26s18.833 -28.333 22.5 -48s1.83398 -42.167 -5.49902 -67.5c-10 -33.333 -23 -61.166 -39 -83.499s-34.333 -40.333 -55 -54s-43 -23.5 -67 -29.5s-49 -9 -75 -9
c-21.333 0 -38.166 4.83301 -50.499 14.5s-20.833 22 -25.5 37s-5.66699 32 -3 51s9 37.5 19 55.5c8.66699 16.667 17.667 30.5 27 41.5s18.333 19.667 27 26s16.667 10.666 24 12.999s13.333 3.5 18 3.5c18.667 0 31 -7.5 37 -22.5s5 -33.167 -3 -54.5
c-10 -24.667 -23.167 -43.667 -39.5 -57s-34.5 -20 -54.5 -20c-3.33301 0 -7.66602 0.666992 -12.999 2c-1.33301 -13.333 0.833984 -24.333 6.50098 -33s15.167 -13 28.5 -13c12.667 0 25.167 3.33301 37.5 10s23.833 16 34.5 28s20.667 26 30 42s17.333 33.333 24 52
c18 48 21.167 81.333 9.5 100s-36.5 22.334 -74.5 11.001c-9.33301 -2.66699 -17.333 -2.16699 -24 1.5s-11.667 9.16699 -15 16.5s-5.16602 16 -5.49902 26s1.5 20.333 5.5 31c10 25.333 23.167 44.666 39.5 57.999s34.5 20 54.5 20c19.333 0 31.833 -7.5 37.5 -22.5
s4.5 -33.5 -3.5 -55.5c-2.66699 -6 -6.66699 -13.5 -12 -22.5s-11.666 -15.833 -18.999 -20.5z" />
    <glyph glyph-name="t" unicode="t" horiz-adv-x="200" 
d="M225 410l-125.003 -304c-5.33301 -12.667 -4.66602 -21.667 2.00098 -27s15.834 -7 27.501 -5s24.167 8 37.5 18s24.333 24 33 42l17 -28c-6.66699 -16 -15.834 -30.833 -27.501 -44.5s-24.667 -25.5 -39 -35.5s-29.666 -18 -45.999 -24s-32.5 -9 -48.5 -9
s-29.833 2.66699 -41.5 8s-20.5 13.333 -26.5 24s-8.66699 24 -8 40s5.33398 34.333 14.001 55l120 290h-57l28 51h50l12 30l120 23l-22 -53h90l-28 -51h-82z" />
    <glyph glyph-name="u" unicode="u" horiz-adv-x="390" 
d="M290 106c-5.33301 -12.667 -4.66406 -21.665 2.00293 -26.998s15.834 -7 27.501 -5s24.167 8 37.5 18s24.333 24 33 42l17 -28c-6.66699 -16 -15.834 -30.833 -27.501 -44.5s-24.667 -25.5 -39 -35.5s-29.666 -18 -45.999 -24s-32.5 -9 -48.5 -9
c-20.667 0 -37.334 4.33301 -50.001 13s-20.667 21.667 -24 39c-16.667 -16 -35.5 -28.667 -56.5 -38s-41.5 -14 -61.5 -14c-16 0 -29.833 2.66699 -41.5 8s-20.334 13.333 -26.001 24s-8.16699 24 -7.5 40s5.33398 34.333 14.001 55l15.5 36.5l21.5 51.5l20.5 51
c6.33301 16 11.166 27.667 14.499 35c6 13.333 7 24.166 3 32.499s-13.667 12.5 -29 12.5h-10l20 43c5.33301 1.33301 11 2.66602 17 3.99902c5.33301 1.33301 11.166 2.33301 17.499 3s13.166 1 20.499 1c38 0 61.667 -10.5 71 -31.5s4.66602 -53.5 -14.001 -97.5
l-16.5 -41l-21.5 -52l-25 -62c-4 -11.333 -3.83301 -19.833 0.5 -25.5s10.833 -8.5 19.5 -8.5s18.667 2.83301 30 8.5s22 14.167 32 25.5c0.666992 2.66699 1.33398 5 2.00098 7s1.66699 4.33301 3 7l108 262h111z" />
    <glyph glyph-name="v" unicode="v" horiz-adv-x="351" 
d="M397 382l-19.002 -41.4971l-28 -60.5l-28 -60l-18 -39c-28 -61.333 -60 -108 -96 -140s-83 -48 -141 -48c-16 0 -30 2.66699 -42 8s-21.333 13.333 -28 24s-10.5 24 -11.5 40s1.83301 34.333 8.5 55c2.66699 8 7.33398 20.167 14.001 36.5l21 51.5l20.5 51
c6.33301 16 10.5 27.667 12.5 35c4 13.333 4.5 24.166 1.5 32.499s-12.167 12.5 -27.5 12.5h-10l21 43c5.33301 1.33301 11 2.66602 17 3.99902c5.33301 1.33301 11 2.33301 17 3s12.667 1 20 1c38 0 62.167 -10.833 72.5 -32.5s6.16602 -53.834 -12.501 -96.501
c-25.333 -58.667 -42.5 -103.5 -51.5 -134.5s-10.5 -51.5 -4.5 -61.5c2.66699 -4 6.5 -6.83301 11.5 -8.5s10.333 -2.33398 16 -2.00098s11.334 1.83301 17.001 4.5s10.834 6.33398 15.501 11.001c0 12 1.33301 23.5 4 34.5s8 27 16 48s20 49.333 36 85l65 144.5h111z" />
    <glyph glyph-name="w" unicode="w" horiz-adv-x="545" 
d="M590 382l-19.498 -41.4932l-28 -60.5l-27.5 -60l-18 -39c-14 -30.667 -28.833 -57.667 -44.5 -81s-33 -43 -52 -59s-40.167 -28 -63.5 -36s-49.333 -12 -78 -12c-21.333 0 -39.166 4.83301 -53.499 14.5s-23.166 24.167 -26.499 43.5
c-17.333 -17.333 -37 -31.333 -59 -42s-43.667 -16 -65 -16c-32.667 0 -55.334 10.667 -68.001 32s-10.334 53 6.99902 95l72 174c5.33301 13.333 6 24.166 2 32.499s-13.667 12.5 -29 12.5h-9l20 43c5.33301 1.33301 11 2.66602 17 3.99902
c5.33301 1.33301 11.166 2.33301 17.499 3s12.833 1 19.5 1c38 0 61.667 -10.5 71 -31.5s5 -53.5 -13 -97.5l-16.5 -41l-21.5 -52l-25 -62c-4.66699 -11.333 -4.66699 -19.833 0 -25.5s11.5 -8.5 20.5 -8.5s19.167 3 30.5 9s22 15 32 27l4 12
c2.66699 8 7.16699 20.167 13.5 36.5l20.5 51.5l21 51c6.66699 16 11 27.667 13 35c4.66699 13.333 5.33398 24.166 2.00098 32.499s-12.666 12.5 -27.999 12.5h-10l21 43c5.33301 1.33301 11 2.66602 17 3.99902c5.33301 1.33301 11.166 2.33301 17.499 3s12.833 1 19.5 1
c38 0 62.167 -10.833 72.5 -32.5s6.5 -53.834 -11.5 -96.501c-25.333 -58.667 -42.5 -103.5 -51.5 -134.5s-10.5 -51.5 -4.5 -61.5c5.33301 -8.66699 14.166 -12.334 26.499 -11.001s23.166 6.66602 32.499 15.999c0 12 1.33301 23.5 4 34.5s8.16699 27 16.5 48
s20.5 49.333 36.5 85l65 144.5h111z" />
    <glyph glyph-name="x" unicode="x" horiz-adv-x="368" 
d="M328 386c19.333 0 32.335 -7.66992 39.002 -23.0029s5 -33.333 -5 -54c-13.333 -28 -29.333 -48.667 -48 -62s-37.334 -22.666 -56.001 -27.999c13.333 -9.33301 21.166 -23.5 23.499 -42.5s-2.16699 -42.5 -13.5 -70.5c-5.33301 -12.667 -4.66602 -21.667 2.00098 -27
s15.667 -7 27 -5s23.833 8 37.5 18s24.834 24 33.501 42l17 -28c-6.66699 -16 -15.834 -30.833 -27.501 -44.5s-24.667 -25.5 -39 -35.5s-29.666 -18 -45.999 -24s-32.5 -9 -48.5 -9c-32.667 0 -55.167 11.333 -67.5 34s-10.166 53.667 6.50098 93
c7.33301 18 6.66602 31.667 -2.00098 41s-21.667 9.33301 -39 0l-30 -73c-6 -14 -7 -25 -3 -33s13.667 -12 29 -12h10l-21 -43c-5.33301 -1.33301 -11 -2.66602 -17 -3.99902c-10 -2 -22.333 -3 -37 -3c-71.333 0 -93.333 36 -66 108c4.66699 12.667 8.5 22.667 11.5 30
l6.5 16c3.33301 8.66699 10.666 15.334 21.999 20.001l70 27c-18 22 -20 55.333 -6 100c4.66699 13.333 5.33398 24.166 2.00098 32.499s-12.666 12.5 -27.999 12.5h-9l20 43c5.33301 1.33301 11 2.66602 17 3.99902c5.33301 1.33301 11 2.33301 17 3s12.667 1 20 1
c38 0 62.667 -9.66699 74 -29s9.66602 -43.666 -5.00098 -72.999c-9.33301 -19.333 -14.833 -33.333 -16.5 -42s-1.16699 -15.667 1.5 -21l54 19c-6 6.66699 -9.33301 15.834 -10 27.501s1.66602 24.167 6.99902 37.5c9.33301 24.667 22.166 43.667 38.499 57
s34.5 20 54.5 20z" />
    <glyph glyph-name="y" unicode="y" horiz-adv-x="374" 
d="M404 382l-18.499 -43.9961l-22 -53.5l-23.5 -59l-24 -59.5l-58 -142c-25.333 -64.667 -59 -114 -101 -148s-88.667 -51 -140 -51c-21.333 0 -38.5 5 -51.5 15s-21.833 22.667 -26.5 38s-5.5 32.333 -2.5 51s9.5 37 19.5 55c9.33301 15.333 20 28.666 32 39.999
c-6 11.333 -8.83301 24.833 -8.5 40.5s4.83301 34.167 13.5 55.5l15.5 36.5l22 51.5l21 51c6.33301 16 10.833 27.667 13.5 35c6 13.333 7 24.166 3 32.499s-13.667 12.5 -29 12.5h-10l21 43c5.33301 1.33301 11 2.66602 17 3.99902c5.33301 1.33301 11 2.33301 17 3
s12.667 1 20 1c38 0 61.833 -10.5 71.5 -31.5s5.16699 -53.5 -13.5 -97.5l-16.5 -41l-21.5 -52l-25 -62c-4 -11.333 -4 -19.833 0 -25.5s10.167 -8.66699 18.5 -9s18.166 2.16699 29.499 7.5s22 13.666 32 24.999l114 278h111zM55.001 -6.99609c-14.667 0 -27.333 2 -38 6
c-8.66699 -7.33301 -17 -17 -25 -29s-14 -27.667 -18 -47c-4 -16.667 -1.83301 -29.834 6.5 -39.501s19.166 -14.5 32.499 -14.5c12.667 0 25.5 4.66699 38.5 14s25.333 21.333 37 36s22.5 31.167 32.5 49.5s18.333 36.5 25 54.5
c-14.667 -9.33301 -29.667 -16.666 -45 -21.999s-30.666 -8 -45.999 -8z" />
    <glyph glyph-name="z" unicode="z" horiz-adv-x="297" 
d="M89 382l260.998 -0.000976562l-3 -6l-40 -92l-194 -123c24 2.66699 45.5 1 64.5 -5s34 -16 45 -30s17.167 -31.5 18.5 -52.5s-3.33398 -44.833 -14.001 -71.5c-26 -64 -58.833 -109.5 -98.5 -136.5s-85.167 -40.5 -136.5 -40.5c-21.333 0 -38.166 4.83301 -50.499 14.5
s-20.833 22.167 -25.5 37.5s-5.66699 32.5 -3 51.5s8.66699 37.5 18 55.5c8.66699 16.667 17.667 30.334 27 41.001s18.333 19.167 27 25.5s16.667 10.833 24 13.5s13.333 4 18 4c19.333 0 32 -7.5 38 -22.5s4.66699 -33.167 -4 -54.5
c-9.33301 -24.667 -22.166 -43.667 -38.499 -57s-34.833 -20 -55.5 -20c-5.33301 0 -9.66602 0.333008 -12.999 1c-1.33301 -13.333 1 -24.333 7 -33s15.667 -13 29 -13c12.667 0 25.167 3.5 37.5 10.5s23.833 16.5 34.5 28.5s20.667 26 30 42s17.333 33.333 24 52
c14 38 16.667 67 8 87s-25 30 -49 30c-8 0 -16.833 -1.33301 -26.5 -4s-19.167 -6.66699 -28.5 -12l-11 -7l-9 38l15.5 39.5c5.66699 15 11.167 28.167 16.5 39.5l187 127h-148z" />
    <glyph glyph-name="braceleft" unicode="{" horiz-adv-x="409" 
d="M149 -202c-34.667 24 -57.999 48.5039 -69.999 73.5039s-16.833 50.167 -14.5 75.5s9.83301 50.166 22.5 74.499s26.167 47.833 40.5 70.5l39.5 63c12 19.333 18.833 36.666 20.5 51.999s-4 28 -17 38s-37.5 17 -73.5 21l27 49c38.667 0 69.5 4.83301 92.5 14.5
s41.5 22.334 55.5 38.001s24.667 33.667 32 54s14.333 41.5 21 63.5s14.667 44 24 66s22.666 42.5 39.999 61.5s40.333 35.667 69 50s65.667 25.166 111 32.499l12 -55c-30.667 -10 -55.167 -25 -73.5 -45s-33.833 -42.167 -46.5 -66.5s-24.667 -49.666 -36 -75.999
s-25.5 -50.833 -42.5 -73.5s-39 -42.334 -66 -59.001s-62.5 -27.334 -106.5 -32.001c23.333 -10.667 39.666 -23.834 48.999 -39.501s13.833 -33 13.5 -52s-4.16602 -39 -11.499 -60s-16 -42.5 -26 -64.5l-30.5 -65.5c-10.333 -21.667 -18.5 -42.167 -24.5 -61.5
s-9 -37.333 -9 -54s5.66699 -31 17 -43z" />
    <glyph glyph-name="bar" unicode="|" 
d="M426 694l-306 -868h-74l305 868h75z" />
    <glyph glyph-name="braceright" unicode="}" horiz-adv-x="409" 
d="M305 695c34.667 -24 58.167 -48.1631 70.5 -72.4961s17.833 -48.333 16.5 -72s-7.5 -46.834 -18.5 -69.501s-23.167 -44.334 -36.5 -65.001l-36 -57.5c-10.667 -17.667 -16.5 -33.334 -17.5 -47.001s5.33301 -25.167 19 -34.5s38.5 -16 74.5 -20l-27 -49
c-38.667 0 -69.834 -5.16699 -93.501 -15.5s-42.834 -24.166 -57.501 -41.499s-26.334 -37 -35.001 -59s-17 -44.833 -25 -68.5s-17.167 -47.5 -27.5 -71.5s-24.666 -46.167 -42.999 -66.5s-42.166 -38.333 -71.499 -54s-66.666 -26.834 -111.999 -33.501l-12 55
c30.667 10 55.5 25.667 74.5 47s35.667 45.333 50 72s28 54.5 41 83.5s28.833 56 47.5 81s42 46.5 70 64.5s64 29.333 108 34c-30.667 14 -50 31.667 -58 53s-9.5 44.666 -4.5 69.999s14 51.5 27 78.5s24.667 53.333 35 79s17 49.667 20 72s-2.83301 41.5 -17.5 57.5z" />
    <glyph glyph-name="asciitilde" unicode="~" horiz-adv-x="461" 
d="M63 166c22.667 31.333 49.165 56.666 79.498 75.999s60.833 31.333 91.5 36c20.667 2.66699 35 0.166992 43 -7.5s13.333 -16.5 16 -26.5l7.5 -27.5c2.33301 -8.33301 8.5 -11.833 18.5 -10.5s20 5.66602 30 12.999s18.667 15.333 26 24c8.66699 10 17.334 21 26.001 33
l36 -35c-14.667 -18.667 -30.667 -35.667 -48 -51c-15.333 -13.333 -33.5 -26 -54.5 -38s-43.833 -19.667 -68.5 -23c-16.667 -2 -29.5 -1.66699 -38.5 1s-15.833 6.83398 -20.5 12.501s-7.83398 12 -9.50098 19s-3 13.5 -4 19.5s-2.66699 10.833 -5 14.5
s-6.5 5.16699 -12.5 4.5c-9.33301 -1.33301 -18.666 -5.5 -27.999 -12.5s-17.666 -14.5 -24.999 -22.5c-8.66699 -9.33301 -17 -19.666 -25 -30.999z" />
    <glyph glyph-name="exclamdown" unicode="&#xa1;" horiz-adv-x="261" 
d="M208 500c0 18 6.5 33.5 19.5 46.5s28.833 19.5 47.5 19.5s34.5 -6.5 47.5 -19.5s19.5 -28.5 19.5 -46.5c0 -18.667 -6.5 -34.5 -19.5 -47.5s-28.833 -19.5 -47.5 -19.5s-34.5 6.5 -47.5 19.5s-19.5 28.833 -19.5 47.5zM19 98c12.667 28.667 28.498 56.668 47.498 84.001
s38 52.833 57 76.5l53 64c16.333 19 28.833 34.167 37.5 45.5h35c-19.333 -38 -35.333 -75.833 -48 -113.5s-23.167 -71.834 -31.5 -102.501s-14.666 -56.167 -18.999 -76.5s-7.5 -32.166 -9.5 -35.499c-8 -16.667 -20.667 -28 -38 -34s-34.666 -5.33301 -51.999 2
c-16.667 8 -28.167 20.667 -34.5 38s-5.5 34.666 2.5 51.999z" />
    <glyph glyph-name="cent" unicode="&#xa2;" horiz-adv-x="380" 
d="M329 447l-21.002 -59.002c20.667 -12.667 32 -33.167 34 -61.5s-4.33301 -56.833 -19 -85.5c-1.33301 -2.66699 -2.66602 -5.16699 -3.99902 -7.5s-2.66602 -4.5 -3.99902 -6.5l-34 24c12 23.333 18 42.5 18 57.5s-2.66699 26.167 -8 33.5l-103 -283h10
c14 0 28.5 2.33301 43.5 7s29.333 10.834 43 18.501s26.167 16.667 37.5 27s20.666 21.166 27.999 32.499l17 -28c-15.333 -32 -40.333 -57.833 -75 -77.5s-76 -31.167 -124 -34.5l-24 -67h-54l24 67c-23.333 2.66699 -43.166 9.83398 -59.499 21.501
s-28.666 26.334 -36.999 44.001s-12.5 37.834 -12.5 60.501s5 46.667 15 72c25.333 64 58.666 112.667 99.999 146s87 50.666 137 51.999l17 47h55zM132.998 200.998c-12 -32 -17.168 -58.333 -15.501 -79s9.16699 -36.334 22.5 -47.001l99 274
c-10.667 -5.33301 -21.167 -13 -31.5 -23s-20.166 -21.833 -29.499 -35.5s-17.833 -28.167 -25.5 -43.5s-14.167 -30.666 -19.5 -45.999z" />
    <glyph glyph-name="sterling" unicode="&#xa3;" horiz-adv-x="480" 
d="M68 241l33.002 0.00195312l12 29h-37l15 35h34c14.667 34.667 32.167 65.5 52.5 92.5s42.833 49.833 67.5 68.5s50.834 32.834 78.501 42.501s56.167 14.5 85.5 14.5c23.333 0 42.5 -4.83301 57.5 -14.5s25.667 -22.167 32 -37.5s8.66602 -32.5 6.99902 -51.5
s-7.5 -37.5 -17.5 -55.5c-8.66699 -16.667 -17.667 -30.5 -27 -41.5s-18.5 -19.667 -27.5 -26s-17.167 -10.833 -24.5 -13.5s-13.333 -4 -18 -4c-19.333 0 -31.833 7.66699 -37.5 23s-4.16699 33.666 4.5 54.999c9.33301 24.667 22.333 43.667 39 57s35 20 55 20
c6 0 10.333 -0.333008 13 -1c2 4.66699 2.66699 9.66699 2 15s-2.83398 10.333 -6.50098 15s-9.5 8.5 -17.5 11.5s-18.333 4.5 -31 4.5c-20 0 -38.833 -4.66699 -56.5 -14s-33.834 -22 -48.501 -38s-28 -34.5 -40 -55.5s-22.667 -43.167 -32 -66.5h86l-14 -35h-85l-12 -29
h89l-15 -35h-88l-46 -113c8.66699 6.66699 18.5 12.5 29.5 17.5s23.167 7.5 36.5 7.5c11.333 0 22.333 -3 33 -9s21.334 -12.333 32.001 -19s21.167 -12.834 31.5 -18.501s21.333 -7.83398 33 -6.50098s24 7 37 17s26.833 27 41.5 51l17 -28
c-20.667 -36 -44.834 -64 -72.501 -84s-55.5 -30 -83.5 -30c-17.333 0 -31.833 3.5 -43.5 10.5s-21.834 14.833 -30.501 23.5l-24 23.5c-7.33301 7 -15.666 10.5 -24.999 10.5c-6.66699 0 -13.667 -1.83301 -21 -5.5s-14.5 -8.16699 -21.5 -13.5s-13.667 -11 -20 -17
l-15.5 -15l-4 -5l-5 -5h-73l27 65l27 66.5l31 76.5h-33z" />
    <glyph glyph-name="currency" unicode="&#xa4;" horiz-adv-x="450" 
d="M341 190c0 -12 -1.99805 -23.3311 -5.99805 -33.998l34 -28l-57 -75l-28 42c-16.667 -9.33301 -34.667 -14 -54 -14c-17.333 0 -33.5 3.66699 -48.5 11s-27.5 17.333 -37.5 30l-91 -59l-9 75l76 36c-0.666992 3.33301 -1 8.66602 -1 15.999c0 13.333 2.66699 27 8 41
l-32 21l56 74l29 -37c7.33301 3.33301 15.166 6.16602 23.499 8.49902s17.166 3.5 26.499 3.5c17.333 0 33.5 -3.66699 48.5 -11s27.5 -17.333 37.5 -30l107 58l10 -74l-94 -33c0.666992 -3.33301 1.16699 -6.83301 1.5 -10.5s0.5 -7.16699 0.5 -10.5zM297.002 190.002
c0 18.667 -6.5 34.5 -19.5 47.5s-28.833 19.5 -47.5 19.5s-34.5 -6.5 -47.5 -19.5s-19.5 -28.833 -19.5 -47.5c0 -18 6.5 -33.5 19.5 -46.5s28.833 -19.5 47.5 -19.5s34.5 6.5 47.5 19.5s19.5 28.5 19.5 46.5z" />
    <glyph glyph-name="yen" unicode="&#xa5;" horiz-adv-x="387" 
d="M75 233l55.998 0.00195312l2 6l-26 189c-1.33301 13.333 -6.33301 24.166 -15 32.499s-20.667 12.5 -36 12.5h-10l-4 43c4.66699 1.33301 9.66699 2.66602 15 3.99902c4.66699 1.33301 10 2.33301 16 3s12.667 1 20 1c38 0 67.5 -10.5 88.5 -31.5
s34.5 -53.833 40.5 -98.5l14 -101c25.333 20 46.833 42.667 64.5 68s29.5 48.666 35.5 69.999c6 19.333 6 33 0 41s-19.667 9.33301 -41 4l15 40c5.33301 0.666992 11 1.66699 17 3c5.33301 1.33301 11 2.33301 17 3s12.667 1 20 1c15.333 0 29.333 -2.33301 42 -7
s22.667 -11.334 30 -20.001s11.5 -19.167 12.5 -31.5s-1.83301 -26.166 -8.5 -41.499c-15.333 -34 -40.166 -65.833 -74.499 -95.5s-72.833 -54.5 -115.5 -74.5l-8 -20h63l-14 -35h-63l-12 -29h67l-15 -35h-67l-19 -47c-5.33301 -14 -6 -25.167 -2 -33.5
s13.667 -12.5 29 -12.5h9l-20 -43c-5.33301 -1.33301 -11 -2.66602 -17 -3.99902c-5.33301 -1.33301 -11.166 -2.33301 -17.499 -3s-12.833 -1 -19.5 -1c-38.667 0 -62.667 10.5 -72 31.5s-5 53.833 13 98.5l5 14h-52l14 35h53l12 29h-57z" />
    <glyph glyph-name="brokenbar" unicode="&#xa6;" 
d="M252 199l-132 -373h-74l131 373h75zM216 311l135 383h75l-135 -383h-75z" />
    <glyph glyph-name="section" unicode="&#xa7;" horiz-adv-x="419" 
d="M368 167c-14.667 -36.667 -40.667 -65.3311 -78 -85.998c-2 -16 -7.66699 -32.333 -17 -49c-8.66699 -14.667 -19.5 -27.5 -32.5 -38.5s-27.167 -19.833 -42.5 -26.5s-31.333 -11 -48 -13s-33 -1.33301 -49 2c-14 2.66699 -26 8 -36 16s-17.333 17.833 -22 29.5
s-6.33398 24.5 -5.00098 38.5s6.66602 29 15.999 45c10 18 21.667 30 35 36s25 6 35 0s15.667 -15.833 17 -29.5s-2 -27.167 -10 -40.5c-7.33301 -12.667 -17.166 -21.5 -29.499 -26.5s-23.5 -4.5 -33.5 1.5c-0.666992 -9.33301 2.83301 -18 10.5 -26s19.5 -13.333 35.5 -16
c18.667 -2.66699 36.334 1 53.001 11s28.667 23.667 36 41c8 18.667 7.33301 36.834 -2 54.501s-24.666 33.5 -45.999 47.5c-14.667 8.66699 -27.334 18.334 -38.001 29.001s-19 22.167 -25 34.5s-9.16699 25.666 -9.5 39.999s2.83398 29.5 9.50098 45.5
c14.667 35.333 40.667 64 78 86c2 18.667 7.66699 35.334 17 50.001c8.66699 14.667 19.5 27.5 32.5 38.5s27.167 19.833 42.5 26.5s31.333 11 48 13s33 1.33301 49 -2c14 -3.33301 26 -8.83301 36 -16.5s17.333 -17.334 22 -29.001s6.33398 -24.667 5.00098 -39
s-6.66602 -29.5 -15.999 -45.5c-10 -17.333 -21.667 -29 -35 -35s-25 -6 -35 0s-15.667 15.667 -17 29s2 26.666 10 39.999c7.33301 13.333 17.166 22.5 29.499 27.5s23.5 4.5 33.5 -1.5c0.666992 9.33301 -2.83301 17.833 -10.5 25.5s-19.5 12.834 -35.5 15.501
c-18.667 3.33301 -36.334 0 -53.001 -10s-28.667 -23.667 -36 -41c-8 -18.667 -7.33301 -36.834 2 -54.501s24.666 -33.5 45.999 -47.5c14.667 -8.66699 27.334 -18.334 38.001 -29.001s19 -22.334 25 -35.001s9.16699 -26.167 9.5 -40.5s-2.83398 -29.5 -9.50098 -45.5z
M225 258.003c-21.333 14.667 -36.668 33 -46.001 55c-1.33301 -1.33301 -2.16602 -3 -2.49902 -5s-0.833008 -3.66699 -1.5 -5c-8.66699 -22 -7.5 -40.667 3.5 -56s29.833 -32.333 56.5 -51c21.333 -14.667 36.333 -33 45 -55l5 11c8.66699 22 7.5 40.667 -3.5 56
s-29.833 32 -56.5 50z" />
    <glyph glyph-name="dieresis" unicode="&#xa8;" horiz-adv-x="440" 
d="M207 519c0 -18 -6.5 -33.5 -19.5 -46.5s-28.833 -19.5 -47.5 -19.5s-34.5 6.5 -47.5 19.5s-19.5 28.5 -19.5 46.5c0 18.667 6.5 34.5 19.5 47.5s28.833 19.5 47.5 19.5s34.5 -6.5 47.5 -19.5s19.5 -28.833 19.5 -47.5zM373 519c0 -18 -6.5 -33.5 -19.5 -46.5
s-28.833 -19.5 -47.5 -19.5s-34.5 6.5 -47.5 19.5s-19.5 28.5 -19.5 46.5c0 18.667 6.5 34.5 19.5 47.5s28.833 19.5 47.5 19.5s34.5 -6.5 47.5 -19.5s19.5 -28.833 19.5 -47.5z" />
    <glyph glyph-name="copyright" unicode="&#xa9;" horiz-adv-x="833" 
d="M573 563c52 0 93.1719 -10.5 123.505 -31.5s51.166 -48.5 62.499 -82.5s14.166 -73 8.49902 -117s-18.334 -88.667 -38.001 -134s-45.5 -90 -77.5 -134s-68.5 -83 -109.5 -117s-85.833 -61.5 -134.5 -82.5s-99.334 -31.5 -152.001 -31.5s-94 10.5 -124 31.5
s-50.333 48.5 -61 82.5s-12.834 73 -6.50098 117s19.666 88.667 39.999 134s46.666 90 78.999 134s68.833 83 109.5 117s84.834 61.5 132.501 82.5s96.834 31.5 147.501 31.5zM258.005 -126c44.667 0 87.834 9.16699 129.501 27.5s80.667 42.666 117 72.999
s69.166 64.833 98.499 103.5s53.333 78.167 72 118.5s31.667 79.833 39 118.5s7 73.167 -1 103.5s-24 54.666 -48 72.999s-58 27.5 -102 27.5c-42 0 -83 -9.16699 -123 -27.5s-77.833 -42.666 -113.5 -72.999s-68 -64.833 -97 -103.5s-53.167 -78.167 -72.5 -118.5
s-32.833 -79.833 -40.5 -118.5s-8.16699 -73.167 -1.5 -103.5s21.5 -54.666 44.5 -72.999s55.833 -27.5 98.5 -27.5zM526.005 82c-8 -12.667 -17.4932 -24.666 -28.4932 -35.999s-23.833 -21.166 -38.5 -29.499s-31.167 -15 -49.5 -20s-38.833 -7.5 -61.5 -7.5
c-46 0 -76.667 18 -92 54s-14 87 4 153c10 36 23.333 68 40 96s35.667 51.667 57 71s44.666 34.166 69.999 44.499s51.666 15.5 78.999 15.5c19.333 0 35 -4 47 -12s20.667 -18.333 26 -31s7.16602 -26.5 5.49902 -41.5s-6.5 -29.833 -14.5 -44.5
c-7.33301 -13.333 -14.833 -24.5 -22.5 -33.5s-15 -16.167 -22 -21.5s-13.5 -9 -19.5 -11s-10.667 -3 -14 -3c-15.333 0 -25.5 6.16699 -30.5 18.5s-3.83301 27.5 3.5 45.5c7.33301 19.333 17.833 34.333 31.5 45s28.5 16 44.5 16h11
c1.33301 3.33301 1.83301 7.16602 1.5 11.499s-2 8.33301 -5 12s-7.66699 6.83398 -14 9.50098s-14.833 4 -25.5 4c-18.667 0 -35.834 -4.83301 -51.501 -14.5s-29.834 -22.334 -42.501 -38.001s-24 -33.834 -34 -54.501s-18.667 -42 -26 -64
c-8.66699 -25.333 -15.167 -49 -19.5 -71s-5.33301 -41 -3 -57s8.66602 -28.667 18.999 -38s26.166 -14 47.499 -14c24 0 45.833 6.83301 65.5 20.5s35.5 29.834 47.5 48.501z" />
    <glyph glyph-name="ordfeminine" unicode="&#xaa;" horiz-adv-x="603" 
d="M433 683c26 0 45.6641 -9.33301 58.9971 -28c2 4.66699 3.5 8.83398 4.5 12.501s2.16699 6.16699 3.5 7.5h110c-2 -6 -6 -16.333 -12 -31l-21 -50.5l-25 -60.5l-24.5 -59.5l-20 -48c-5.66699 -13.667 -9.16699 -22.5 -10.5 -26.5
c-5.33301 -12.667 -4.66602 -21.667 2.00098 -27s15.667 -7 27 -5s23.833 8 37.5 18s24.834 24 33.501 42l17 -28c-6.66699 -16 -15.834 -30.833 -27.501 -44.5s-24.667 -25.5 -39 -35.5s-29.666 -18 -45.999 -24s-32.5 -9 -48.5 -9c-20.667 0 -37.5 4.33301 -50.5 13
s-21.167 21.667 -24.5 39c-19.333 -16 -38.833 -28.667 -58.5 -38s-38.5 -14 -56.5 -14c-22.667 0 -41.167 5.16699 -55.5 15.5s-24.5 24.5 -30.5 42.5s-7.83301 39.167 -5.5 63.5s9.5 50.166 21.5 77.499c28.667 68 64.334 118 107.001 150s87 48 133 48zM474.997 616
c-6 9.33301 -15.6641 13.999 -28.9971 13.999c-12.667 0 -24.5 -2.5 -35.5 -7.5s-22 -13 -33 -24s-22.167 -25.5 -33.5 -43.5s-23.333 -40 -36 -66c-10 -19.333 -17.833 -37.5 -23.5 -54.5s-8.83398 -31.833 -9.50098 -44.5s1.5 -22.667 6.5 -30s13.167 -11 24.5 -11
s23.666 3.33301 36.999 10s26.666 16 39.999 28c2 8.66699 5 17.334 9 26.001z" />
    <glyph glyph-name="guillemotleft" unicode="&#xab;" horiz-adv-x="594" 
d="M114 275l294 141l23 -57l-270 -127l116 -134l-64 -73l-139 184zM314 275l294 141l23 -57l-270 -127l116 -134l-64 -73l-139 184z" />
    <glyph glyph-name="logicalnot" unicode="&#xac;" 
d="M79 223h282l-69 -164h-74l42 95h-210z" />
    <glyph glyph-name="uni00AD" unicode="&#xad;" horiz-adv-x="270" 
d="M79 223h162l-29 -69h-162z" />
    <glyph glyph-name="registered" unicode="&#xae;" horiz-adv-x="833" 
d="M573 563c52 0 93.1719 -10.5 123.505 -31.5s51.166 -48.5 62.499 -82.5s14.166 -73 8.49902 -117s-18.334 -88.667 -38.001 -134s-45.5 -90 -77.5 -134s-68.5 -83 -109.5 -117s-85.833 -61.5 -134.5 -82.5s-99.334 -31.5 -152.001 -31.5s-94 10.5 -124 31.5
s-50.333 48.5 -61 82.5s-12.834 73 -6.50098 117s19.666 88.667 39.999 134s46.666 90 78.999 134s68.833 83 109.5 117s84.834 61.5 132.501 82.5s96.834 31.5 147.501 31.5zM258.005 -126c44.667 0 87.834 9.16699 129.501 27.5s80.667 42.666 117 72.999
s69.166 64.833 98.499 103.5s53.333 78.167 72 118.5s31.667 79.833 39 118.5s7 73.167 -1 103.5s-24 54.666 -48 72.999s-58 27.5 -102 27.5c-42 0 -83 -9.16699 -123 -27.5s-77.833 -42.666 -113.5 -72.999s-68 -64.833 -97 -103.5s-53.167 -78.167 -72.5 -118.5
s-32.833 -79.833 -40.5 -118.5s-8.16699 -73.167 -1.5 -103.5s21.5 -54.666 44.5 -72.999s55.833 -27.5 98.5 -27.5zM454.005 13c-27.333 0 -43.8291 9.99707 -49.4961 29.9971s-3.5 44.667 6.5 74c7.33301 26 11.5 44.5 12.5 55.5s-1.16699 18.833 -6.5 23.5
c-19.333 -4.66699 -34.666 -5.33398 -45.999 -2.00098l-46 -111c-4.66699 -10 -5.33398 -18.167 -2.00098 -24.5s10.333 -9.5 21 -9.5h7l-14 -31c-4.66699 -1.33301 -9 -2.33301 -13 -3s-8.16699 -1.16699 -12.5 -1.5s-8.83301 -0.5 -13.5 -0.5c-54 0 -68.333 30.667 -43 92
l87 214l74 45c-10.667 -2.66699 -21.834 -5.83398 -33.501 -9.50098s-23.334 -8.16699 -35.001 -13.5s-22.667 -11.166 -33 -17.499s-19.5 -13.5 -27.5 -21.5l-14 15l37 52c23.333 9.33301 47.833 16.166 73.5 20.499s54.5 6.5 86.5 6.5c35.333 0 62 -8.66699 80 -26
s22 -41.666 12 -72.999c-2.66699 -9.33301 -7.33398 -18.166 -14.001 -26.499s-14.334 -16.166 -23.001 -23.499s-17.667 -13.833 -27 -19.5s-18 -9.83398 -26 -12.501l-7 -3c13.333 -5.33301 22.666 -14 27.999 -26s4.33301 -28.333 -3 -49
c-9.33301 -23.333 -12.666 -40 -9.99902 -50s9 -15 19 -15c8 0 17.833 3.5 29.5 10.5s21.834 17.833 30.501 32.5l11 -19c-4.66699 -11.333 -11.334 -22.166 -20.001 -32.499s-18.167 -19.166 -28.5 -26.499s-21.333 -13.166 -33 -17.499s-23.167 -6.5 -34.5 -6.5z
M456.009 369.997c-5.33301 0 -9.66602 -0.333984 -12.999 -1.00098l-57 -139c3.33301 0.666992 7.16602 0.833984 11.499 0.500977s9.16602 -0.833008 14.499 -1.5c18 0 33.667 7.33301 47 22s23.333 31.667 30 51c6.66699 22 5.83398 38.833 -2.49902 50.5
s-18.5 17.5 -30.5 17.5z" />
    <glyph glyph-name="macron" unicode="&#xaf;" 
d="M99 555h282l-29 -69h-282z" />
    <glyph glyph-name="degree" unicode="&#xb0;" horiz-adv-x="275" 
d="M247 319c0 18.667 -6.5 34.5 -19.5 47.5s-28.833 19.5 -47.5 19.5s-34.5 -6.5 -47.5 -19.5s-19.5 -28.833 -19.5 -47.5c0 -18 6.5 -33.5 19.5 -46.5s28.833 -19.5 47.5 -19.5s34.5 6.5 47.5 19.5s19.5 28.5 19.5 46.5zM291 319c0 -14.667 -3 -28.667 -9 -42
s-14 -25 -24 -35s-21.667 -17.833 -35 -23.5s-27.666 -8.5 -42.999 -8.5s-29.666 2.83301 -42.999 8.5s-25 13.5 -35 23.5s-18 21.667 -24 35s-9 27.333 -9 42c0 15.333 3 29.666 9 42.999s14 25 24 35s21.667 18 35 24s27.666 9 42.999 9s29.666 -3 42.999 -9
s25 -14 35 -24s18 -21.667 24 -35s9 -27.666 9 -42.999z" />
    <glyph glyph-name="plusminus" unicode="&#xb1;" 
d="M327 389l-41 -96h105l-29 -69h-105l-40 -95h-74l40 95h-103l29 69h103l40 96h75zM29 83h282l-29 -69h-282z" />
    <glyph glyph-name="twosuperior" unicode="&#xb2;" horiz-adv-x="313" 
d="M320 521c30 0 52.4971 -5.50293 67.4971 -16.5029s23.5 -25 25.5 -42s-2 -36.167 -12 -57.5s-24.5 -42.166 -43.5 -62.499s-42.167 -39 -69.5 -56s-57.666 -30.167 -90.999 -39.5h141l-36 -87h-253l37 87h28c19.333 0 39.333 5.33301 60 16s40 24.167 58 40.5
s33.667 33.833 47 52.5s22.333 36.167 27 52.5s4 29.833 -2 40.5s-19 16 -39 16c-7.33301 0 -14.833 -1.16699 -22.5 -3.5s-15.5 -5.16602 -23.5 -8.49902c8.66699 -5.33301 13.834 -13.666 15.501 -24.999s-0.166016 -24.333 -5.49902 -39
c-8.66699 -21.333 -20.5 -38 -35.5 -50s-31.167 -18 -48.5 -18c-16.667 0 -28 6.66699 -34 20s-4.33301 29.333 5 48c10 22 23.5 41.333 40.5 58s35.167 30.5 54.5 41.5s38.5 19.167 57.5 24.5s36.167 8 51.5 8z" />
    <glyph glyph-name="threesuperior" unicode="&#xb3;" horiz-adv-x="313" 
d="M330 512c30 -4.66699 49.998 -16.3252 59.998 -34.9922s12 -38.834 6 -60.501s-19.333 -42.5 -40 -62.5s-46.667 -33.667 -78 -41c18.667 -9.33301 32.167 -23 40.5 -41s11.833 -37.5 10.5 -58.5s-7.5 -42 -18.5 -63s-26.167 -39.333 -45.5 -55
s-42.5 -26.834 -69.5 -33.501s-57.5 -6.33398 -91.5 0.999023c-28.667 6.66699 -46.834 23 -54.501 49s-2.83398 55.333 14.499 88c11.333 22.667 25.166 39 41.499 49s31.333 14.833 45 14.5s23.834 -5.5 30.501 -15.5s6 -24 -2 -42
c-9.33301 -21.333 -22.666 -37.333 -39.999 -48s-34.666 -13.334 -51.999 -8.00098c-1.33301 -3.33301 -1.83301 -7.33301 -1.5 -12s1.16602 -9.33398 2.49902 -14.001s3.66602 -9 6.99902 -13s8 -6.66699 14 -8c19.333 -4.66699 38.833 0.166016 58.5 14.499
s36.167 32.333 49.5 54s21.5 44 24.5 67s-2.16699 41.167 -15.5 54.5c-11.333 -4 -22.666 -7.16699 -33.999 -9.5s-21.5 -3.33301 -30.5 -3s-16.333 2 -22 5s-8.5 7.16699 -8.5 12.5c0 8.66699 7.83301 16.667 23.5 24s43.167 8.66602 82.5 3.99902
c20.667 9.33301 37.167 21.166 49.5 35.499s20.333 28.5 24 42.5s2.83398 26.667 -2.49902 38s-15.333 18.333 -30 21c-5.33301 1.33301 -11.333 1.33301 -18 0s-14 -3 -22 -5c8 -2 12.833 -8.66699 14.5 -20s-1.16602 -23.666 -8.49902 -36.999
c-9.33301 -18 -21.166 -30.667 -35.499 -38s-27.333 -10 -39 -8s-20 8.16699 -25 18.5s-2.83301 24.5 6.5 42.5c11.333 20.667 24.833 37.5 40.5 50.5s31.667 23.167 48 30.5s32.5 12.166 48.5 14.499s30 2.5 42 0.5z" />
    <glyph glyph-name="acute" unicode="&#xb4;" 
d="M104 470l179 163l61 -106l-220 -96z" />
    <glyph glyph-name="mu" unicode="&#xb5;" horiz-adv-x="390" 
d="M290 106c-5.33301 -12.667 -4.66504 -21.665 2.00195 -26.998s15.834 -7 27.501 -5s24.167 8 37.5 18s24.333 24 33 42l17 -28c-6.66699 -16 -15.834 -30.833 -27.501 -44.5s-24.667 -25.5 -39 -35.5s-29.666 -18 -45.999 -24s-32.5 -9 -48.5 -9
c-20.667 0 -37.334 4.33301 -50.001 13s-20.667 21.667 -24 39c-16.667 -16 -35.5 -28.667 -56.5 -38s-41.5 -14 -61.5 -14s-37 4.33301 -51 13l-22 -180h-92l176 468c6 13.333 7 24.166 3 32.499s-13.667 12.5 -29 12.5h-10l20 43c5.33301 1.33301 11 2.66602 17 3.99902
c5.33301 1.33301 11.166 2.33301 17.499 3s13.166 1 20.499 1c38 0 61.667 -10.5 71 -31.5s4.66602 -53.5 -14.001 -97.5l-16.5 -41l-21.5 -52l-25 -62c-4 -11.333 -3.83301 -19.833 0.5 -25.5s10.833 -8.5 19.5 -8.5s18.667 2.83301 30 8.5s22 14.167 32 25.5
c0.666992 2.66699 1.33398 5 2.00098 7s1.66699 4.33301 3 7l108 262h111z" />
    <glyph glyph-name="paragraph" unicode="&#xb6;" horiz-adv-x="534" 
d="M46 -174l165.999 474.002c-29.333 5.33301 -50.833 15.666 -64.5 30.999s-21 33.166 -22 53.499s3.66699 41.5 14 63.5s25.333 42.167 45 60.5s43.334 33.5 71.001 45.5s58.167 18 91.5 18h202l-29 -69h-25l-238 -677h-74l237 677h-62l-238 -677h-74z" />
    <glyph glyph-name="periodcentered" unicode="&#xb7;" horiz-adv-x="290" 
d="M217 219c0 -18 -6.5 -33.5 -19.5 -46.5s-28.833 -19.5 -47.5 -19.5s-34.5 6.5 -47.5 19.5s-19.5 28.5 -19.5 46.5c0 18.667 6.5 34.5 19.5 47.5s28.833 19.5 47.5 19.5s34.5 -6.5 47.5 -19.5s19.5 -28.833 19.5 -47.5z" />
    <glyph glyph-name="cedilla" unicode="&#xb8;" horiz-adv-x="304" 
d="M122 -23l52.001 78.9951l51 -9l-52 -79c7.33301 -3.33301 14.5 -6.83301 21.5 -10.5s13.833 -8.16699 20.5 -13.5c16 -12 26.667 -25 32 -39s6.66602 -27.667 3.99902 -41s-9 -25.5 -19 -36.5s-22.333 -19.5 -37 -25.5s-30.667 -9.16699 -48 -9.5s-34.5 1.66699 -51.5 6
s-33.5 10.833 -49.5 19.5s-29.667 19.334 -41 32.001l42 67c20 -15.333 39.833 -25.666 59.5 -30.999s36.334 -7.16602 50.001 -5.49902s22.667 6 27 13s1.5 15.5 -8.5 25.5c-9.33301 8.66699 -20.833 15.834 -34.5 21.501s-27.834 10.834 -42.501 15.501z" />
    <glyph glyph-name="onesuperior" unicode="&#xb9;" horiz-adv-x="240" 
d="M41 199l64 -0.000976562l20.5 51l27.5 67.5l26 64c8 19.667 13.667 33.167 17 40.5c5.33301 12 6.16602 21.667 2.49902 29s-12.167 11 -25.5 11h-9l18 39c4.66699 0.666992 9.66699 1.66699 15 3c4.66699 0.666992 9.83398 1.33398 15.501 2.00098s11.5 1 17.5 1
c34 0 55.167 -9.16699 63.5 -27.5s4.5 -47.5 -11.5 -87.5l-15.5 -37l-22.5 -54l-23.5 -56.5l-18.5 -45.5h65l-16 -39h-226z" />
    <glyph glyph-name="ordmasculine" unicode="&#xba;" horiz-adv-x="330" 
d="M306 508c22 0 40.8291 -3.83594 56.4961 -11.5029s27.5 -19 35.5 -34s11.667 -33.5 11 -55.5s-7 -47.333 -19 -76c-48.667 -118 -118.667 -177 -210 -177c-47.333 0 -78 18 -92 54s-8 84.667 18 146c12.667 30.667 26.334 55.834 41.001 75.501
s30.334 35.334 47.001 47.001s34.334 19.834 53.001 24.501s38.334 7 59.001 7zM295.996 342.997c15.333 40 23 71.499 23 94.499s-7 34.5 -21 34.5c-17.333 0 -34.333 -12.167 -51 -36.5s-32 -53.833 -46 -88.5c-8 -19.333 -14.833 -38.5 -20.5 -57.5
s-9.5 -36.167 -11.5 -51.5s-1.5 -27.666 1.5 -36.999s9.5 -14 19.5 -14c16 0 32.667 13.5 50 40.5s36 65.5 56 115.5z" />
    <glyph glyph-name="guillemotright" unicode="&#xbb;" horiz-adv-x="590" 
d="M331 166l-294 -141l-23 57l270 127l-116 134l64 73l139 -184zM531 166l-294 -141l-23 57l270 127l-116 134l64 73l139 -184z" />
    <glyph glyph-name="onequarter" unicode="&#xbc;" horiz-adv-x="1107" 
d="M1038 244l-28.498 -68.0039l-32 -77.5l-32.5 -78l-29 -69.5l-21.5 -52.5l-10.5 -26.5h-122l106 257c-14 -14 -29 -27.667 -45 -41s-32 -25.166 -48 -35.499s-31.833 -18.666 -47.5 -24.999s-29.834 -9.5 -42.501 -9.5c-18 0 -32.333 3 -43 9s-17.167 15 -19.5 27
s0 26.833 7 44.5s19.167 37.834 36.5 60.501l28.5 37l38 49.5l37 48l26.5 33.5c11.333 15.333 16.333 27.5 15 36.5s-10.333 13.5 -27 13.5h-11l39 49l21 4c6 1.33301 12.667 2.33301 20 3s14.666 1 21.999 1c42 0 64.5 -11.5 67.5 -34.5s-14.5 -59.5 -52.5 -109.5
c-8 -11.333 -18.5 -25.166 -31.5 -41.499l-37.5 -47.5l-44 -56c-10 -14 -12.333 -22.167 -7 -24.5s14.833 -0.333008 28.5 6s29.667 16.333 48 30s35.833 29.5 52.5 47.5l17 40h122zM51.002 158.996l80.0029 0.000976562l114 278c6.66699 15.333 7.66699 27.5 3 36.5
s-15.334 13.5 -32.001 13.5h-11l23 49c6 1.33301 12.333 2.66602 19 3.99902c5.33301 1.33301 11.666 2.33301 18.999 3s14.666 1 21.999 1c42 0 68.333 -11.5 79 -34.5s5.66699 -59.5 -15 -109.5l-18.5 -46l-27.5 -67l-29.5 -71l-23.5 -57h81l-20 -49h-283z
M847.005 547.997l-539 -622h-84l538 622h85z" />
    <glyph glyph-name="onehalf" unicode="&#xbd;" horiz-adv-x="1086" 
d="M915 451c37.333 0 65.333 -6.83008 84 -20.4971s29.334 -31.167 32.001 -52.5s-2 -45 -14 -71s-29.833 -51.667 -53.5 -77s-52.5 -48.833 -86.5 -70.5s-71.667 -38.5 -113 -50.5h174l-45 -109h-317l46 109h36c24 0 48.833 6.66699 74.5 20s49.667 30.166 72 50.499
s41.833 42.166 58.5 65.499s28 45.166 34 65.499s5.33301 37.166 -2 50.499s-23.666 20 -48.999 20c-8.66699 0 -17.834 -1.33301 -27.501 -4s-19.5 -6.33398 -29.5 -11.001c10.667 -6.66699 17.167 -17.167 19.5 -31.5s-0.166992 -30.5 -7.5 -48.5
c-10.667 -26.667 -25.334 -47.5 -44.001 -62.5s-39 -22.5 -61 -22.5c-20.667 0 -34.667 8.33301 -42 25s-5.33301 36.667 6 60c12.667 28 29.5 52.333 50.5 73s43.5 37.834 67.5 51.501s48.167 23.834 72.5 30.501s45.833 10 64.5 10zM51 159.003l80.0029 0.000976562
l114 278c6.66699 15.333 7.66699 27.5 3 36.5s-15.334 13.5 -32.001 13.5h-11l23 49c6 1.33301 12.333 2.66602 19 3.99902c5.33301 1.33301 11.666 2.33301 18.999 3s14.666 1 21.999 1c42 0 68.333 -11.5 79 -34.5s5.66699 -59.5 -15 -109.5l-18.5 -46l-27.5 -67
l-29.5 -71l-23.5 -57h81l-20 -49h-283zM817.003 548.004l-539 -622h-84l538 622h85z" />
    <glyph glyph-name="threequarters" unicode="&#xbe;" horiz-adv-x="1198" 
d="M413 550c24.667 -4 44 -12.0039 58 -24.0039s23 -26.167 27 -42.5s3.33301 -33.833 -2 -52.5s-14.666 -36.667 -27.999 -54s-30.166 -32.833 -50.499 -46.5s-43.5 -23.5 -69.5 -29.5c23.333 -11.333 40.166 -28.333 50.499 -51s14.5 -47.167 12.5 -73.5
s-9.83301 -52.666 -23.5 -78.999s-32.5 -49.166 -56.5 -68.499s-52.833 -33.166 -86.5 -41.499s-71.834 -7.83301 -114.501 1.5c-18 4 -32.667 11.333 -44 22s-19.333 23.667 -24 39s-5.5 32.5 -2.5 51.5s9.83301 38.5 20.5 58.5c14 28 31.167 48.333 51.5 61
s39 18.667 56 18s29.667 -7.16699 38 -19.5s7.83301 -29.5 -1.5 -51.5c-6 -13.333 -13.167 -25.166 -21.5 -35.499s-17.666 -18.666 -27.999 -24.999s-21.166 -10.333 -32.499 -12s-22.333 -0.833984 -33 2.49902c-1.33301 -4 -2 -9 -2 -15s1 -12 3 -18s5 -11.333 9 -16
s9.66699 -8 17 -10c16 -4 32.5 -2.5 49.5 4.5s32.667 17.5 47 31.5s27.166 30.333 38.499 49s19.666 37.5 24.999 56.5s7.16602 37 5.49902 54s-8.16699 30.833 -19.5 41.5c-14 -5.33301 -28.167 -9.33301 -42.5 -12s-27 -3.66699 -38 -3s-20 2.66699 -27 6
s-10.5 8.33301 -10.5 15c0 5.33301 2.16699 10.833 6.5 16.5s11.666 10.334 21.999 14.001s24 6 41 7s37.833 0.166992 62.5 -2.5c26 12 46.833 27 62.5 45s25.834 35.833 30.501 53.5s3.5 33.5 -3.5 47.5s-19.833 22.667 -38.5 26
c-6.66699 1.33301 -14.167 1.33301 -22.5 0s-17.166 -3.66602 -26.499 -6.99902c9.33301 -2.66699 15 -11 17 -25s-1.33301 -29.333 -10 -46c-11.333 -22 -26 -37.667 -44 -47s-34.333 -12.833 -49 -10.5s-25.167 10 -31.5 23s-3.5 30.833 8.5 53.5
c14 26 30.833 47.167 50.5 63.5s39.667 29.166 60 38.499s40.5 15.166 60.5 17.499s37.667 2.5 53 0.5zM1129 243.996l-27.998 -68.0039l-32.5 -77.5l-32.5 -78l-29 -69.5l-21.5 -52.5l-10.5 -26.5h-122l106 257c-14 -14 -29 -27.667 -45 -41s-32 -25.166 -48 -35.499
s-31.833 -18.666 -47.5 -24.999s-29.834 -9.5 -42.501 -9.5c-18 0 -32.333 3 -43 9s-17.167 15 -19.5 27s0 26.833 7 44.5s19.167 37.834 36.5 60.501l28.5 37l38 49.5l37 48l26.5 33.5c11.333 15.333 16.333 27.5 15 36.5s-10.333 13.5 -27 13.5h-11l39 49l21 4
c6 1.33301 12.667 2.33301 20 3s14.666 1 21.999 1c42 0 64.5 -11.5 67.5 -34.5s-14.5 -59.5 -52.5 -109.5c-8 -11.333 -18.5 -25.166 -31.5 -41.499l-37.5 -47.5l-44 -56c-10 -14 -12.333 -22.167 -7 -24.5s14.833 -0.333008 28.5 6s29.667 16.333 48 30
s35.833 29.5 52.5 47.5l17 40h122zM938.002 547.992l-539 -622h-84l538 622h85z" />
    <glyph glyph-name="questiondown" unicode="&#xbf;" horiz-adv-x="428" 
d="M331 489c0 18 6.5 33.5 19.5 46.5s28.833 19.5 47.5 19.5s34.5 -6.5 47.5 -19.5s19.5 -28.5 19.5 -46.5c0 -18.667 -6.5 -34.5 -19.5 -47.5s-28.833 -19.5 -47.5 -19.5s-34.5 6.5 -47.5 19.5s-19.5 28.833 -19.5 47.5zM351 331
c-22.667 -6 -45.668 -16.666 -69.001 -31.999s-44.666 -33 -63.999 -53s-35.833 -40.667 -49.5 -62s-22.334 -41 -26.001 -59s-1.66699 -32.833 6 -44.5s23.5 -17.5 47.5 -17.5c8.66699 0 17.834 1.33301 27.501 4s19.5 6.33398 29.5 11.001
c-10.667 6.66699 -17.167 17.167 -19.5 31.5s0.166992 30.5 7.5 48.5c10.667 26.667 25.334 47.5 44.001 62.5s39 22.5 61 22.5c20.667 0 34.667 -8.33301 42 -25s5.33301 -36.667 -6 -60c-12.667 -28 -29.667 -52.333 -51 -73s-44 -37.834 -68 -51.501
s-48 -23.834 -72 -30.501s-45.333 -10 -64 -10c-40.667 0 -70.334 7.83301 -89.001 23.5s-28 35.667 -28 60s8.33301 51 25 80s39.667 56.667 69 83s64.333 49.5 105 69.5s85 33.333 133 40z" />
    <glyph glyph-name="Agrave" unicode="&#xc0;" horiz-adv-x="1420" 
d="M1644 729l-125 -201.995l-53 -85l-52.5 -85.5l-48 -79l-39.5 -65.5l-44.5 -71l-41 -66.5c-12.333 -21 -23 -40.667 -32 -59s-14.5 -33.833 -16.5 -46.5c-2 -12 0.5 -21.5 7.5 -28.5s15.5 -10.5 25.5 -10.5c6.66699 0 14.5 1.83301 23.5 5.5s18 9 27 16
s17.667 15.5 26 25.5s15.166 21.667 20.499 35l26 -37c-7.33301 -20.667 -17 -40.167 -29 -58.5s-26 -34.166 -42 -47.499s-33.5 -24 -52.5 -32s-38.833 -12 -59.5 -12c-32 0 -58.833 5.83301 -80.5 17.5s-35.667 30.167 -42 55.5s-3.66602 58 8.00098 98s34.5 88 68.5 144
l6 11c-34.667 3.33301 -70.667 9.66602 -108 18.999s-75.333 22.333 -114 39l-155 -181.5c-52 -59.667 -105.667 -112.834 -161 -159.501s-113 -84.334 -173 -113.001s-123.667 -43 -191 -43c-56.667 0 -101.334 11.167 -134.001 33.5s-55.5 50.5 -68.5 84.5
s-16.833 70.5 -11.5 109.5s18 75.5 38 109.5s46.167 62.167 78.5 84.5s69.166 33.5 110.499 33.5c19.333 0 34.166 -4.33301 44.499 -13s16.666 -19.5 18.999 -32.5s1.16602 -27 -3.50098 -42s-12.167 -29 -22.5 -42s-23.5 -23.833 -39.5 -32.5s-33.667 -13 -53 -13
c-18.667 0 -32.167 6.33301 -40.5 19s-11.166 28.667 -8.49902 48c-24 -25.333 -41.167 -54.5 -51.5 -87.5s-13.166 -64.333 -8.49902 -94s17 -54.834 37 -75.501s48.333 -31 85 -31c32 0 63.333 6.83301 94 20.5s61.167 32.334 91.5 56.001s60.833 51.667 91.5 84
s62 67.166 94 104.499l98 118l104 124c-41.333 12.667 -82.166 19.667 -122.499 21s-77.5 -7.66699 -111.5 -27c-24 -13.333 -42.333 -29 -55 -47s-20.667 -36.333 -24 -55s-2.16602 -37 3.50098 -55s14.834 -33.667 27.501 -47l-41 -13c-27.333 16 -50 37.833 -68 65.5
s-29.333 57 -34 88s-1.16699 61.833 10.5 92.5s33.167 57 64.5 79c27.333 18.667 57.166 29.667 89.499 33s65.833 1.66602 100.5 -5.00098s69.834 -16.834 105.501 -30.501s70.5 -28.167 104.5 -43.5c48 52 98.5 102 151.5 150s110 90.167 171 126.5
s126.167 65.333 195.5 87s144 32.5 224 32.5zM1162 210.005l80.5029 122.498l88.5 129.5l83 120l65 93c-50.667 -10 -99.334 -28.167 -146.001 -54.5s-91.834 -58.166 -135.501 -95.499s-86.334 -78.666 -128.001 -123.999l-123.5 -141c78 -31.333 150 -48 216 -50z
M1656 741.003l-220 96l61 106l179 -163z" />
    <glyph glyph-name="Aacute" unicode="&#xc1;" horiz-adv-x="1420" 
d="M1644 729l-125 -201.995l-53 -85l-52.5 -85.5l-48 -79l-39.5 -65.5l-44.5 -71l-41 -66.5c-12.333 -21 -23 -40.667 -32 -59s-14.5 -33.833 -16.5 -46.5c-2 -12 0.5 -21.5 7.5 -28.5s15.5 -10.5 25.5 -10.5c6.66699 0 14.5 1.83301 23.5 5.5s18 9 27 16
s17.667 15.5 26 25.5s15.166 21.667 20.499 35l26 -37c-7.33301 -20.667 -17 -40.167 -29 -58.5s-26 -34.166 -42 -47.499s-33.5 -24 -52.5 -32s-38.833 -12 -59.5 -12c-32 0 -58.833 5.83301 -80.5 17.5s-35.667 30.167 -42 55.5s-3.66602 58 8.00098 98s34.5 88 68.5 144
l6 11c-34.667 3.33301 -70.667 9.66602 -108 18.999s-75.333 22.333 -114 39l-155 -181.5c-52 -59.667 -105.667 -112.834 -161 -159.501s-113 -84.334 -173 -113.001s-123.667 -43 -191 -43c-56.667 0 -101.334 11.167 -134.001 33.5s-55.5 50.5 -68.5 84.5
s-16.833 70.5 -11.5 109.5s18 75.5 38 109.5s46.167 62.167 78.5 84.5s69.166 33.5 110.499 33.5c19.333 0 34.166 -4.33301 44.499 -13s16.666 -19.5 18.999 -32.5s1.16602 -27 -3.50098 -42s-12.167 -29 -22.5 -42s-23.5 -23.833 -39.5 -32.5s-33.667 -13 -53 -13
c-18.667 0 -32.167 6.33301 -40.5 19s-11.166 28.667 -8.49902 48c-24 -25.333 -41.167 -54.5 -51.5 -87.5s-13.166 -64.333 -8.49902 -94s17 -54.834 37 -75.501s48.333 -31 85 -31c32 0 63.333 6.83301 94 20.5s61.167 32.334 91.5 56.001s60.833 51.667 91.5 84
s62 67.166 94 104.499l98 118l104 124c-41.333 12.667 -82.166 19.667 -122.499 21s-77.5 -7.66699 -111.5 -27c-24 -13.333 -42.333 -29 -55 -47s-20.667 -36.333 -24 -55s-2.16602 -37 3.50098 -55s14.834 -33.667 27.501 -47l-41 -13c-27.333 16 -50 37.833 -68 65.5
s-29.333 57 -34 88s-1.16699 61.833 10.5 92.5s33.167 57 64.5 79c27.333 18.667 57.166 29.667 89.499 33s65.833 1.66602 100.5 -5.00098s69.834 -16.834 105.501 -30.501s70.5 -28.167 104.5 -43.5c48 52 98.5 102 151.5 150s110 90.167 171 126.5
s126.167 65.333 195.5 87s144 32.5 224 32.5zM1162 210.005l80.5029 122.498l88.5 129.5l83 120l65 93c-50.667 -10 -99.334 -28.167 -146.001 -54.5s-91.834 -58.166 -135.501 -95.499s-86.334 -78.666 -128.001 -123.999l-123.5 -141c78 -31.333 150 -48 216 -50z
M1498 810.003l179 163l61 -106l-220 -96z" />
    <glyph glyph-name="Acircumflex" unicode="&#xc2;" horiz-adv-x="1420" 
d="M1644 729l-125 -201.995l-53 -85l-52.5 -85.5l-48 -79l-39.5 -65.5l-44.5 -71l-41 -66.5c-12.333 -21 -23 -40.667 -32 -59s-14.5 -33.833 -16.5 -46.5c-2 -12 0.5 -21.5 7.5 -28.5s15.5 -10.5 25.5 -10.5c6.66699 0 14.5 1.83301 23.5 5.5s18 9 27 16
s17.667 15.5 26 25.5s15.166 21.667 20.499 35l26 -37c-7.33301 -20.667 -17 -40.167 -29 -58.5s-26 -34.166 -42 -47.499s-33.5 -24 -52.5 -32s-38.833 -12 -59.5 -12c-32 0 -58.833 5.83301 -80.5 17.5s-35.667 30.167 -42 55.5s-3.66602 58 8.00098 98s34.5 88 68.5 144
l6 11c-34.667 3.33301 -70.667 9.66602 -108 18.999s-75.333 22.333 -114 39l-155 -181.5c-52 -59.667 -105.667 -112.834 -161 -159.501s-113 -84.334 -173 -113.001s-123.667 -43 -191 -43c-56.667 0 -101.334 11.167 -134.001 33.5s-55.5 50.5 -68.5 84.5
s-16.833 70.5 -11.5 109.5s18 75.5 38 109.5s46.167 62.167 78.5 84.5s69.166 33.5 110.499 33.5c19.333 0 34.166 -4.33301 44.499 -13s16.666 -19.5 18.999 -32.5s1.16602 -27 -3.50098 -42s-12.167 -29 -22.5 -42s-23.5 -23.833 -39.5 -32.5s-33.667 -13 -53 -13
c-18.667 0 -32.167 6.33301 -40.5 19s-11.166 28.667 -8.49902 48c-24 -25.333 -41.167 -54.5 -51.5 -87.5s-13.166 -64.333 -8.49902 -94s17 -54.834 37 -75.501s48.333 -31 85 -31c32 0 63.333 6.83301 94 20.5s61.167 32.334 91.5 56.001s60.833 51.667 91.5 84
s62 67.166 94 104.499l98 118l104 124c-41.333 12.667 -82.166 19.667 -122.499 21s-77.5 -7.66699 -111.5 -27c-24 -13.333 -42.333 -29 -55 -47s-20.667 -36.333 -24 -55s-2.16602 -37 3.50098 -55s14.834 -33.667 27.501 -47l-41 -13c-27.333 16 -50 37.833 -68 65.5
s-29.333 57 -34 88s-1.16699 61.833 10.5 92.5s33.167 57 64.5 79c27.333 18.667 57.166 29.667 89.499 33s65.833 1.66602 100.5 -5.00098s69.834 -16.834 105.501 -30.501s70.5 -28.167 104.5 -43.5c48 52 98.5 102 151.5 150s110 90.167 171 126.5
s126.167 65.333 195.5 87s144 32.5 224 32.5zM1162 210.005l80.5029 122.498l88.5 129.5l83 120l65 93c-50.667 -10 -99.334 -28.167 -146.001 -54.5s-91.834 -58.166 -135.501 -95.499s-86.334 -78.666 -128.001 -123.999l-123.5 -141c78 -31.333 150 -48 216 -50z
M1675 938.003l26 -144l-120 -1l6 105l-176 -117l-36 49l203 108h97z" />
    <glyph glyph-name="Atilde" unicode="&#xc3;" horiz-adv-x="1420" 
d="M1644 729l-125 -201.995l-53 -85l-52.5 -85.5l-48 -79l-39.5 -65.5l-44.5 -71l-41 -66.5c-12.333 -21 -23 -40.667 -32 -59s-14.5 -33.833 -16.5 -46.5c-2 -12 0.5 -21.5 7.5 -28.5s15.5 -10.5 25.5 -10.5c6.66699 0 14.5 1.83301 23.5 5.5s18 9 27 16
s17.667 15.5 26 25.5s15.166 21.667 20.499 35l26 -37c-7.33301 -20.667 -17 -40.167 -29 -58.5s-26 -34.166 -42 -47.499s-33.5 -24 -52.5 -32s-38.833 -12 -59.5 -12c-32 0 -58.833 5.83301 -80.5 17.5s-35.667 30.167 -42 55.5s-3.66602 58 8.00098 98s34.5 88 68.5 144
l6 11c-34.667 3.33301 -70.667 9.66602 -108 18.999s-75.333 22.333 -114 39l-155 -181.5c-52 -59.667 -105.667 -112.834 -161 -159.501s-113 -84.334 -173 -113.001s-123.667 -43 -191 -43c-56.667 0 -101.334 11.167 -134.001 33.5s-55.5 50.5 -68.5 84.5
s-16.833 70.5 -11.5 109.5s18 75.5 38 109.5s46.167 62.167 78.5 84.5s69.166 33.5 110.499 33.5c19.333 0 34.166 -4.33301 44.499 -13s16.666 -19.5 18.999 -32.5s1.16602 -27 -3.50098 -42s-12.167 -29 -22.5 -42s-23.5 -23.833 -39.5 -32.5s-33.667 -13 -53 -13
c-18.667 0 -32.167 6.33301 -40.5 19s-11.166 28.667 -8.49902 48c-24 -25.333 -41.167 -54.5 -51.5 -87.5s-13.166 -64.333 -8.49902 -94s17 -54.834 37 -75.501s48.333 -31 85 -31c32 0 63.333 6.83301 94 20.5s61.167 32.334 91.5 56.001s60.833 51.667 91.5 84
s62 67.166 94 104.499l98 118l104 124c-41.333 12.667 -82.166 19.667 -122.499 21s-77.5 -7.66699 -111.5 -27c-24 -13.333 -42.333 -29 -55 -47s-20.667 -36.333 -24 -55s-2.16602 -37 3.50098 -55s14.834 -33.667 27.501 -47l-41 -13c-27.333 16 -50 37.833 -68 65.5
s-29.333 57 -34 88s-1.16699 61.833 10.5 92.5s33.167 57 64.5 79c27.333 18.667 57.166 29.667 89.499 33s65.833 1.66602 100.5 -5.00098s69.834 -16.834 105.501 -30.501s70.5 -28.167 104.5 -43.5c48 52 98.5 102 151.5 150s110 90.167 171 126.5
s126.167 65.333 195.5 87s144 32.5 224 32.5zM1162 210.005l80.5029 122.498l88.5 129.5l83 120l65 93c-50.667 -10 -99.334 -28.167 -146.001 -54.5s-91.834 -58.166 -135.501 -95.499s-86.334 -78.666 -128.001 -123.999l-123.5 -141c78 -31.333 150 -48 216 -50z
M1421 816.003c22.667 31.333 49.165 56.666 79.498 75.999s60.833 31.333 91.5 36c20.667 2.66699 35 0.166992 43 -7.5s13.333 -16.5 16 -26.5l7.5 -27.5c2.33301 -8.33301 8.5 -11.833 18.5 -10.5s20 5.66602 30 12.999s18.667 15.333 26 24
c8.66699 10 17.334 21 26.001 33l36 -35c-14.667 -18.667 -30.667 -35.667 -48 -51c-15.333 -13.333 -33.5 -26 -54.5 -38s-43.833 -19.667 -68.5 -23c-16.667 -2 -29.5 -1.66699 -38.5 1s-15.833 6.83398 -20.5 12.501s-7.83398 12 -9.50098 19s-3 13.5 -4 19.5
s-2.66699 10.833 -5 14.5s-6.5 5.16699 -12.5 4.5c-9.33301 -1.33301 -18.666 -5.5 -27.999 -12.5s-17.666 -14.5 -24.999 -22.5c-8.66699 -9.33301 -17 -19.666 -25 -30.999z" />
    <glyph glyph-name="Adieresis" unicode="&#xc4;" horiz-adv-x="1420" 
d="M1644 729l-125 -201.995l-53 -85l-52.5 -85.5l-48 -79l-39.5 -65.5l-44.5 -71l-41 -66.5c-12.333 -21 -23 -40.667 -32 -59s-14.5 -33.833 -16.5 -46.5c-2 -12 0.5 -21.5 7.5 -28.5s15.5 -10.5 25.5 -10.5c6.66699 0 14.5 1.83301 23.5 5.5s18 9 27 16
s17.667 15.5 26 25.5s15.166 21.667 20.499 35l26 -37c-7.33301 -20.667 -17 -40.167 -29 -58.5s-26 -34.166 -42 -47.499s-33.5 -24 -52.5 -32s-38.833 -12 -59.5 -12c-32 0 -58.833 5.83301 -80.5 17.5s-35.667 30.167 -42 55.5s-3.66602 58 8.00098 98s34.5 88 68.5 144
l6 11c-34.667 3.33301 -70.667 9.66602 -108 18.999s-75.333 22.333 -114 39l-155 -181.5c-52 -59.667 -105.667 -112.834 -161 -159.501s-113 -84.334 -173 -113.001s-123.667 -43 -191 -43c-56.667 0 -101.334 11.167 -134.001 33.5s-55.5 50.5 -68.5 84.5
s-16.833 70.5 -11.5 109.5s18 75.5 38 109.5s46.167 62.167 78.5 84.5s69.166 33.5 110.499 33.5c19.333 0 34.166 -4.33301 44.499 -13s16.666 -19.5 18.999 -32.5s1.16602 -27 -3.50098 -42s-12.167 -29 -22.5 -42s-23.5 -23.833 -39.5 -32.5s-33.667 -13 -53 -13
c-18.667 0 -32.167 6.33301 -40.5 19s-11.166 28.667 -8.49902 48c-24 -25.333 -41.167 -54.5 -51.5 -87.5s-13.166 -64.333 -8.49902 -94s17 -54.834 37 -75.501s48.333 -31 85 -31c32 0 63.333 6.83301 94 20.5s61.167 32.334 91.5 56.001s60.833 51.667 91.5 84
s62 67.166 94 104.499l98 118l104 124c-41.333 12.667 -82.166 19.667 -122.499 21s-77.5 -7.66699 -111.5 -27c-24 -13.333 -42.333 -29 -55 -47s-20.667 -36.333 -24 -55s-2.16602 -37 3.50098 -55s14.834 -33.667 27.501 -47l-41 -13c-27.333 16 -50 37.833 -68 65.5
s-29.333 57 -34 88s-1.16699 61.833 10.5 92.5s33.167 57 64.5 79c27.333 18.667 57.166 29.667 89.499 33s65.833 1.66602 100.5 -5.00098s69.834 -16.834 105.501 -30.501s70.5 -28.167 104.5 -43.5c48 52 98.5 102 151.5 150s110 90.167 171 126.5
s126.167 65.333 195.5 87s144 32.5 224 32.5zM1162 210.005l80.5029 122.498l88.5 129.5l83 120l65 93c-50.667 -10 -99.334 -28.167 -146.001 -54.5s-91.834 -58.166 -135.501 -95.499s-86.334 -78.666 -128.001 -123.999l-123.5 -141c78 -31.333 150 -48 216 -50z
M1726 859.003c0 -18 -6.5 -33.5 -19.5 -46.5s-28.833 -19.5 -47.5 -19.5s-34.5 6.5 -47.5 19.5s-19.5 28.5 -19.5 46.5c0 18.667 6.5 34.5 19.5 47.5s28.833 19.5 47.5 19.5s34.5 -6.5 47.5 -19.5s19.5 -28.833 19.5 -47.5zM1560 859.003c0 -18 -6.5 -33.5 -19.5 -46.5
s-28.833 -19.5 -47.5 -19.5s-34.5 6.5 -47.5 19.5s-19.5 28.5 -19.5 46.5c0 18.667 6.5 34.5 19.5 47.5s28.833 19.5 47.5 19.5s34.5 -6.5 47.5 -19.5s19.5 -28.833 19.5 -47.5z" />
    <glyph glyph-name="Aring" unicode="&#xc5;" horiz-adv-x="1420" 
d="M1704 801c0 -24.667 -7.66504 -46.6631 -22.998 -65.9961s-34.666 -32.333 -57.999 -39l-36.5 -59.5l-49.5 -80l-56.5 -91l-57.5 -94l-53.5 -87.5l-43.5 -72l-44.5 -71l-41 -66.5c-12.333 -21 -23 -40.667 -32 -59s-14.5 -33.833 -16.5 -46.5c-2 -12 0.5 -21.5 7.5 -28.5
s15.5 -10.5 25.5 -10.5c6.66699 0 14.5 1.83301 23.5 5.5s18 9 27 16s17.667 15.5 26 25.5s15.166 21.667 20.499 35l26 -37c-7.33301 -20.667 -17 -40.167 -29 -58.5s-26 -34.166 -42 -47.499s-33.5 -24 -52.5 -32s-38.833 -12 -59.5 -12c-32 0 -58.833 5.83301 -80.5 17.5
s-35.667 30.167 -42 55.5s-3.66602 58 8.00098 98s34.5 88 68.5 144l6 11c-34.667 3.33301 -70.667 9.66602 -108 18.999s-75.333 22.333 -114 39l-155 -181.5c-52 -59.667 -105.667 -112.834 -161 -159.501s-113 -84.334 -173 -113.001s-123.667 -43 -191 -43
c-56.667 0 -101.334 11.167 -134.001 33.5s-55.5 50.5 -68.5 84.5s-16.833 70.5 -11.5 109.5s18 75.5 38 109.5s46.167 62.167 78.5 84.5s69.166 33.5 110.499 33.5c19.333 0 34.166 -4.33301 44.499 -13s16.666 -19.5 18.999 -32.5s1.16602 -27 -3.50098 -42
s-12.167 -29 -22.5 -42s-23.5 -23.833 -39.5 -32.5s-33.667 -13 -53 -13c-18.667 0 -32.167 6.33301 -40.5 19s-11.166 28.667 -8.49902 48c-24 -25.333 -41.167 -54.5 -51.5 -87.5s-13.166 -64.333 -8.49902 -94s17 -54.834 37 -75.501s48.333 -31 85 -31
c32 0 63.333 6.83301 94 20.5s61.167 32.334 91.5 56.001s60.833 51.667 91.5 84s62 67.166 94 104.499l98 118l104 124c-41.333 12.667 -82.166 19.667 -122.499 21s-77.5 -7.66699 -111.5 -27c-24 -13.333 -42.333 -29 -55 -47s-20.667 -36.333 -24 -55
s-2.16602 -37 3.50098 -55s14.834 -33.667 27.501 -47l-41 -13c-27.333 16 -50 37.833 -68 65.5s-29.333 57 -34 88s-1.16699 61.833 10.5 92.5s33.167 57 64.5 79c27.333 18.667 57.166 29.667 89.499 33s65.833 1.66602 100.5 -5.00098s69.834 -16.834 105.501 -30.501
s70.5 -28.167 104.5 -43.5c45.333 49.333 93.166 96.833 143.499 142.5s104 86.334 161 122.001s117.667 65 182 88s133.5 36.833 207.5 41.5c-9.33301 9.33301 -16.5 20.333 -21.5 33s-7.5 26 -7.5 40c0 15.333 3 29.666 9 42.999s14 25 24 35s21.667 18 35 24
s27.666 9 42.999 9s29.666 -3 42.999 -9s25 -14 35 -24s18 -21.667 24 -35s9 -27.666 9 -42.999zM1162 210.004l80.5029 122.498l88.5 129.5l83 120l65 93c-50.667 -10 -99.334 -28.167 -146.001 -54.5s-91.834 -58.166 -135.501 -95.499s-86.334 -78.666 -128.001 -123.999
l-123.5 -141c78 -31.333 150 -48 216 -50zM1660 801.002c0 18.667 -6.5 34.5 -19.5 47.5s-28.833 19.5 -47.5 19.5s-34.5 -6.5 -47.5 -19.5s-19.5 -28.833 -19.5 -47.5c0 -18 6.5 -33.5 19.5 -46.5s28.833 -19.5 47.5 -19.5s34.5 6.5 47.5 19.5s19.5 28.5 19.5 46.5z" />
    <glyph glyph-name="AE" unicode="&#xc6;" horiz-adv-x="1727" 
d="M1673 261c-16 -28 -34.999 -52.334 -56.999 -73.001c-9.33301 -8.66699 -20 -17 -32 -25s-25 -14.833 -39 -20.5s-29.167 -9.66699 -45.5 -12s-33.833 -2.16602 -52.5 0.500977c-25.333 3.33301 -49.166 10.166 -71.499 20.499s-44.166 22.166 -65.499 35.499
c-8.66699 -14 -19.334 -30.333 -32.001 -49s-25.167 -38.167 -37.5 -58.5s-23.166 -40.666 -32.499 -60.999s-15 -38.5 -17 -54.5c48 -26.667 100 -48.5 156 -65.5s113 -25.5 171 -25.5c24 0 46 3.16699 66 9.5s37.833 14 53.5 23s28.834 18.667 39.501 29
s18.667 19.5 24 27.5l34 -32c-11.333 -35.333 -28 -66.666 -50 -93.999c-9.33301 -12 -20.166 -23.5 -32.499 -34.5s-26.666 -21 -42.999 -30s-34.5 -16.167 -54.5 -21.5s-42.333 -8 -67 -8c-40 0 -80.167 10.5 -120.5 31.5s-80.5 45.833 -120.5 74.5
c-12.667 -7.33301 -25.834 -13 -39.501 -17s-27.834 -6 -42.501 -6c-32 0 -58.833 5.83301 -80.5 17.5s-35.667 30.167 -42 55.5s-3.66602 58 8.00098 98s34.5 88 68.5 144c22 37.333 49 79.666 81 126.999c-29.333 21.333 -60.666 37.5 -93.999 48.5s-65 17.5 -95 19.5
l-121.5 -142l-120 -142c-40.333 -46 -81.333 -89.5 -123 -130.5s-84.834 -77 -129.501 -108s-91.334 -55.5 -140.001 -73.5s-100 -27 -154 -27c-56.667 0 -101.334 11.167 -134.001 33.5s-55.5 50.5 -68.5 84.5s-16.833 70.5 -11.5 109.5s18 75.5 38 109.5
s46.167 62.167 78.5 84.5s69.166 33.5 110.499 33.5c19.333 0 34.166 -4.33301 44.499 -13s16.666 -19.5 18.999 -32.5s1.16602 -27 -3.50098 -42s-12.167 -29 -22.5 -42s-23.5 -23.833 -39.5 -32.5s-33.667 -13 -53 -13c-18.667 0 -32.167 6.33301 -40.5 19
s-11.166 28.667 -8.49902 48c-24 -25.333 -41.167 -54.5 -51.5 -87.5s-13.166 -64.333 -8.49902 -94s17 -54.834 37 -75.501s48.333 -31 85 -31c35.333 0 70 8.33301 104 25s67.833 39.167 101.5 67.5s67.5 61.666 101.5 99.999l105 122.5l112 135
c38.667 46.667 79 92.334 121 137.001c-26 2 -53 2.5 -81 1.5s-55.333 -4 -82 -9s-51.667 -12.167 -75 -21.5s-42.666 -21.333 -57.999 -36c-20 -18.667 -34 -38.167 -42 -58.5s-11.167 -40 -9.5 -59s7.33398 -36.5 17.001 -52.5s22.167 -29 37.5 -39l-36 -23
c-30.667 8.66699 -58.167 24.334 -82.5 47.001s-42.333 48.5 -54 77.5s-15.834 59.667 -12.501 92s17.666 63.166 42.999 92.499c23.333 26.667 54 44.667 92 54s79 13.5 123 12.5s88.667 -5.33301 134 -13s87.666 -15.167 126.999 -22.5
c44.667 44.667 91.834 87 141.501 127s102.5 75 158.5 105s115.333 53.667 178 71s129.667 26 201 26c42 -11.333 80.5 -20.833 115.5 -28.5s67.833 -13.5 98.5 -17.5s59.834 -5.83301 87.501 -5.5s55.5 2.5 83.5 6.5c23.333 4 44.333 10.667 63 20s35 19.666 49 30.999
s25.5 23 34.5 35s15.5 22.333 19.5 31l39 -27c-5.33301 -36 -16.666 -69.333 -34 -100c-7.33301 -13.333 -16.166 -26.5 -26.5 -39.5c-10.333 -13 -22.833 -25.167 -37.5 -36.5s-31.5 -21.166 -50.5 -29.499s-40.5 -14.5 -64.5 -18.5c-22.667 -4 -47.334 -3.66699 -74.001 1
s-54.5 11.834 -83.5 21.501s-59 21.334 -90 35.001l-93.5 41.5l-53 -85.5l-62 -100.5l-63.5 -103l-57.5 -94c17.333 -6 34.833 -10.667 52.5 -14s36.167 -5 55.5 -5c48 0 86.667 5.5 116 16.5s50.666 23.167 63.999 36.5zM1041 371.999
c31.333 -1.33301 64.1699 -7.16699 98.5029 -17.5s66.166 -21.5 95.499 -33.5l68 101l67.5 97.5l60.5 86.5l48 69c-40 -8 -79.167 -21.5 -117.5 -40.5s-75.833 -42 -112.5 -69s-72.334 -57 -107.001 -90s-68.334 -67.5 -101.001 -103.5z" />
    <glyph glyph-name="Ccedilla" unicode="&#xc7;" horiz-adv-x="831" 
d="M406 -208l25.002 38.9922c-48 14.667 -86.667 37.834 -116 69.501s-50 68.667 -62 111s-16 88.333 -12 138s15.5 100.5 34.5 152.5s45 103.5 78 154.5s72.167 98.833 117.5 143.5c-25.333 0 -50.333 -1 -75 -3s-48.667 -6.33301 -72 -13s-46.333 -16.167 -69 -28.5
s-44.667 -28.833 -66 -49.5c-20.667 -19.333 -35.667 -39.833 -45 -61.5s-13.666 -42.5 -12.999 -62.5s5.5 -38 14.5 -54s21.167 -28 36.5 -36l-43 -22c-12.667 1.33301 -26.667 6.66602 -42 15.999s-29.833 21.666 -43.5 36.999s-25.834 33 -36.501 53s-18 41 -22 63
s-4 44.5 0 67.5s14 45.167 30 66.5c28 38 62.5 63.5 103.5 76.5s84.333 19.167 130 18.5s91.167 -4.5 136.5 -11.5s86.333 -11.5 123 -13.5c32.667 28 68.167 53.333 106.5 76s79 42.334 122 59.001s88.167 29.5 135.5 38.5s96.666 13.5 147.999 13.5
c36.667 0 65.667 -5.5 87 -16.5s35.833 -25.167 43.5 -42.5s9.16699 -37 4.5 -59s-14.5 -44 -29.5 -66s-34.667 -43 -59 -63s-51.833 -36.667 -82.5 -50c-45.333 -19.333 -83.833 -28.666 -115.5 -27.999s-56 7.83398 -73 21.501s-25.833 31.5 -26.5 53.5s8 44.333 26 67
c-14.667 -3.33301 -30 -6.33301 -46 -9c-13.333 -2.66699 -28.666 -5.5 -45.999 -8.5l-53 -9.5c-44.667 -44 -84.334 -93.167 -119.001 -147.5s-63.167 -109.5 -85.5 -165.5s-37.5 -110.333 -45.5 -163s-8 -99.5 0 -140.5s25 -74 51 -99s62.333 -37.5 109 -37.5
c22 0 42.667 3.16699 62 9.5s36.833 14.5 52.5 24.5s29.167 21.333 40.5 34s20 25.334 26 38.001l25 -40c-7.33301 -12 -17.333 -25.167 -30 -39.5s-28.167 -27.5 -46.5 -39.5s-39.333 -22 -63 -30s-49.5 -12 -77.5 -12c-14 0 -27.5 0.666992 -40.5 2s-25.5 3 -37.5 5
l-24 -36c7.33301 -3.33301 14.5 -6.83301 21.5 -10.5s13.833 -8.16699 20.5 -13.5c16 -12 26.667 -25 32 -39s6.66602 -27.667 3.99902 -41s-9 -25.5 -19 -36.5s-22.333 -19.5 -37 -25.5s-30.667 -9.16699 -48 -9.5s-34.5 1.66699 -51.5 6s-33.5 10.833 -49.5 19.5
s-29.667 19.334 -41 32.001l42 67c20 -15.333 39.833 -25.666 59.5 -30.999s36.334 -7.16602 50.001 -5.49902s22.667 6 27 13s1.5 15.5 -8.5 25.5c-9.33301 8.66699 -20.833 15.834 -34.5 21.501s-27.834 10.834 -42.501 15.501zM1020 785.992
c-56.667 0 -110.498 -10.502 -161.498 -31.502s-98.833 -49.5 -143.5 -85.5c34 8 63.667 16.5 89 25.5s46.666 17.167 63.999 24.5c20 8.66699 37 17.334 51 26.001l17 -41c-44 -19.333 -74.333 -40 -91 -62s-22.334 -40.5 -17.001 -55.5s21 -24 47 -27s60 4.83301 102 23.5
c34 14.667 62.833 33.5 86.5 56.5s39 45.333 46 67s3.83301 40.334 -9.5 56.001s-40 23.5 -80 23.5z" />
    <glyph glyph-name="Egrave" unicode="&#xc8;" horiz-adv-x="972" 
d="M948 349c-16 -28 -35.002 -52.3359 -57.002 -73.0029c-9.33301 -8.66699 -20 -17 -32 -25s-25 -14.833 -39 -20.5s-29.167 -9.66699 -45.5 -12s-33.833 -2.16602 -52.5 0.500977c-20 2.66699 -39.333 7.66699 -58 15s-36.667 16 -54 26
c-29.333 -52 -60.333 -102.333 -93 -151s-68.334 -92 -107.001 -130c23.333 -13.333 48 -26.333 74 -39s53.5 -24 82.5 -34s59.833 -18 92.5 -24s68 -9 106 -9c24 0 46 3.16699 66 9.5s37.833 14 53.5 23s28.834 18.667 39.501 29s18.667 19.5 24 27.5l34 -32
c-11.333 -35.333 -28 -66.666 -50 -93.999c-9.33301 -12 -20.166 -23.5 -32.499 -34.5s-26.666 -21 -42.999 -30s-34.5 -16.167 -54.5 -21.5s-42.333 -8 -67 -8c-30.667 0 -61.5 6.33301 -92.5 19s-61.833 28.834 -92.5 48.501s-61.334 41.167 -92.001 64.5l-91 67
c-32.667 -26 -67.5 -46.833 -104.5 -62.5s-77.167 -23.5 -120.5 -23.5c-32.667 0 -59.667 5.5 -81 16.5s-37 24.667 -47 41s-14.167 34.166 -12.5 53.499s8.83398 37.166 21.501 53.499s31 30 55 41s53.667 16.5 89 16.5c23.333 0 46.333 -3.83301 69 -11.5
s45.667 -17.5 69 -29.5c32 42.667 62.833 91 92.5 145l92.5 163c-32 24 -63.333 45.167 -94 63.5s-63 27.5 -97 27.5l18 38c34.667 0 69.167 -7.5 103.5 -22.5s69.166 -31.167 104.499 -48.5c20 32 40.5 62.333 61.5 91s43.333 54.667 67 78s48.5 43 74.5 59
s53.667 27.333 83 34l-87.5 38c-29 12 -57.167 22.167 -84.5 30.5s-53.5 14.333 -78.5 18s-48.5 3.83398 -70.5 0.500977c-30 -4.66699 -55.333 -13.834 -76 -27.501s-36.667 -29.167 -48 -46.5s-18.166 -35.166 -20.499 -53.499s-0.333008 -34.666 6 -48.999
s17.166 -25.5 32.499 -33.5s34.666 -10 57.999 -6c2 0 3.66699 0.666992 5 2c0.666992 0.666992 1.33398 1.66699 2.00098 3c-19.333 0 -31.666 7.5 -36.999 22.5s-4 33.167 4 54.5c10 24.667 23.167 43.667 39.5 57s34.166 20 53.499 20c12 0 21 -3 27 -9
c14.667 -10 23.5 -23 26.5 -39s1.83301 -32.667 -3.5 -50s-14.5 -34.166 -27.5 -50.499s-28.333 -29.5 -46 -39.5s-37.334 -15.667 -59.001 -17s-43.5 4 -65.5 16c-19.333 10 -33.833 23.667 -43.5 41s-15 36 -16 56s2.5 40.5 10.5 61.5s20.167 40.5 36.5 58.5
s36.833 33.333 61.5 46s53.334 21 86.001 25c29.333 3.33301 60.333 2 93 -4s67 -14.167 103 -24.5s73.5 -21.666 112.5 -33.999s79.5 -23 121.5 -32s85 -15.333 129 -19s89.333 -1.83398 136 5.49902c23.333 4 44.333 10.667 63 20s35 19.666 49 30.999s25.5 23 34.5 35
s15.5 22.333 19.5 31l39 -27c-5.33301 -36 -16.666 -69.333 -33.999 -100c-7.33301 -13.333 -16.166 -26.5 -26.499 -39.5s-22.833 -25.167 -37.5 -36.5s-31.5 -21.166 -50.5 -29.499s-40.5 -14.5 -64.5 -18.5c-22 -3.33301 -45.833 -3 -71.5 1s-52.5 10.5 -80.5 19.5
s-56.833 19.833 -86.5 32.5l-89.5 40c-16 -10.667 -32 -25.834 -48 -45.501s-32.167 -42.5 -48.5 -68.5s-32.833 -54.667 -49.5 -86l-52 -97c28 -7.33301 56.333 -11 85 -11c48 0 86.667 5.5 116 16.5s50.666 23.167 63.999 36.5zM111.998 -94.0029
c30.667 0 59.332 8.33105 85.999 24.998s52.667 39.334 78 68.001c-20.667 11.333 -41 20.166 -61 26.499s-39.667 9.5 -59 9.5c-33.333 0 -58.666 -6.66699 -75.999 -20s-27.5 -28.166 -30.5 -44.499s0.833008 -31.166 11.5 -44.499s27.667 -20 51 -20zM992.996 728.995
l-220 96l61 106l179 -163z" />
    <glyph glyph-name="Eacute" unicode="&#xc9;" horiz-adv-x="972" 
d="M948 349c-16 -28 -35.002 -52.3359 -57.002 -73.0029c-9.33301 -8.66699 -20 -17 -32 -25s-25 -14.833 -39 -20.5s-29.167 -9.66699 -45.5 -12s-33.833 -2.16602 -52.5 0.500977c-20 2.66699 -39.333 7.66699 -58 15s-36.667 16 -54 26
c-29.333 -52 -60.333 -102.333 -93 -151s-68.334 -92 -107.001 -130c23.333 -13.333 48 -26.333 74 -39s53.5 -24 82.5 -34s59.833 -18 92.5 -24s68 -9 106 -9c24 0 46 3.16699 66 9.5s37.833 14 53.5 23s28.834 18.667 39.501 29s18.667 19.5 24 27.5l34 -32
c-11.333 -35.333 -28 -66.666 -50 -93.999c-9.33301 -12 -20.166 -23.5 -32.499 -34.5s-26.666 -21 -42.999 -30s-34.5 -16.167 -54.5 -21.5s-42.333 -8 -67 -8c-30.667 0 -61.5 6.33301 -92.5 19s-61.833 28.834 -92.5 48.501s-61.334 41.167 -92.001 64.5l-91 67
c-32.667 -26 -67.5 -46.833 -104.5 -62.5s-77.167 -23.5 -120.5 -23.5c-32.667 0 -59.667 5.5 -81 16.5s-37 24.667 -47 41s-14.167 34.166 -12.5 53.499s8.83398 37.166 21.501 53.499s31 30 55 41s53.667 16.5 89 16.5c23.333 0 46.333 -3.83301 69 -11.5
s45.667 -17.5 69 -29.5c32 42.667 62.833 91 92.5 145l92.5 163c-32 24 -63.333 45.167 -94 63.5s-63 27.5 -97 27.5l18 38c34.667 0 69.167 -7.5 103.5 -22.5s69.166 -31.167 104.499 -48.5c20 32 40.5 62.333 61.5 91s43.333 54.667 67 78s48.5 43 74.5 59
s53.667 27.333 83 34l-87.5 38c-29 12 -57.167 22.167 -84.5 30.5s-53.5 14.333 -78.5 18s-48.5 3.83398 -70.5 0.500977c-30 -4.66699 -55.333 -13.834 -76 -27.501s-36.667 -29.167 -48 -46.5s-18.166 -35.166 -20.499 -53.499s-0.333008 -34.666 6 -48.999
s17.166 -25.5 32.499 -33.5s34.666 -10 57.999 -6c2 0 3.66699 0.666992 5 2c0.666992 0.666992 1.33398 1.66699 2.00098 3c-19.333 0 -31.666 7.5 -36.999 22.5s-4 33.167 4 54.5c10 24.667 23.167 43.667 39.5 57s34.166 20 53.499 20c12 0 21 -3 27 -9
c14.667 -10 23.5 -23 26.5 -39s1.83301 -32.667 -3.5 -50s-14.5 -34.166 -27.5 -50.499s-28.333 -29.5 -46 -39.5s-37.334 -15.667 -59.001 -17s-43.5 4 -65.5 16c-19.333 10 -33.833 23.667 -43.5 41s-15 36 -16 56s2.5 40.5 10.5 61.5s20.167 40.5 36.5 58.5
s36.833 33.333 61.5 46s53.334 21 86.001 25c29.333 3.33301 60.333 2 93 -4s67 -14.167 103 -24.5s73.5 -21.666 112.5 -33.999s79.5 -23 121.5 -32s85 -15.333 129 -19s89.333 -1.83398 136 5.49902c23.333 4 44.333 10.667 63 20s35 19.666 49 30.999s25.5 23 34.5 35
s15.5 22.333 19.5 31l39 -27c-5.33301 -36 -16.666 -69.333 -33.999 -100c-7.33301 -13.333 -16.166 -26.5 -26.499 -39.5s-22.833 -25.167 -37.5 -36.5s-31.5 -21.166 -50.5 -29.499s-40.5 -14.5 -64.5 -18.5c-22 -3.33301 -45.833 -3 -71.5 1s-52.5 10.5 -80.5 19.5
s-56.833 19.833 -86.5 32.5l-89.5 40c-16 -10.667 -32 -25.834 -48 -45.501s-32.167 -42.5 -48.5 -68.5s-32.833 -54.667 -49.5 -86l-52 -97c28 -7.33301 56.333 -11 85 -11c48 0 86.667 5.5 116 16.5s50.666 23.167 63.999 36.5zM111.998 -94.0029
c30.667 0 59.332 8.33105 85.999 24.998s52.667 39.334 78 68.001c-20.667 11.333 -41 20.166 -61 26.499s-39.667 9.5 -59 9.5c-33.333 0 -58.666 -6.66699 -75.999 -20s-27.5 -28.166 -30.5 -44.499s0.833008 -31.166 11.5 -44.499s27.667 -20 51 -20zM894.996 796.995
l179 163l61 -106l-220 -96z" />
    <glyph glyph-name="Ecircumflex" unicode="&#xca;" horiz-adv-x="972" 
d="M948 349c-16 -28 -35.002 -52.3359 -57.002 -73.0029c-9.33301 -8.66699 -20 -17 -32 -25s-25 -14.833 -39 -20.5s-29.167 -9.66699 -45.5 -12s-33.833 -2.16602 -52.5 0.500977c-20 2.66699 -39.333 7.66699 -58 15s-36.667 16 -54 26
c-29.333 -52 -60.333 -102.333 -93 -151s-68.334 -92 -107.001 -130c23.333 -13.333 48 -26.333 74 -39s53.5 -24 82.5 -34s59.833 -18 92.5 -24s68 -9 106 -9c24 0 46 3.16699 66 9.5s37.833 14 53.5 23s28.834 18.667 39.501 29s18.667 19.5 24 27.5l34 -32
c-11.333 -35.333 -28 -66.666 -50 -93.999c-9.33301 -12 -20.166 -23.5 -32.499 -34.5s-26.666 -21 -42.999 -30s-34.5 -16.167 -54.5 -21.5s-42.333 -8 -67 -8c-30.667 0 -61.5 6.33301 -92.5 19s-61.833 28.834 -92.5 48.501s-61.334 41.167 -92.001 64.5l-91 67
c-32.667 -26 -67.5 -46.833 -104.5 -62.5s-77.167 -23.5 -120.5 -23.5c-32.667 0 -59.667 5.5 -81 16.5s-37 24.667 -47 41s-14.167 34.166 -12.5 53.499s8.83398 37.166 21.501 53.499s31 30 55 41s53.667 16.5 89 16.5c23.333 0 46.333 -3.83301 69 -11.5
s45.667 -17.5 69 -29.5c32 42.667 62.833 91 92.5 145l92.5 163c-32 24 -63.333 45.167 -94 63.5s-63 27.5 -97 27.5l18 38c34.667 0 69.167 -7.5 103.5 -22.5s69.166 -31.167 104.499 -48.5c20 32 40.5 62.333 61.5 91s43.333 54.667 67 78s48.5 43 74.5 59
s53.667 27.333 83 34l-87.5 38c-29 12 -57.167 22.167 -84.5 30.5s-53.5 14.333 -78.5 18s-48.5 3.83398 -70.5 0.500977c-30 -4.66699 -55.333 -13.834 -76 -27.501s-36.667 -29.167 -48 -46.5s-18.166 -35.166 -20.499 -53.499s-0.333008 -34.666 6 -48.999
s17.166 -25.5 32.499 -33.5s34.666 -10 57.999 -6c2 0 3.66699 0.666992 5 2c0.666992 0.666992 1.33398 1.66699 2.00098 3c-19.333 0 -31.666 7.5 -36.999 22.5s-4 33.167 4 54.5c10 24.667 23.167 43.667 39.5 57s34.166 20 53.499 20c12 0 21 -3 27 -9
c14.667 -10 23.5 -23 26.5 -39s1.83301 -32.667 -3.5 -50s-14.5 -34.166 -27.5 -50.499s-28.333 -29.5 -46 -39.5s-37.334 -15.667 -59.001 -17s-43.5 4 -65.5 16c-19.333 10 -33.833 23.667 -43.5 41s-15 36 -16 56s2.5 40.5 10.5 61.5s20.167 40.5 36.5 58.5
s36.833 33.333 61.5 46s53.334 21 86.001 25c29.333 3.33301 60.333 2 93 -4s67 -14.167 103 -24.5s73.5 -21.666 112.5 -33.999s79.5 -23 121.5 -32s85 -15.333 129 -19s89.333 -1.83398 136 5.49902c23.333 4 44.333 10.667 63 20s35 19.666 49 30.999s25.5 23 34.5 35
s15.5 22.333 19.5 31l39 -27c-5.33301 -36 -16.666 -69.333 -33.999 -100c-7.33301 -13.333 -16.166 -26.5 -26.499 -39.5s-22.833 -25.167 -37.5 -36.5s-31.5 -21.166 -50.5 -29.499s-40.5 -14.5 -64.5 -18.5c-22 -3.33301 -45.833 -3 -71.5 1s-52.5 10.5 -80.5 19.5
s-56.833 19.833 -86.5 32.5l-89.5 40c-16 -10.667 -32 -25.834 -48 -45.501s-32.167 -42.5 -48.5 -68.5s-32.833 -54.667 -49.5 -86l-52 -97c28 -7.33301 56.333 -11 85 -11c48 0 86.667 5.5 116 16.5s50.666 23.167 63.999 36.5zM1127 906.997l26 -144l-120 -1l6 105
l-176 -117l-36 49l203 108h97zM111.998 -94.0029c30.667 0 59.332 8.33105 85.999 24.998s52.667 39.334 78 68.001c-20.667 11.333 -41 20.166 -61 26.499s-39.667 9.5 -59 9.5c-33.333 0 -58.666 -6.66699 -75.999 -20s-27.5 -28.166 -30.5 -44.499
s0.833008 -31.166 11.5 -44.499s27.667 -20 51 -20z" />
    <glyph glyph-name="Edieresis" unicode="&#xcb;" horiz-adv-x="972" 
d="M948 349c-16 -28 -35.002 -52.3359 -57.002 -73.0029c-9.33301 -8.66699 -20 -17 -32 -25s-25 -14.833 -39 -20.5s-29.167 -9.66699 -45.5 -12s-33.833 -2.16602 -52.5 0.500977c-20 2.66699 -39.333 7.66699 -58 15s-36.667 16 -54 26
c-29.333 -52 -60.333 -102.333 -93 -151s-68.334 -92 -107.001 -130c23.333 -13.333 48 -26.333 74 -39s53.5 -24 82.5 -34s59.833 -18 92.5 -24s68 -9 106 -9c24 0 46 3.16699 66 9.5s37.833 14 53.5 23s28.834 18.667 39.501 29s18.667 19.5 24 27.5l34 -32
c-11.333 -35.333 -28 -66.666 -50 -93.999c-9.33301 -12 -20.166 -23.5 -32.499 -34.5s-26.666 -21 -42.999 -30s-34.5 -16.167 -54.5 -21.5s-42.333 -8 -67 -8c-30.667 0 -61.5 6.33301 -92.5 19s-61.833 28.834 -92.5 48.501s-61.334 41.167 -92.001 64.5l-91 67
c-32.667 -26 -67.5 -46.833 -104.5 -62.5s-77.167 -23.5 -120.5 -23.5c-32.667 0 -59.667 5.5 -81 16.5s-37 24.667 -47 41s-14.167 34.166 -12.5 53.499s8.83398 37.166 21.501 53.499s31 30 55 41s53.667 16.5 89 16.5c23.333 0 46.333 -3.83301 69 -11.5
s45.667 -17.5 69 -29.5c32 42.667 62.833 91 92.5 145l92.5 163c-32 24 -63.333 45.167 -94 63.5s-63 27.5 -97 27.5l18 38c34.667 0 69.167 -7.5 103.5 -22.5s69.166 -31.167 104.499 -48.5c20 32 40.5 62.333 61.5 91s43.333 54.667 67 78s48.5 43 74.5 59
s53.667 27.333 83 34l-87.5 38c-29 12 -57.167 22.167 -84.5 30.5s-53.5 14.333 -78.5 18s-48.5 3.83398 -70.5 0.500977c-30 -4.66699 -55.333 -13.834 -76 -27.501s-36.667 -29.167 -48 -46.5s-18.166 -35.166 -20.499 -53.499s-0.333008 -34.666 6 -48.999
s17.166 -25.5 32.499 -33.5s34.666 -10 57.999 -6c2 0 3.66699 0.666992 5 2c0.666992 0.666992 1.33398 1.66699 2.00098 3c-19.333 0 -31.666 7.5 -36.999 22.5s-4 33.167 4 54.5c10 24.667 23.167 43.667 39.5 57s34.166 20 53.499 20c12 0 21 -3 27 -9
c14.667 -10 23.5 -23 26.5 -39s1.83301 -32.667 -3.5 -50s-14.5 -34.166 -27.5 -50.499s-28.333 -29.5 -46 -39.5s-37.334 -15.667 -59.001 -17s-43.5 4 -65.5 16c-19.333 10 -33.833 23.667 -43.5 41s-15 36 -16 56s2.5 40.5 10.5 61.5s20.167 40.5 36.5 58.5
s36.833 33.333 61.5 46s53.334 21 86.001 25c29.333 3.33301 60.333 2 93 -4s67 -14.167 103 -24.5s73.5 -21.666 112.5 -33.999s79.5 -23 121.5 -32s85 -15.333 129 -19s89.333 -1.83398 136 5.49902c23.333 4 44.333 10.667 63 20s35 19.666 49 30.999s25.5 23 34.5 35
s15.5 22.333 19.5 31l39 -27c-5.33301 -36 -16.666 -69.333 -33.999 -100c-7.33301 -13.333 -16.166 -26.5 -26.499 -39.5s-22.833 -25.167 -37.5 -36.5s-31.5 -21.166 -50.5 -29.499s-40.5 -14.5 -64.5 -18.5c-22 -3.33301 -45.833 -3 -71.5 1s-52.5 10.5 -80.5 19.5
s-56.833 19.833 -86.5 32.5l-89.5 40c-16 -10.667 -32 -25.834 -48 -45.501s-32.167 -42.5 -48.5 -68.5s-32.833 -54.667 -49.5 -86l-52 -97c28 -7.33301 56.333 -11 85 -11c48 0 86.667 5.5 116 16.5s50.666 23.167 63.999 36.5zM111.998 -94.0029
c30.667 0 59.332 8.33105 85.999 24.998s52.667 39.334 78 68.001c-20.667 11.333 -41 20.166 -61 26.499s-39.667 9.5 -59 9.5c-33.333 0 -58.666 -6.66699 -75.999 -20s-27.5 -28.166 -30.5 -44.499s0.833008 -31.166 11.5 -44.499s27.667 -20 51 -20zM1128 810.995
c0 -18 -6.5 -33.5 -19.5 -46.5s-28.833 -19.5 -47.5 -19.5s-34.5 6.5 -47.5 19.5s-19.5 28.5 -19.5 46.5c0 18.667 6.5 34.5 19.5 47.5s28.833 19.5 47.5 19.5s34.5 -6.5 47.5 -19.5s19.5 -28.833 19.5 -47.5zM961.996 810.995c0 -18 -6.5 -33.5 -19.5 -46.5
s-28.833 -19.5 -47.5 -19.5s-34.5 6.5 -47.5 19.5s-19.5 28.5 -19.5 46.5c0 18.667 6.5 34.5 19.5 47.5s28.833 19.5 47.5 19.5s34.5 -6.5 47.5 -19.5s19.5 -28.833 19.5 -47.5z" />
    <glyph glyph-name="Igrave" unicode="&#xcc;" horiz-adv-x="811" 
d="M963 698c9.33301 4 20.0049 7.83496 32.0049 11.502s24 6.33398 36 8.00098s23.667 1.83398 35 0.500977s21 -5.33301 29 -12c9.33301 -8.66699 12 -19.167 8 -31.5s-13.667 -25 -29 -38s-35.666 -25.5 -60.999 -37.5s-54.333 -21.667 -87 -29
c-25.333 -32.667 -50.166 -70.834 -74.499 -114.501s-48.5 -89.834 -72.5 -138.501l-73.5 -150.5c-25 -51.667 -50.833 -102 -77.5 -151s-54.667 -95.5 -84 -139.5s-60.5 -83 -93.5 -117s-68.333 -61.5 -106 -82.5s-78.167 -33.167 -121.5 -36.5
c-54.667 -4 -97.667 4.16699 -129 24.5s-53 46.833 -65 79.5s-15.333 69 -10 109s17.666 77.5 36.999 112.5s44.666 65 75.999 90s67 38.833 107 41.5c19.333 1.33301 34.166 -2 44.499 -10s16.666 -18.333 18.999 -31s1.16602 -26.834 -3.50098 -42.501
s-12.334 -30.334 -23.001 -44.001s-23.834 -25.334 -39.501 -35.001s-33.167 -15.167 -52.5 -16.5c-18.667 -1.33301 -32.167 4 -40.5 16s-11.166 27.667 -8.49902 47c-24.667 -26.667 -42.334 -57 -53.001 -91s-13.667 -65.667 -9 -95s16.834 -53.666 36.501 -72.999
s47.5 -27.666 83.5 -24.999c30.667 2 60.667 17.667 90 47s58.5 67.333 87.5 114s58.5 99.667 88.5 159l93.5 182c32.333 62 66.333 123 102 183s74.167 114.333 115.5 163c-30 -6 -62.833 -13.5 -98.5 -22.5s-70.167 -20.5 -103.5 -34.5s-64.166 -31 -92.499 -51
s-50.5 -43.667 -66.5 -71c-14 -24.667 -22.333 -48.334 -25 -71.001s-1 -43.167 5 -61.5s15.5 -34 28.5 -47s28.167 -22.167 45.5 -27.5l-29 -32c-30.667 0 -60 7.33301 -88 22s-51 34.667 -69 60s-29.333 54.5 -34 87.5s1.33301 67.833 18 104.5
c14.667 30.667 35.167 56 61.5 76s56.166 36.333 89.499 49s68.666 22.5 105.999 29.5s74.333 12.5 111 16.5l104 11c32.667 3.33301 61 8 85 14c22.667 22 46 41.5 70 58.5s49 31.167 75 42.5zM1017 748.002l-220 96l61 106l179 -163z" />
    <glyph glyph-name="Iacute" unicode="&#xcd;" horiz-adv-x="811" 
d="M963 738c9.33301 4 20.0049 7.83496 32.0049 11.502s24 6.33398 36 8.00098s23.667 1.83398 35 0.500977s21 -5.33301 29 -12c9.33301 -8.66699 12 -19.167 8 -31.5s-13.667 -25 -29 -38s-35.666 -25.5 -60.999 -37.5s-54.333 -21.667 -87 -29
c-25.333 -32.667 -50.166 -70.834 -74.499 -114.501s-48.5 -89.834 -72.5 -138.501l-73.5 -150.5c-25 -51.667 -50.833 -102 -77.5 -151s-54.667 -95.5 -84 -139.5s-60.5 -83 -93.5 -117s-68.333 -61.5 -106 -82.5s-78.167 -33.167 -121.5 -36.5
c-54.667 -4 -97.667 4.16699 -129 24.5s-53 46.833 -65 79.5s-15.333 69 -10 109s17.666 77.5 36.999 112.5s44.666 65 75.999 90s67 38.833 107 41.5c19.333 1.33301 34.166 -2 44.499 -10s16.666 -18.333 18.999 -31s1.16602 -26.834 -3.50098 -42.501
s-12.334 -30.334 -23.001 -44.001s-23.834 -25.334 -39.501 -35.001s-33.167 -15.167 -52.5 -16.5c-18.667 -1.33301 -32.167 4 -40.5 16s-11.166 27.667 -8.49902 47c-24.667 -26.667 -42.334 -57 -53.001 -91s-13.667 -65.667 -9 -95s16.834 -53.666 36.501 -72.999
s47.5 -27.666 83.5 -24.999c30.667 2 60.667 17.667 90 47s58.5 67.333 87.5 114s58.5 99.667 88.5 159l93.5 182c32.333 62 66.333 123 102 183s74.167 114.333 115.5 163c-30 -6 -62.833 -13.5 -98.5 -22.5s-70.167 -20.5 -103.5 -34.5s-64.166 -31 -92.499 -51
s-50.5 -43.667 -66.5 -71c-14 -24.667 -22.333 -48.334 -25 -71.001s-1 -43.167 5 -61.5s15.5 -34 28.5 -47s28.167 -22.167 45.5 -27.5l-29 -32c-30.667 0 -60 7.33301 -88 22s-51 34.667 -69 60s-29.333 54.5 -34 87.5s1.33301 67.833 18 104.5
c14.667 30.667 35.167 56 61.5 76s56.166 36.333 89.499 49s68.666 22.5 105.999 29.5s74.333 12.5 111 16.5l104 11c32.667 3.33301 61 8 85 14c22.667 22 46 41.5 70 58.5s49 31.167 75 42.5zM888.005 802.002l179 163l61 -106l-220 -96z" />
    <glyph glyph-name="Icircumflex" unicode="&#xce;" horiz-adv-x="811" 
d="M973 758c9.33301 4 20.0039 7.83496 32.0039 11.502s24 6.33398 36 8.00098s23.667 1.83398 35 0.500977s21 -5.33301 29 -12c9.33301 -8.66699 12 -19.167 8 -31.5s-13.667 -25 -29 -38s-35.666 -25.5 -60.999 -37.5s-54.333 -21.667 -87 -29
c-25.333 -32.667 -50.166 -70.834 -74.499 -114.501s-48.5 -89.834 -72.5 -138.501l-73.5 -150.5c-25 -51.667 -50.833 -102 -77.5 -151s-54.667 -95.5 -84 -139.5s-60.5 -83 -93.5 -117s-68.333 -61.5 -106 -82.5s-78.167 -33.167 -121.5 -36.5
c-54.667 -4 -97.667 4.16699 -129 24.5s-53 46.833 -65 79.5s-15.333 69 -10 109s17.666 77.5 36.999 112.5s44.666 65 75.999 90s67 38.833 107 41.5c19.333 1.33301 34.166 -2 44.499 -10s16.666 -18.333 18.999 -31s1.16602 -26.834 -3.50098 -42.501
s-12.334 -30.334 -23.001 -44.001s-23.834 -25.334 -39.501 -35.001s-33.167 -15.167 -52.5 -16.5c-18.667 -1.33301 -32.167 4 -40.5 16s-11.166 27.667 -8.49902 47c-24.667 -26.667 -42.334 -57 -53.001 -91s-13.667 -65.667 -9 -95s16.834 -53.666 36.501 -72.999
s47.5 -27.666 83.5 -24.999c30.667 2 60.667 17.667 90 47s58.5 67.333 87.5 114s58.5 99.667 88.5 159l93.5 182c32.333 62 66.333 123 102 183s74.167 114.333 115.5 163c-30 -6 -62.833 -13.5 -98.5 -22.5s-70.167 -20.5 -103.5 -34.5s-64.166 -31 -92.499 -51
s-50.5 -43.667 -66.5 -71c-14 -24.667 -22.333 -48.334 -25 -71.001s-1 -43.167 5 -61.5s15.5 -34 28.5 -47s28.167 -22.167 45.5 -27.5l-29 -32c-30.667 0 -60 7.33301 -88 22s-51 34.667 -69 60s-29.333 54.5 -34 87.5s1.33301 67.833 18 104.5c14 30.667 34.333 56 61 76
s56.667 36.333 90 49s68.666 22.5 105.999 29.5s74.333 12.5 111 16.5l104 11c32.667 3.33301 61 8 85 14c22.667 22 46 41.5 70 58.5s49 31.167 75 42.5zM1185 969.002l26 -144l-120 -1l6 105l-176 -117l-36 49l203 108h97z" />
    <glyph glyph-name="Idieresis" unicode="&#xcf;" horiz-adv-x="811" 
d="M973 758c9.33301 4 20.0039 7.83496 32.0039 11.502s24 6.33398 36 8.00098s23.667 1.83398 35 0.500977s21 -5.33301 29 -12c9.33301 -8.66699 12 -19.167 8 -31.5s-13.667 -25 -29 -38s-35.666 -25.5 -60.999 -37.5s-54.333 -21.667 -87 -29
c-25.333 -32.667 -50.166 -70.834 -74.499 -114.501s-48.5 -89.834 -72.5 -138.501l-73.5 -150.5c-25 -51.667 -50.833 -102 -77.5 -151s-54.667 -95.5 -84 -139.5s-60.5 -83 -93.5 -117s-68.333 -61.5 -106 -82.5s-78.167 -33.167 -121.5 -36.5
c-54.667 -4 -97.667 4.16699 -129 24.5s-53 46.833 -65 79.5s-15.333 69 -10 109s17.666 77.5 36.999 112.5s44.666 65 75.999 90s67 38.833 107 41.5c19.333 1.33301 34.166 -2 44.499 -10s16.666 -18.333 18.999 -31s1.16602 -26.834 -3.50098 -42.501
s-12.334 -30.334 -23.001 -44.001s-23.834 -25.334 -39.501 -35.001s-33.167 -15.167 -52.5 -16.5c-18.667 -1.33301 -32.167 4 -40.5 16s-11.166 27.667 -8.49902 47c-24.667 -26.667 -42.334 -57 -53.001 -91s-13.667 -65.667 -9 -95s16.834 -53.666 36.501 -72.999
s47.5 -27.666 83.5 -24.999c30.667 2 60.667 17.667 90 47s58.5 67.333 87.5 114s58.5 99.667 88.5 159l93.5 182c32.333 62 66.333 123 102 183s74.167 114.333 115.5 163c-30 -6 -62.833 -13.5 -98.5 -22.5s-70.167 -20.5 -103.5 -34.5s-64.166 -31 -92.499 -51
s-50.5 -43.667 -66.5 -71c-14 -24.667 -22.333 -48.334 -25 -71.001s-1 -43.167 5 -61.5s15.5 -34 28.5 -47s28.167 -22.167 45.5 -27.5l-29 -32c-30.667 0 -60 7.33301 -88 22s-51 34.667 -69 60s-29.333 54.5 -34 87.5s1.33301 67.833 18 104.5c14 30.667 34.333 56 61 76
s56.667 36.333 90 49s68.666 22.5 105.999 29.5s74.333 12.5 111 16.5l104 11c32.667 3.33301 61 8 85 14c22.667 22 46 41.5 70 58.5s49 31.167 75 42.5zM1180 866.002c0 -18 -6.5 -33.5 -19.5 -46.5s-28.833 -19.5 -47.5 -19.5s-34.5 6.5 -47.5 19.5
s-19.5 28.5 -19.5 46.5c0 18.667 6.5 34.5 19.5 47.5s28.833 19.5 47.5 19.5s34.5 -6.5 47.5 -19.5s19.5 -28.833 19.5 -47.5zM1014 866.002c0 -18 -6.5 -33.5 -19.5 -46.5s-28.833 -19.5 -47.5 -19.5s-34.5 6.5 -47.5 19.5s-19.5 28.5 -19.5 46.5
c0 18.667 6.5 34.5 19.5 47.5s28.833 19.5 47.5 19.5s34.5 -6.5 47.5 -19.5s19.5 -28.833 19.5 -47.5z" />
    <glyph glyph-name="Eth" unicode="&#xd0;" horiz-adv-x="1085" 
d="M314 223l76.002 0.00292969l73.5 118.5l78.5 123c27.333 41 56 80.5 86 118.5s61.667 73 95 105c-24.667 -4 -50.167 -9.83301 -76.5 -17.5s-53.833 -17.5 -82.5 -29.5c-34.667 -15.333 -64.834 -33 -90.501 -53s-47 -40.833 -64 -62.5s-29.833 -43.334 -38.5 -65.001
s-13.167 -41.334 -13.5 -59.001s3.16699 -33 10.5 -46s18.666 -21.5 33.999 -25.5l-35 -42c-38 2.66699 -69.667 11.667 -95 27s-43.666 34.833 -54.999 58.5s-15.666 50.167 -12.999 79.5s13.334 59 32.001 89s45.167 59 79.5 87s77.166 52.667 128.499 74
c54.667 22.667 113.667 38.167 177 46.5s123.333 9.16602 180 2.49902c34.667 24 71.667 43 111 57s81 21 125 21v-47c-24.667 0 -48.167 -5 -70.5 -15s-43.833 -24 -64.5 -42c48.667 -24.667 85.667 -58.834 111 -102.501s41.333 -92.167 48 -145.5s5 -109 -5 -167
s-26.333 -113.333 -49 -166c-19.333 -45.333 -41.833 -88.166 -67.5 -128.499s-55.334 -75.666 -89.001 -105.999s-72.167 -54.333 -115.5 -72s-92.333 -26.5 -147 -26.5c-34 0 -63.833 5.16699 -89.5 15.5s-48.667 23.5 -69 39.5s-38.666 33.333 -54.999 52l-46.5 53
c-25.333 -15.333 -51.5 -27 -78.5 -35s-55.5 -12 -85.5 -12c-36.667 0 -67 5.5 -91 16.5s-41.833 24.667 -53.5 41s-17.5 34.166 -17.5 53.499s5.5 37.166 16.5 53.499s27.667 30 50 41s50.166 16.5 83.499 16.5c30 0 57 -5.16699 81 -15.5s46.667 -23.166 68 -38.499l22 29
c7.33301 10 14.666 20.667 21.999 32h-60zM590.002 -70.9971c36 0 69.834 7.16797 101.501 21.501s61.5 33.5 89.5 57.5s53.667 52 77 84s44.666 65.667 63.999 101c26 48.667 45.333 100.167 58 154.5s17.334 105.166 14.001 152.499s-15.5 88.5 -36.5 123.5
s-51.833 58.167 -92.5 69.5c-25.333 -28 -50.5 -60.667 -75.5 -98s-50 -76.666 -75 -117.999l-76 -127.5c-25.667 -43.667 -51.834 -85.834 -78.501 -126.501h78l-29 -69h-97c-19.333 -26 -38.833 -50.333 -58.5 -73s-40.167 -43.334 -61.5 -62.001
c13.333 -11.333 27.333 -22.333 42 -33s30 -20.167 46 -28.5s33 -15.166 51 -20.499s37.667 -8 59 -8z" />
    <glyph glyph-name="Ntilde" unicode="&#xd1;" horiz-adv-x="1398" 
d="M1156 730c12 -23.333 16.6689 -52.6709 14.002 -88.0039s-10 -74 -22 -116s-27.333 -86 -46 -132l-56.5 -136l-54.5 -127c-17.333 -40 -30.666 -75.333 -39.999 -106s-13.333 -55 -12 -73s11 -27 29 -27c20 0 40 9.66699 60 29s39.833 45.166 59.5 77.499
s39.334 69.833 59.001 112.5l60.5 134.5l63 142.5c21.333 48 43.166 93.5 65.499 136.5s45.5 82 69.5 117s49 63.167 75 84.5c20 16 43.333 27.833 70 35.5s53.167 10.5 79.5 8.5s50.666 -8.5 72.999 -19.5s39.166 -26.833 50.499 -47.5l-13 -33
c-12.667 5.33301 -26.667 8.16602 -42 8.49902s-31.333 -2.66699 -48 -9s-33.834 -16.5 -51.501 -30.5s-35.5 -32.667 -53.5 -56c-21.333 -28.667 -43.666 -61.834 -66.999 -99.501l-72 -120l-76.5 -131c-26.333 -45 -53.333 -88.5 -81 -130.5s-56.167 -81.833 -85.5 -119.5
s-59 -70.667 -89 -99s-60.667 -50.666 -92 -66.999s-63.333 -24.5 -96 -24.5s-57 7.33301 -73 22s-26 34.5 -30 59.5s-2.83301 54.167 3.5 87.5s15.666 69 27.999 107s26.833 77 43.5 117l50 117.5l46.5 109.5c14.333 34.667 25.666 65.334 33.999 92.001
s12.5 48.5 12.5 65.5s-6.33301 26.833 -19 29.5l-115.5 -218c-39 -73.333 -78.833 -144.166 -119.5 -212.499s-82.167 -132.166 -124.5 -191.499s-86 -111.166 -131 -155.499s-91.5 -79.166 -139.5 -104.499s-97.667 -38 -149 -38c-53.333 0 -95.5 11.167 -126.5 33.5
s-52.333 50.5 -64 84.5s-14.5 70.5 -8.5 109.5s18.833 75.5 38.5 109.5s45.334 62.167 77.001 84.5s67.5 33.5 107.5 33.5c19.333 0 33.833 -4.33301 43.5 -13s15.167 -19.5 16.5 -32.5s-0.833984 -27 -6.50098 -42s-14.167 -29 -25.5 -42s-25.333 -23.833 -42 -32.5
s-34.667 -13 -54 -13c-18 0 -31 6.33301 -39 19s-9.66699 28.667 -5 48c-17.333 -16.667 -31 -35.5 -41 -56.5s-16.5 -42.5 -19.5 -64.5s-2.33301 -43.667 2 -65s12 -40.166 23 -56.499s25.333 -29.5 43 -39.5s38.5 -15 62.5 -15c52.667 0 102.834 13.5 150.501 40.5
s93.667 63.667 138 110s87.5 101 129.5 164s83.167 130.333 123.5 202l120 223l120.5 228.5h189zM1158 809.995c22.667 31.333 49.165 56.666 79.498 75.999s60.833 31.333 91.5 36c20.667 2.66699 35 0.166992 43 -7.5s13.333 -16.5 16 -26.5l7.5 -27.5
c2.33301 -8.33301 8.5 -11.833 18.5 -10.5s20 5.66602 30 12.999s18.667 15.333 26 24c8.66699 10 17.334 21 26.001 33l36 -35c-14.667 -18.667 -30.667 -35.667 -48 -51c-15.333 -13.333 -33.5 -26 -54.5 -38s-43.833 -19.667 -68.5 -23
c-16.667 -2 -29.5 -1.66699 -38.5 1s-15.833 6.83398 -20.5 12.501s-7.83398 12 -9.50098 19s-3 13.5 -4 19.5s-2.66699 10.833 -5 14.5s-6.5 5.16699 -12.5 4.5c-9.33301 -1.33301 -18.666 -5.5 -27.999 -12.5s-17.666 -14.5 -24.999 -22.5
c-8.66699 -9.33301 -17 -19.666 -25 -30.999z" />
    <glyph glyph-name="Ograve" unicode="&#xd2;" horiz-adv-x="1213" 
d="M955 730c52.667 0 96.5039 -9.49609 131.504 -28.4961s62.167 -44.833 81.5 -77.5s31.333 -70.667 36 -114s3.16699 -89.5 -4.5 -138.5s-21.167 -99.167 -40.5 -150.5s-43.5 -101.5 -72.5 -150.5s-62.333 -95.167 -100 -138.5s-78.667 -81.333 -123 -114
s-91.5 -58.5 -141.5 -77.5s-101.667 -28.5 -155 -28.5c-57.333 0 -104.5 10.833 -141.5 32.5s-65.333 50.667 -85 87s-30.834 78.5 -33.501 126.5s1.66602 98.5 12.999 151.5s29 107 53 162s53.667 107.5 89 157.5c-27.333 -2 -55 -6.33301 -83 -13
s-54.833 -15.667 -80.5 -27s-48.834 -25.333 -69.501 -42s-37 -36 -49 -58c-12.667 -23.333 -20.334 -46 -23.001 -68s-1.16699 -42.5 4.5 -61.5s14.667 -35.833 27 -50.5s26.833 -26.334 43.5 -35.001l-40 -22c-13.333 1.33301 -28 6.66602 -44 15.999
s-31.667 21.666 -47 36.999s-29.5 32.833 -42.5 52.5s-23.167 40.5 -30.5 62.5s-10.833 44.667 -10.5 68s6.5 46 18.5 68c18 33.333 44.833 58.166 80.5 74.499s75.167 27.5 118.5 33.5s87.833 9 133.5 9h125.5c29.333 36.667 61.333 70.667 96 102s71.5 58.5 110.5 81.5
s79.833 41 122.5 54s86.667 19.5 132 19.5zM460.004 -186.996c26 -11.333 57.6631 -12.335 94.9961 -3.00195s77 26.833 119 52.5s84.667 58.334 128 98.001s84.333 84.167 123 133.5c24 31.333 46.333 63.333 67 96s39.334 65 56.001 97s30.834 63.167 42.501 93.5
s20.5 58.833 26.5 85.5c-23.333 -22 -54.166 -39.333 -92.499 -52s-80.333 -21.5 -126 -26.5s-92.667 -6.33301 -141 -4s-93.833 8.16602 -136.5 17.499l-21.5 -26.5l-20.5 -27.5c-40 -55.333 -73.5 -112 -100.5 -170s-46.167 -112.167 -57.5 -162.5
s-14.166 -93.666 -8.49902 -129.999s21.5 -60.166 47.5 -71.499zM666 451.002c36 -5.33301 72.499 -8.49902 109.499 -9.49902s72.667 0.166992 107 3.5s66.666 8.66602 96.999 15.999s56.333 16.5 78 27.5s38.5 23.5 50.5 37.5s17 29.667 15 47
c-4 18 -11.333 32.333 -22 43c-21.333 20.667 -48.666 31.5 -81.999 32.5s-69.666 -6.33301 -108.999 -22s-80 -38.667 -122 -69s-82.667 -65.833 -122 -106.5zM1128 730.003l-220 96l61 106l179 -163z" />
    <glyph glyph-name="Oacute" unicode="&#xd3;" horiz-adv-x="1186" 
d="M941 760c52.667 0 96.5039 -9.49609 131.504 -28.4961s62.167 -44.833 81.5 -77.5s31.333 -70.667 36 -114s3.16699 -89.5 -4.5 -138.5s-21.167 -99.167 -40.5 -150.5s-43.5 -101.5 -72.5 -150.5s-62.333 -95.167 -100 -138.5s-78.667 -81.333 -123 -114
s-91.5 -58.5 -141.5 -77.5s-101.667 -28.5 -155 -28.5c-57.333 0 -104.5 10.833 -141.5 32.5s-65.333 50.667 -85 87s-30.834 78.5 -33.501 126.5s1.66602 98.5 12.999 151.5s29 107 53 162s53.667 107.5 89 157.5c-27.333 -2 -55 -6.33301 -83 -13
s-54.833 -15.667 -80.5 -27s-48.834 -25.333 -69.501 -42s-37 -36 -49 -58c-12.667 -23.333 -20.334 -46 -23.001 -68s-1.16699 -42.5 4.5 -61.5s14.667 -35.833 27 -50.5s26.833 -26.334 43.5 -35.001l-40 -22c-13.333 1.33301 -28 6.66602 -44 15.999
s-31.667 21.666 -47 36.999s-29.5 32.833 -42.5 52.5s-23.167 40.5 -30.5 62.5s-10.833 44.667 -10.5 68s6.5 46 18.5 68c18 33.333 44.833 58.166 80.5 74.499s75.167 27.5 118.5 33.5s87.833 9 133.5 9h125.5c29.333 36.667 61.333 70.667 96 102s71.5 58.5 110.5 81.5
s79.833 41 122.5 54s86.667 19.5 132 19.5zM446.004 -156.996c26 -11.333 57.6631 -12.335 94.9961 -3.00195s77 26.833 119 52.5s84.667 58.334 128 98.001s84.333 84.167 123 133.5c24 31.333 46.333 63.333 67 96s39.334 65 56.001 97s30.834 63.167 42.501 93.5
s20.5 58.833 26.5 85.5c-23.333 -22 -54.166 -39.333 -92.499 -52s-80.333 -21.5 -126 -26.5s-92.667 -6.33301 -141 -4s-93.833 8.16602 -136.5 17.499l-21.5 -26.5l-20.5 -27.5c-40 -55.333 -73.5 -112 -100.5 -170s-46.167 -112.167 -57.5 -162.5
s-14.166 -93.666 -8.49902 -129.999s21.5 -60.166 47.5 -71.499zM652 481.002c36 -5.33301 72.499 -8.49902 109.499 -9.49902s72.667 0.166992 107 3.5s66.666 8.66602 96.999 15.999s56.333 16.5 78 27.5s38.5 23.5 50.5 37.5s17 29.667 15 47
c-4 18 -11.333 32.333 -22 43c-21.333 20.667 -48.666 31.5 -81.999 32.5s-69.666 -6.33301 -108.999 -22s-80 -38.667 -122 -69s-82.667 -65.833 -122 -106.5zM845.999 806.003l179 163l61 -106l-220 -96z" />
    <glyph glyph-name="Ocircumflex" unicode="&#xd4;" horiz-adv-x="1186" 
d="M946 790c52.667 0 96.5039 -9.49609 131.504 -28.4961s62.167 -44.833 81.5 -77.5s31.333 -70.667 36 -114s3.16699 -89.5 -4.5 -138.5s-21.167 -99.167 -40.5 -150.5s-43.5 -101.5 -72.5 -150.5s-62.333 -95.167 -100 -138.5s-78.667 -81.333 -123 -114
s-91.5 -58.5 -141.5 -77.5s-101.667 -28.5 -155 -28.5c-57.333 0 -104.5 10.833 -141.5 32.5s-65.333 50.667 -85 87s-30.834 78.5 -33.501 126.5s1.66602 98.5 12.999 151.5s29 107 53 162s53.667 107.5 89 157.5c-27.333 -2 -55 -6.33301 -83 -13
s-54.833 -15.667 -80.5 -27s-48.834 -25.333 -69.501 -42s-37 -36 -49 -58c-12.667 -23.333 -20.334 -46 -23.001 -68s-1.16699 -42.5 4.5 -61.5s14.667 -35.833 27 -50.5s26.833 -26.334 43.5 -35.001l-40 -22c-13.333 1.33301 -28 6.66602 -44 15.999
s-31.667 21.666 -47 36.999s-29.5 32.833 -42.5 52.5s-23.167 40.5 -30.5 62.5s-10.833 44.667 -10.5 68s6.5 46 18.5 68c18 33.333 44.833 58.166 80.5 74.499s75.167 27.5 118.5 33.5s87.833 9 133.5 9h125.5c29.333 36.667 61.333 70.667 96 102s71.5 58.5 110.5 81.5
s79.833 41 122.5 54s86.667 19.5 132 19.5zM451.004 -126.996c26 -11.333 57.6631 -12.335 94.9961 -3.00195s77 26.833 119 52.5s84.667 58.334 128 98.001s84.333 84.167 123 133.5c24 31.333 46.333 63.333 67 96s39.334 65 56.001 97s30.834 63.167 42.501 93.5
s20.5 58.833 26.5 85.5c-23.333 -22 -54.166 -39.333 -92.499 -52s-80.333 -21.5 -126 -26.5s-92.667 -6.33301 -141 -4s-93.833 8.16602 -136.5 17.499l-21.5 -26.5l-20.5 -27.5c-40 -55.333 -73.5 -112 -100.5 -170s-46.167 -112.167 -57.5 -162.5
s-14.166 -93.666 -8.49902 -129.999s21.5 -60.166 47.5 -71.499zM657 511.002c36 -5.33301 72.499 -8.49902 109.499 -9.49902s72.667 0.166992 107 3.5s66.666 8.66602 96.999 15.999s56.333 16.5 78 27.5s38.5 23.5 50.5 37.5s17 29.667 15 47
c-4 18 -11.333 32.333 -22 43c-21.333 20.667 -48.666 31.5 -81.999 32.5s-69.666 -6.33301 -108.999 -22s-80 -38.667 -122 -69s-82.667 -65.833 -122 -106.5zM1112 954.003l26 -144l-120 -1l6 105l-176 -117l-36 49l203 108h97z" />
    <glyph glyph-name="Otilde" unicode="&#xd5;" horiz-adv-x="1200" 
d="M950 780c52.667 0 96.5039 -9.49609 131.504 -28.4961s62.167 -44.833 81.5 -77.5s31.333 -70.667 36 -114s3.16699 -89.5 -4.5 -138.5s-21.167 -99.167 -40.5 -150.5s-43.5 -101.5 -72.5 -150.5s-62.333 -95.167 -100 -138.5s-78.667 -81.333 -123 -114
s-91.5 -58.5 -141.5 -77.5s-101.667 -28.5 -155 -28.5c-57.333 0 -104.5 10.833 -141.5 32.5s-65.333 50.667 -85 87s-30.834 78.5 -33.501 126.5s1.66602 98.5 12.999 151.5s29 107 53 162s53.667 107.5 89 157.5c-27.333 -2 -55 -6.33301 -83 -13
s-54.833 -15.667 -80.5 -27s-48.834 -25.333 -69.501 -42s-37 -36 -49 -58c-12.667 -23.333 -20.334 -46 -23.001 -68s-1.16699 -42.5 4.5 -61.5s14.667 -35.833 27 -50.5s26.833 -26.334 43.5 -35.001l-40 -22c-13.333 1.33301 -28 6.66602 -44 15.999
s-31.667 21.666 -47 36.999s-29.5 32.833 -42.5 52.5s-23.167 40.5 -30.5 62.5s-10.833 44.667 -10.5 68s6.5 46 18.5 68c18 33.333 44.833 58.166 80.5 74.499s75.167 27.5 118.5 33.5s87.833 9 133.5 9h125.5c29.333 36.667 61.333 70.667 96 102s71.5 58.5 110.5 81.5
s79.833 41 122.5 54s86.667 19.5 132 19.5zM455.004 -136.996c26 -11.333 57.6631 -12.335 94.9961 -3.00195s77 26.833 119 52.5s84.667 58.334 128 98.001s84.333 84.167 123 133.5c24 31.333 46.333 63.333 67 96s39.334 65 56.001 97s30.834 63.167 42.501 93.5
s20.5 58.833 26.5 85.5c-23.333 -22 -54.166 -39.333 -92.499 -52s-80.333 -21.5 -126 -26.5s-92.667 -6.33301 -141 -4s-93.833 8.16602 -136.5 17.499l-21.5 -26.5l-20.5 -27.5c-40 -55.333 -73.5 -112 -100.5 -170s-46.167 -112.167 -57.5 -162.5
s-14.166 -93.666 -8.49902 -129.999s21.5 -60.166 47.5 -71.499zM661 501.002c36 -5.33301 72.499 -8.49902 109.499 -9.49902s72.667 0.166992 107 3.5s66.666 8.66602 96.999 15.999s56.333 16.5 78 27.5s38.5 23.5 50.5 37.5s17 29.667 15 47
c-4 18 -11.333 32.333 -22 43c-21.333 20.667 -48.666 31.5 -81.999 32.5s-69.666 -6.33301 -108.999 -22s-80 -38.667 -122 -69s-82.667 -65.833 -122 -106.5zM855.999 843.003c22.667 31.333 49.165 56.666 79.498 75.999s60.833 31.333 91.5 36
c20.667 2.66699 35 0.166992 43 -7.5s13.333 -16.5 16 -26.5l7.5 -27.5c2.33301 -8.33301 8.5 -11.833 18.5 -10.5s20 5.66602 30 12.999s18.667 15.333 26 24c8.66699 10 17.334 21 26.001 33l36 -35c-14.667 -18.667 -30.667 -35.667 -48 -51
c-15.333 -13.333 -33.5 -26 -54.5 -38s-43.833 -19.667 -68.5 -23c-16.667 -2 -29.5 -1.66699 -38.5 1s-15.833 6.83398 -20.5 12.501s-7.83398 12 -9.50098 19s-3 13.5 -4 19.5s-2.66699 10.833 -5 14.5s-6.5 5.16699 -12.5 4.5
c-9.33301 -1.33301 -18.666 -5.5 -27.999 -12.5s-17.666 -14.5 -24.999 -22.5c-8.66699 -9.33301 -17 -19.666 -25 -30.999z" />
    <glyph glyph-name="Odieresis" unicode="&#xd6;" horiz-adv-x="1186" 
d="M946 810c52.667 0 96.5039 -9.49609 131.504 -28.4961s62.167 -44.833 81.5 -77.5s31.333 -70.667 36 -114s3.16699 -89.5 -4.5 -138.5s-21.167 -99.167 -40.5 -150.5s-43.5 -101.5 -72.5 -150.5s-62.333 -95.167 -100 -138.5s-78.667 -81.333 -123 -114
s-91.5 -58.5 -141.5 -77.5s-101.667 -28.5 -155 -28.5c-57.333 0 -104.5 10.833 -141.5 32.5s-65.333 50.667 -85 87s-30.834 78.5 -33.501 126.5s1.66602 98.5 12.999 151.5s29 107 53 162s53.667 107.5 89 157.5c-27.333 -2 -55 -6.33301 -83 -13
s-54.833 -15.667 -80.5 -27s-48.834 -25.333 -69.501 -42s-37 -36 -49 -58c-12.667 -23.333 -20.334 -46 -23.001 -68s-1.16699 -42.5 4.5 -61.5s14.667 -35.833 27 -50.5s26.833 -26.334 43.5 -35.001l-40 -22c-13.333 1.33301 -28 6.66602 -44 15.999
s-31.667 21.666 -47 36.999s-29.5 32.833 -42.5 52.5s-23.167 40.5 -30.5 62.5s-10.833 44.667 -10.5 68s6.5 46 18.5 68c18 33.333 44.833 58.166 80.5 74.499s75.167 27.5 118.5 33.5s87.833 9 133.5 9h125.5c29.333 36.667 61.333 70.667 96 102s71.5 58.5 110.5 81.5
s79.833 41 122.5 54s86.667 19.5 132 19.5zM451.004 -106.996c26 -11.333 57.6631 -12.335 94.9961 -3.00195s77 26.833 119 52.5s84.667 58.334 128 98.001s84.333 84.167 123 133.5c24 31.333 46.333 63.333 67 96s39.334 65 56.001 97s30.834 63.167 42.501 93.5
s20.5 58.833 26.5 85.5c-23.333 -22 -54.166 -39.333 -92.499 -52s-80.333 -21.5 -126 -26.5s-92.667 -6.33301 -141 -4s-93.833 8.16602 -136.5 17.499l-21.5 -26.5l-20.5 -27.5c-40 -55.333 -73.5 -112 -100.5 -170s-46.167 -112.167 -57.5 -162.5
s-14.166 -93.666 -8.49902 -129.999s21.5 -60.166 47.5 -71.499zM657 531.002c36 -5.33301 72.499 -8.49902 109.499 -9.49902s72.667 0.166992 107 3.5s66.666 8.66602 96.999 15.999s56.333 16.5 78 27.5s38.5 23.5 50.5 37.5s17 29.667 15 47
c-4 18 -11.333 32.333 -22 43c-21.333 20.667 -48.666 31.5 -81.999 32.5s-69.666 -6.33301 -108.999 -22s-80 -38.667 -122 -69s-82.667 -65.833 -122 -106.5zM1203 896.003c0 -18 -6.5 -33.5 -19.5 -46.5s-28.833 -19.5 -47.5 -19.5s-34.5 6.5 -47.5 19.5
s-19.5 28.5 -19.5 46.5c0 18.667 6.5 34.5 19.5 47.5s28.833 19.5 47.5 19.5s34.5 -6.5 47.5 -19.5s19.5 -28.833 19.5 -47.5zM1037 896.003c0 -18 -6.5 -33.5 -19.5 -46.5s-28.833 -19.5 -47.5 -19.5s-34.5 6.5 -47.5 19.5s-19.5 28.5 -19.5 46.5
c0 18.667 6.5 34.5 19.5 47.5s28.833 19.5 47.5 19.5s34.5 -6.5 47.5 -19.5s19.5 -28.833 19.5 -47.5z" />
    <glyph glyph-name="multiply" unicode="&#xd7;" horiz-adv-x="450" 
d="M229 210l135 76l8 -61l-113 -50l60 -47l-47 -62l-54 84l-131 -76l-7 62l107 51l-65 44l46 61z" />
    </font>
</defs>
</svg>
